%TF.GenerationSoftware,KiCad,Pcbnew,(6.0.7)*%
%TF.CreationDate,2023-03-01T01:03:30+09:00*%
%TF.ProjectId,airdata,61697264-6174-4612-9e6b-696361645f70,rev?*%
%TF.SameCoordinates,Original*%
%TF.FileFunction,Legend,Top*%
%TF.FilePolarity,Positive*%
%FSLAX46Y46*%
G04 Gerber Fmt 4.6, Leading zero omitted, Abs format (unit mm)*
G04 Created by KiCad (PCBNEW (6.0.7)) date 2023-03-01 01:03:30*
%MOMM*%
%LPD*%
G01*
G04 APERTURE LIST*
%ADD10C,0.101600*%
%ADD11C,0.076200*%
%ADD12C,0.150000*%
%ADD13C,0.066040*%
%ADD14C,0.127000*%
%ADD15C,0.254000*%
%ADD16C,0.120000*%
%ADD17C,0.200000*%
G04 APERTURE END LIST*
D10*
%TO.C,U2*%
X156182766Y-89875966D02*
X156182766Y-90595633D01*
X156225100Y-90680300D01*
X156267433Y-90722633D01*
X156352100Y-90764966D01*
X156521433Y-90764966D01*
X156606100Y-90722633D01*
X156648433Y-90680300D01*
X156690766Y-90595633D01*
X156690766Y-89875966D01*
X157071766Y-89960633D02*
X157114100Y-89918300D01*
X157198766Y-89875966D01*
X157410433Y-89875966D01*
X157495100Y-89918300D01*
X157537433Y-89960633D01*
X157579766Y-90045300D01*
X157579766Y-90129966D01*
X157537433Y-90256966D01*
X157029433Y-90764966D01*
X157579766Y-90764966D01*
D11*
X153193428Y-101595042D02*
X153280514Y-101624071D01*
X153425657Y-101624071D01*
X153483714Y-101595042D01*
X153512742Y-101566014D01*
X153541771Y-101507957D01*
X153541771Y-101449900D01*
X153512742Y-101391842D01*
X153483714Y-101362814D01*
X153425657Y-101333785D01*
X153309542Y-101304757D01*
X153251485Y-101275728D01*
X153222457Y-101246700D01*
X153193428Y-101188642D01*
X153193428Y-101130585D01*
X153222457Y-101072528D01*
X153251485Y-101043500D01*
X153309542Y-101014471D01*
X153454685Y-101014471D01*
X153541771Y-101043500D01*
X154035257Y-101595042D02*
X153977200Y-101624071D01*
X153861085Y-101624071D01*
X153803028Y-101595042D01*
X153774000Y-101536985D01*
X153774000Y-101304757D01*
X153803028Y-101246700D01*
X153861085Y-101217671D01*
X153977200Y-101217671D01*
X154035257Y-101246700D01*
X154064285Y-101304757D01*
X154064285Y-101362814D01*
X153774000Y-101420871D01*
X154557771Y-101595042D02*
X154499714Y-101624071D01*
X154383600Y-101624071D01*
X154325542Y-101595042D01*
X154296514Y-101536985D01*
X154296514Y-101304757D01*
X154325542Y-101246700D01*
X154383600Y-101217671D01*
X154499714Y-101217671D01*
X154557771Y-101246700D01*
X154586800Y-101304757D01*
X154586800Y-101362814D01*
X154296514Y-101420871D01*
X155080285Y-101595042D02*
X155022228Y-101624071D01*
X154906114Y-101624071D01*
X154848057Y-101595042D01*
X154819028Y-101536985D01*
X154819028Y-101304757D01*
X154848057Y-101246700D01*
X154906114Y-101217671D01*
X155022228Y-101217671D01*
X155080285Y-101246700D01*
X155109314Y-101304757D01*
X155109314Y-101362814D01*
X154819028Y-101420871D01*
X155631828Y-101624071D02*
X155631828Y-101014471D01*
X155631828Y-101595042D02*
X155573771Y-101624071D01*
X155457657Y-101624071D01*
X155399600Y-101595042D01*
X155370571Y-101566014D01*
X155341542Y-101507957D01*
X155341542Y-101333785D01*
X155370571Y-101275728D01*
X155399600Y-101246700D01*
X155457657Y-101217671D01*
X155573771Y-101217671D01*
X155631828Y-101246700D01*
X156183371Y-101217671D02*
X156183371Y-101624071D01*
X155922114Y-101217671D02*
X155922114Y-101536985D01*
X155951142Y-101595042D01*
X156009200Y-101624071D01*
X156096285Y-101624071D01*
X156154342Y-101595042D01*
X156183371Y-101566014D01*
X156473657Y-101624071D02*
X156473657Y-101217671D01*
X156473657Y-101014471D02*
X156444628Y-101043500D01*
X156473657Y-101072528D01*
X156502685Y-101043500D01*
X156473657Y-101014471D01*
X156473657Y-101072528D01*
X156763942Y-101217671D02*
X156763942Y-101624071D01*
X156763942Y-101275728D02*
X156792971Y-101246700D01*
X156851028Y-101217671D01*
X156938114Y-101217671D01*
X156996171Y-101246700D01*
X157025200Y-101304757D01*
X157025200Y-101624071D01*
X157402571Y-101624071D02*
X157344514Y-101595042D01*
X157315485Y-101566014D01*
X157286457Y-101507957D01*
X157286457Y-101333785D01*
X157315485Y-101275728D01*
X157344514Y-101246700D01*
X157402571Y-101217671D01*
X157489657Y-101217671D01*
X157547714Y-101246700D01*
X157576742Y-101275728D01*
X157605771Y-101333785D01*
X157605771Y-101507957D01*
X157576742Y-101566014D01*
X157547714Y-101595042D01*
X157489657Y-101624071D01*
X157402571Y-101624071D01*
X157808971Y-101014471D02*
X158215371Y-101624071D01*
X158215371Y-101014471D02*
X157808971Y-101624071D01*
X158447600Y-101624071D02*
X158447600Y-101014471D01*
X158708857Y-101449900D02*
X158999142Y-101449900D01*
X158650800Y-101624071D02*
X158854000Y-101014471D01*
X159057200Y-101624071D01*
X159376514Y-101014471D02*
X159492628Y-101014471D01*
X159550685Y-101043500D01*
X159608742Y-101101557D01*
X159637771Y-101217671D01*
X159637771Y-101420871D01*
X159608742Y-101536985D01*
X159550685Y-101595042D01*
X159492628Y-101624071D01*
X159376514Y-101624071D01*
X159318457Y-101595042D01*
X159260400Y-101536985D01*
X159231371Y-101420871D01*
X159231371Y-101217671D01*
X159260400Y-101101557D01*
X159318457Y-101043500D01*
X159376514Y-101014471D01*
D12*
%TO.C,TORICA-UART1*%
X190737619Y-96326428D02*
X190737619Y-96897857D01*
X189737619Y-96612142D02*
X190737619Y-96612142D01*
X190737619Y-97421666D02*
X190737619Y-97612142D01*
X190690000Y-97707380D01*
X190594761Y-97802619D01*
X190404285Y-97850238D01*
X190070952Y-97850238D01*
X189880476Y-97802619D01*
X189785238Y-97707380D01*
X189737619Y-97612142D01*
X189737619Y-97421666D01*
X189785238Y-97326428D01*
X189880476Y-97231190D01*
X190070952Y-97183571D01*
X190404285Y-97183571D01*
X190594761Y-97231190D01*
X190690000Y-97326428D01*
X190737619Y-97421666D01*
X189737619Y-98850238D02*
X190213809Y-98516904D01*
X189737619Y-98278809D02*
X190737619Y-98278809D01*
X190737619Y-98659761D01*
X190690000Y-98755000D01*
X190642380Y-98802619D01*
X190547142Y-98850238D01*
X190404285Y-98850238D01*
X190309047Y-98802619D01*
X190261428Y-98755000D01*
X190213809Y-98659761D01*
X190213809Y-98278809D01*
X189737619Y-99278809D02*
X190737619Y-99278809D01*
X189832857Y-100326428D02*
X189785238Y-100278809D01*
X189737619Y-100135952D01*
X189737619Y-100040714D01*
X189785238Y-99897857D01*
X189880476Y-99802619D01*
X189975714Y-99755000D01*
X190166190Y-99707380D01*
X190309047Y-99707380D01*
X190499523Y-99755000D01*
X190594761Y-99802619D01*
X190690000Y-99897857D01*
X190737619Y-100040714D01*
X190737619Y-100135952D01*
X190690000Y-100278809D01*
X190642380Y-100326428D01*
X190023333Y-100707380D02*
X190023333Y-101183571D01*
X189737619Y-100612142D02*
X190737619Y-100945476D01*
X189737619Y-101278809D01*
X190118571Y-101612142D02*
X190118571Y-102374047D01*
X190737619Y-102850238D02*
X189928095Y-102850238D01*
X189832857Y-102897857D01*
X189785238Y-102945476D01*
X189737619Y-103040714D01*
X189737619Y-103231190D01*
X189785238Y-103326428D01*
X189832857Y-103374047D01*
X189928095Y-103421666D01*
X190737619Y-103421666D01*
X190023333Y-103850238D02*
X190023333Y-104326428D01*
X189737619Y-103755000D02*
X190737619Y-104088333D01*
X189737619Y-104421666D01*
X189737619Y-105326428D02*
X190213809Y-104993095D01*
X189737619Y-104755000D02*
X190737619Y-104755000D01*
X190737619Y-105135952D01*
X190690000Y-105231190D01*
X190642380Y-105278809D01*
X190547142Y-105326428D01*
X190404285Y-105326428D01*
X190309047Y-105278809D01*
X190261428Y-105231190D01*
X190213809Y-105135952D01*
X190213809Y-104755000D01*
X190737619Y-105612142D02*
X190737619Y-106183571D01*
X189737619Y-105897857D02*
X190737619Y-105897857D01*
%TO.C,PitotTube1*%
X106282380Y-104568095D02*
X105282380Y-104568095D01*
X105282380Y-104187142D01*
X105330000Y-104091904D01*
X105377619Y-104044285D01*
X105472857Y-103996666D01*
X105615714Y-103996666D01*
X105710952Y-104044285D01*
X105758571Y-104091904D01*
X105806190Y-104187142D01*
X105806190Y-104568095D01*
X106282380Y-103568095D02*
X105615714Y-103568095D01*
X105282380Y-103568095D02*
X105330000Y-103615714D01*
X105377619Y-103568095D01*
X105330000Y-103520476D01*
X105282380Y-103568095D01*
X105377619Y-103568095D01*
X105615714Y-103234761D02*
X105615714Y-102853809D01*
X105282380Y-103091904D02*
X106139523Y-103091904D01*
X106234761Y-103044285D01*
X106282380Y-102949047D01*
X106282380Y-102853809D01*
X106282380Y-102377619D02*
X106234761Y-102472857D01*
X106187142Y-102520476D01*
X106091904Y-102568095D01*
X105806190Y-102568095D01*
X105710952Y-102520476D01*
X105663333Y-102472857D01*
X105615714Y-102377619D01*
X105615714Y-102234761D01*
X105663333Y-102139523D01*
X105710952Y-102091904D01*
X105806190Y-102044285D01*
X106091904Y-102044285D01*
X106187142Y-102091904D01*
X106234761Y-102139523D01*
X106282380Y-102234761D01*
X106282380Y-102377619D01*
X105615714Y-101758571D02*
X105615714Y-101377619D01*
X105282380Y-101615714D02*
X106139523Y-101615714D01*
X106234761Y-101568095D01*
X106282380Y-101472857D01*
X106282380Y-101377619D01*
X105282380Y-101187142D02*
X105282380Y-100615714D01*
X106282380Y-100901428D02*
X105282380Y-100901428D01*
X105615714Y-99853809D02*
X106282380Y-99853809D01*
X105615714Y-100282380D02*
X106139523Y-100282380D01*
X106234761Y-100234761D01*
X106282380Y-100139523D01*
X106282380Y-99996666D01*
X106234761Y-99901428D01*
X106187142Y-99853809D01*
X106282380Y-99377619D02*
X105282380Y-99377619D01*
X105663333Y-99377619D02*
X105615714Y-99282380D01*
X105615714Y-99091904D01*
X105663333Y-98996666D01*
X105710952Y-98949047D01*
X105806190Y-98901428D01*
X106091904Y-98901428D01*
X106187142Y-98949047D01*
X106234761Y-98996666D01*
X106282380Y-99091904D01*
X106282380Y-99282380D01*
X106234761Y-99377619D01*
X106234761Y-98091904D02*
X106282380Y-98187142D01*
X106282380Y-98377619D01*
X106234761Y-98472857D01*
X106139523Y-98520476D01*
X105758571Y-98520476D01*
X105663333Y-98472857D01*
X105615714Y-98377619D01*
X105615714Y-98187142D01*
X105663333Y-98091904D01*
X105758571Y-98044285D01*
X105853809Y-98044285D01*
X105949047Y-98520476D01*
%TO.C,J1*%
X186095238Y-107738333D02*
X185619047Y-107738333D01*
X186190476Y-107452619D02*
X185857142Y-108452619D01*
X185523809Y-107452619D01*
X185190476Y-107976428D02*
X184857142Y-107976428D01*
X184714285Y-107452619D02*
X185190476Y-107452619D01*
X185190476Y-108452619D01*
X184714285Y-108452619D01*
X184285714Y-107833571D02*
X183523809Y-107833571D01*
X183047619Y-107452619D02*
X183047619Y-108452619D01*
X182714285Y-107738333D01*
X182380952Y-108452619D01*
X182380952Y-107452619D01*
X181904761Y-107452619D02*
X181904761Y-108452619D01*
X180857142Y-107547857D02*
X180904761Y-107500238D01*
X181047619Y-107452619D01*
X181142857Y-107452619D01*
X181285714Y-107500238D01*
X181380952Y-107595476D01*
X181428571Y-107690714D01*
X181476190Y-107881190D01*
X181476190Y-108024047D01*
X181428571Y-108214523D01*
X181380952Y-108309761D01*
X181285714Y-108405000D01*
X181142857Y-108452619D01*
X181047619Y-108452619D01*
X180904761Y-108405000D01*
X180857142Y-108357380D01*
X179857142Y-107452619D02*
X180190476Y-107928809D01*
X180428571Y-107452619D02*
X180428571Y-108452619D01*
X180047619Y-108452619D01*
X179952380Y-108405000D01*
X179904761Y-108357380D01*
X179857142Y-108262142D01*
X179857142Y-108119285D01*
X179904761Y-108024047D01*
X179952380Y-107976428D01*
X180047619Y-107928809D01*
X180428571Y-107928809D01*
X179238095Y-108452619D02*
X179047619Y-108452619D01*
X178952380Y-108405000D01*
X178857142Y-108309761D01*
X178809523Y-108119285D01*
X178809523Y-107785952D01*
X178857142Y-107595476D01*
X178952380Y-107500238D01*
X179047619Y-107452619D01*
X179238095Y-107452619D01*
X179333333Y-107500238D01*
X179428571Y-107595476D01*
X179476190Y-107785952D01*
X179476190Y-108119285D01*
X179428571Y-108309761D01*
X179333333Y-108405000D01*
X179238095Y-108452619D01*
X178380952Y-107833571D02*
X177619047Y-107833571D01*
X177190476Y-107500238D02*
X177047619Y-107452619D01*
X176809523Y-107452619D01*
X176714285Y-107500238D01*
X176666666Y-107547857D01*
X176619047Y-107643095D01*
X176619047Y-107738333D01*
X176666666Y-107833571D01*
X176714285Y-107881190D01*
X176809523Y-107928809D01*
X177000000Y-107976428D01*
X177095238Y-108024047D01*
X177142857Y-108071666D01*
X177190476Y-108166904D01*
X177190476Y-108262142D01*
X177142857Y-108357380D01*
X177095238Y-108405000D01*
X177000000Y-108452619D01*
X176761904Y-108452619D01*
X176619047Y-108405000D01*
X176190476Y-107452619D02*
X176190476Y-108452619D01*
X175952380Y-108452619D01*
X175809523Y-108405000D01*
X175714285Y-108309761D01*
X175666666Y-108214523D01*
X175619047Y-108024047D01*
X175619047Y-107881190D01*
X175666666Y-107690714D01*
X175714285Y-107595476D01*
X175809523Y-107500238D01*
X175952380Y-107452619D01*
X176190476Y-107452619D01*
X175190476Y-107833571D02*
X174428571Y-107833571D01*
X173952380Y-107452619D02*
X173952380Y-108452619D01*
X173714285Y-108452619D01*
X173571428Y-108405000D01*
X173476190Y-108309761D01*
X173428571Y-108214523D01*
X173380952Y-108024047D01*
X173380952Y-107881190D01*
X173428571Y-107690714D01*
X173476190Y-107595476D01*
X173571428Y-107500238D01*
X173714285Y-107452619D01*
X173952380Y-107452619D01*
X172952380Y-107452619D02*
X172952380Y-108452619D01*
X172476190Y-107452619D02*
X172476190Y-108452619D01*
X172095238Y-108452619D01*
X172000000Y-108405000D01*
X171952380Y-108357380D01*
X171904761Y-108262142D01*
X171904761Y-108119285D01*
X171952380Y-108024047D01*
X172000000Y-107976428D01*
X172095238Y-107928809D01*
X172476190Y-107928809D01*
%TO.C,U1*%
X140447619Y-99628333D02*
X141447619Y-99628333D01*
X141447619Y-99866428D01*
X141400000Y-100009285D01*
X141304761Y-100104523D01*
X141209523Y-100152142D01*
X141019047Y-100199761D01*
X140876190Y-100199761D01*
X140685714Y-100152142D01*
X140590476Y-100104523D01*
X140495238Y-100009285D01*
X140447619Y-99866428D01*
X140447619Y-99628333D01*
X140447619Y-100628333D02*
X141447619Y-100628333D01*
X141447619Y-101009285D01*
X141400000Y-101104523D01*
X141352380Y-101152142D01*
X141257142Y-101199761D01*
X141114285Y-101199761D01*
X141019047Y-101152142D01*
X140971428Y-101104523D01*
X140923809Y-101009285D01*
X140923809Y-100628333D01*
X140495238Y-101580714D02*
X140447619Y-101723571D01*
X140447619Y-101961666D01*
X140495238Y-102056904D01*
X140542857Y-102104523D01*
X140638095Y-102152142D01*
X140733333Y-102152142D01*
X140828571Y-102104523D01*
X140876190Y-102056904D01*
X140923809Y-101961666D01*
X140971428Y-101771190D01*
X141019047Y-101675952D01*
X141066666Y-101628333D01*
X141161904Y-101580714D01*
X141257142Y-101580714D01*
X141352380Y-101628333D01*
X141400000Y-101675952D01*
X141447619Y-101771190D01*
X141447619Y-102009285D01*
X141400000Y-102152142D01*
X141447619Y-102485476D02*
X141447619Y-103104523D01*
X141066666Y-102771190D01*
X141066666Y-102914047D01*
X141019047Y-103009285D01*
X140971428Y-103056904D01*
X140876190Y-103104523D01*
X140638095Y-103104523D01*
X140542857Y-103056904D01*
X140495238Y-103009285D01*
X140447619Y-102914047D01*
X140447619Y-102628333D01*
X140495238Y-102533095D01*
X140542857Y-102485476D01*
X140447619Y-104056904D02*
X140447619Y-103485476D01*
X140447619Y-103771190D02*
X141447619Y-103771190D01*
X141304761Y-103675952D01*
X141209523Y-103580714D01*
X141161904Y-103485476D01*
X141447619Y-104675952D02*
X141447619Y-104771190D01*
X141400000Y-104866428D01*
X141352380Y-104914047D01*
X141257142Y-104961666D01*
X141066666Y-105009285D01*
X140828571Y-105009285D01*
X140638095Y-104961666D01*
X140542857Y-104914047D01*
X140495238Y-104866428D01*
X140447619Y-104771190D01*
X140447619Y-104675952D01*
X140495238Y-104580714D01*
X140542857Y-104533095D01*
X140638095Y-104485476D01*
X140828571Y-104437857D01*
X141066666Y-104437857D01*
X141257142Y-104485476D01*
X141352380Y-104533095D01*
X141400000Y-104580714D01*
X141447619Y-104675952D01*
D13*
%TO.C,U2*%
X151208600Y-91061300D02*
X152986600Y-91061300D01*
D14*
X147525600Y-91815680D02*
X147525600Y-112143300D01*
D13*
X153875600Y-111508300D02*
X153875600Y-108968300D01*
X151208600Y-93728300D02*
X152986600Y-93728300D01*
D14*
X160919020Y-97073480D02*
X151919800Y-97073480D01*
D13*
X161622600Y-93728300D02*
X161622600Y-91061300D01*
X158955600Y-94363300D02*
X158955600Y-91823300D01*
X151208600Y-97794840D02*
X152986600Y-97794840D01*
D14*
X148196160Y-91145120D02*
X147525600Y-91815680D01*
D13*
X153875600Y-108968300D02*
X159590600Y-108968300D01*
D14*
X147525600Y-112143300D02*
X165323380Y-112143300D01*
D13*
X159844600Y-91061300D02*
X161622600Y-91061300D01*
X153875600Y-111508300D02*
X159590600Y-111508300D01*
D14*
X160919020Y-89720180D02*
X160919020Y-97073480D01*
D13*
X152986600Y-97794840D02*
X152986600Y-95125300D01*
D14*
X165323380Y-112143300D02*
X165323380Y-91145120D01*
X151919800Y-97073480D02*
X151919800Y-89720180D01*
D13*
X161622600Y-97794840D02*
X161622600Y-95125300D01*
X151208600Y-95125300D02*
X152986600Y-95125300D01*
D14*
X165323380Y-91145120D02*
X148196160Y-91145120D01*
D13*
X151208600Y-93728300D02*
X151208600Y-91061300D01*
X153875600Y-91823300D02*
X158955600Y-91823300D01*
X159844600Y-95125300D02*
X161622600Y-95125300D01*
X159844600Y-93728300D02*
X161622600Y-93728300D01*
X151208600Y-97794840D02*
X151208600Y-95125300D01*
X159590600Y-111508300D02*
X159590600Y-108968300D01*
X159844600Y-97794840D02*
X161622600Y-97794840D01*
X153875600Y-94363300D02*
X153875600Y-91823300D01*
X152986600Y-93728300D02*
X152986600Y-91061300D01*
X159844600Y-97794840D02*
X159844600Y-95125300D01*
X159844600Y-93728300D02*
X159844600Y-91061300D01*
D14*
X151924880Y-89720180D02*
X160919020Y-89720180D01*
D13*
X153875600Y-94363300D02*
X158955600Y-94363300D01*
D15*
X146763600Y-93982300D02*
G75*
G03*
X146763600Y-93982300I-127000J0D01*
G01*
%TO.C,G\u002A\u002A\u002A*%
G36*
X124564559Y-99950724D02*
G01*
X124682731Y-99982977D01*
X124755785Y-100062400D01*
X124793820Y-100210459D01*
X124806933Y-100448620D01*
X124805225Y-100798349D01*
X124804869Y-100823506D01*
X124794640Y-101154609D01*
X124775449Y-101456961D01*
X124750251Y-101692787D01*
X124727855Y-101807831D01*
X124674516Y-101944757D01*
X124594474Y-102007986D01*
X124441506Y-102025616D01*
X124368596Y-102026217D01*
X124179084Y-102010409D01*
X124051010Y-101970692D01*
X124029161Y-101951415D01*
X124016546Y-101861287D01*
X124012804Y-101668196D01*
X124016622Y-101403185D01*
X124026685Y-101097294D01*
X124041682Y-100781565D01*
X124060297Y-100487041D01*
X124081217Y-100244764D01*
X124103129Y-100085775D01*
X124109167Y-100060741D01*
X124182707Y-99974836D01*
X124352294Y-99944592D01*
X124391168Y-99944177D01*
X124564559Y-99950724D01*
G37*
G36*
X126222244Y-100106499D02*
G01*
X126567486Y-100212290D01*
X126733915Y-100304266D01*
X126882478Y-100434678D01*
X126998127Y-100594917D01*
X127058212Y-100745130D01*
X127040986Y-100844578D01*
X126913370Y-100889665D01*
X126722821Y-100873112D01*
X126520187Y-100804803D01*
X126379367Y-100715981D01*
X126239918Y-100607308D01*
X126141391Y-100550423D01*
X126129312Y-100547992D01*
X125999826Y-100588720D01*
X125838465Y-100685308D01*
X125708742Y-100798948D01*
X125699095Y-100810870D01*
X125625041Y-100995421D01*
X125620875Y-101220004D01*
X125682231Y-101422594D01*
X125748122Y-101507315D01*
X125927689Y-101598217D01*
X126132866Y-101617199D01*
X126306205Y-101562839D01*
X126352116Y-101522248D01*
X126479850Y-101452023D01*
X126670689Y-101423497D01*
X126858332Y-101442114D01*
X126935970Y-101474306D01*
X126975536Y-101566577D01*
X126930084Y-101707431D01*
X126820588Y-101862831D01*
X126668022Y-101998736D01*
X126581946Y-102048836D01*
X126245837Y-102140755D01*
X125871405Y-102128972D01*
X125632506Y-102066089D01*
X125325616Y-101888551D01*
X125110053Y-101621277D01*
X124994460Y-101280475D01*
X124987479Y-100882353D01*
X124990126Y-100861302D01*
X125090090Y-100564914D01*
X125287458Y-100333518D01*
X125558055Y-100174835D01*
X125877709Y-100096588D01*
X126222244Y-100106499D01*
G37*
G36*
X114833028Y-103123289D02*
G01*
X114943445Y-102919656D01*
X114943565Y-102919504D01*
X114979590Y-102807204D01*
X114895628Y-102730185D01*
X114703687Y-102698469D01*
X114678390Y-102698174D01*
X114477294Y-102686251D01*
X114212538Y-102655486D01*
X114018140Y-102625429D01*
X113790642Y-102580848D01*
X113669708Y-102538296D01*
X113628541Y-102483202D01*
X113635749Y-102417527D01*
X113659591Y-102358943D01*
X113710515Y-102321452D01*
X113812756Y-102301595D01*
X113990547Y-102295918D01*
X114268123Y-102300964D01*
X114421388Y-102305484D01*
X114749624Y-102314181D01*
X114973697Y-102312944D01*
X115123746Y-102296860D01*
X115229906Y-102261013D01*
X115322313Y-102200490D01*
X115386238Y-102148147D01*
X115520349Y-102019555D01*
X115595176Y-101917133D01*
X115600793Y-101896163D01*
X115537433Y-101856249D01*
X115361757Y-101830977D01*
X115147222Y-101823600D01*
X114902584Y-101814931D01*
X114705494Y-101793266D01*
X114602750Y-101764970D01*
X114568273Y-101722327D01*
X114549066Y-101634456D01*
X114545013Y-101481311D01*
X114555998Y-101242848D01*
X114581904Y-100899021D01*
X114596717Y-100724031D01*
X114623807Y-100374115D01*
X114641243Y-100072915D01*
X114648047Y-99845203D01*
X114643241Y-99715754D01*
X114637314Y-99696423D01*
X114553875Y-99672489D01*
X114370846Y-99647739D01*
X114122926Y-99626524D01*
X114038584Y-99621360D01*
X113701515Y-99597304D01*
X113476502Y-99561036D01*
X113341213Y-99499676D01*
X113273314Y-99400343D01*
X113250472Y-99250155D01*
X113248942Y-99165924D01*
X113270633Y-98940781D01*
X113333620Y-98832092D01*
X113342495Y-98827898D01*
X113434436Y-98823498D01*
X113639332Y-98831293D01*
X113936432Y-98849915D01*
X114304987Y-98877997D01*
X114724244Y-98914170D01*
X114904797Y-98930910D01*
X115367657Y-98974566D01*
X115815165Y-99016555D01*
X116219480Y-99054280D01*
X116552760Y-99085147D01*
X116787163Y-99106559D01*
X116827622Y-99110181D01*
X117105251Y-99145160D01*
X117272111Y-99204385D01*
X117351815Y-99310179D01*
X117367972Y-99484866D01*
X117358892Y-99612499D01*
X117332490Y-99889347D01*
X116671274Y-99842021D01*
X116408819Y-99820940D01*
X116219557Y-99813083D01*
X116090665Y-99836398D01*
X116009316Y-99908834D01*
X115962687Y-100048340D01*
X115937951Y-100272863D01*
X115922284Y-100600352D01*
X115909504Y-100908112D01*
X115888624Y-101239240D01*
X115859657Y-101517637D01*
X115826218Y-101714882D01*
X115796219Y-101798456D01*
X115757511Y-101873488D01*
X115827751Y-101891825D01*
X115906605Y-101933992D01*
X115935872Y-102076445D01*
X115936772Y-102123966D01*
X115950634Y-102283670D01*
X116018315Y-102357207D01*
X116155159Y-102388552D01*
X116376838Y-102411716D01*
X116714261Y-102433787D01*
X117153863Y-102454627D01*
X117682079Y-102474098D01*
X118285346Y-102492062D01*
X118950099Y-102508382D01*
X119662773Y-102522919D01*
X120409805Y-102535537D01*
X121177631Y-102546097D01*
X121952685Y-102554462D01*
X122721405Y-102560493D01*
X123470225Y-102564054D01*
X124185582Y-102565007D01*
X124853911Y-102563214D01*
X125461647Y-102558536D01*
X125995228Y-102550837D01*
X126441088Y-102539979D01*
X126785663Y-102525824D01*
X127015390Y-102508234D01*
X127076273Y-102499431D01*
X127350096Y-102427143D01*
X127575544Y-102329964D01*
X127722471Y-102223595D01*
X127763227Y-102141681D01*
X127791604Y-102103549D01*
X127806039Y-102113826D01*
X127883738Y-102110850D01*
X128005155Y-102043884D01*
X128124393Y-101947498D01*
X128195557Y-101856260D01*
X128196824Y-101819491D01*
X128092278Y-101753207D01*
X127951742Y-101787822D01*
X127810307Y-101910177D01*
X127759771Y-101983387D01*
X127632841Y-102145694D01*
X127500374Y-102194905D01*
X127476455Y-102193550D01*
X127298263Y-102176506D01*
X127208862Y-102169184D01*
X127114428Y-102118489D01*
X127103204Y-101981449D01*
X127175690Y-101750908D01*
X127249719Y-101585221D01*
X127368645Y-101333675D01*
X127412283Y-101239930D01*
X127948589Y-101239930D01*
X127972969Y-101325809D01*
X128100066Y-101353508D01*
X128144003Y-101354259D01*
X128272731Y-101315073D01*
X128300793Y-101232711D01*
X128262189Y-101080563D01*
X128210104Y-100987137D01*
X128144440Y-100914126D01*
X128092548Y-100933828D01*
X128020832Y-101060743D01*
X128015680Y-101071052D01*
X127948589Y-101239930D01*
X127412283Y-101239930D01*
X127486868Y-101079704D01*
X127530435Y-100984682D01*
X127679630Y-100686832D01*
X127813444Y-100497426D01*
X127951382Y-100395125D01*
X128102076Y-100359330D01*
X128369788Y-100367439D01*
X128526916Y-100439297D01*
X128569577Y-100548472D01*
X128598572Y-100673232D01*
X128630925Y-100712286D01*
X128681063Y-100797884D01*
X128727226Y-100961432D01*
X128735019Y-101003208D01*
X128786305Y-101243108D01*
X128850665Y-101366565D01*
X128947956Y-101391359D01*
X129098035Y-101335266D01*
X129103104Y-101332747D01*
X129316980Y-101261080D01*
X129453509Y-101284232D01*
X129507861Y-101383876D01*
X129475209Y-101541687D01*
X129350727Y-101739339D01*
X129241534Y-101858227D01*
X129052936Y-102064045D01*
X128976512Y-102202582D01*
X129012487Y-102272039D01*
X129161083Y-102270613D01*
X129191137Y-102264601D01*
X129410657Y-102222090D01*
X129654197Y-102181482D01*
X129676921Y-102178090D01*
X129971970Y-102108268D01*
X130303158Y-101990236D01*
X130611190Y-101847702D01*
X130810929Y-101724686D01*
X130935564Y-101588386D01*
X130988601Y-101445483D01*
X130988624Y-101443056D01*
X130941980Y-101318857D01*
X130823130Y-101148660D01*
X130663694Y-100966580D01*
X130495295Y-100806730D01*
X130349554Y-100703224D01*
X130283453Y-100682301D01*
X130193785Y-100646138D01*
X130182275Y-100615106D01*
X130130228Y-100551025D01*
X130107887Y-100547910D01*
X130013797Y-100521272D01*
X129835434Y-100451099D01*
X129609686Y-100352004D01*
X129587120Y-100341619D01*
X129346652Y-100230525D01*
X129139447Y-100134864D01*
X129009078Y-100074752D01*
X129006349Y-100073497D01*
X128842229Y-100006170D01*
X128577866Y-99907072D01*
X128240858Y-99785881D01*
X127858804Y-99652274D01*
X127459301Y-99515927D01*
X127069947Y-99386520D01*
X126788889Y-99295939D01*
X126483377Y-99196993D01*
X126217385Y-99106758D01*
X126021863Y-99035990D01*
X125933054Y-98998564D01*
X125763950Y-98943300D01*
X125685036Y-98935211D01*
X125559771Y-98910036D01*
X125519266Y-98879499D01*
X125439885Y-98835594D01*
X125269447Y-98778899D01*
X125095327Y-98733830D01*
X124874508Y-98677879D01*
X124705428Y-98626015D01*
X124638624Y-98597220D01*
X124528643Y-98548998D01*
X124369841Y-98502523D01*
X124139418Y-98432787D01*
X123944757Y-98348012D01*
X123804890Y-98261848D01*
X123738853Y-98187944D01*
X123765679Y-98139949D01*
X123849074Y-98129076D01*
X123979079Y-98146422D01*
X124222938Y-98195661D01*
X124564950Y-98272961D01*
X124989412Y-98374491D01*
X125480621Y-98496420D01*
X126022877Y-98634915D01*
X126600476Y-98786147D01*
X127192063Y-98944750D01*
X127473069Y-99020726D01*
X127743860Y-99093511D01*
X127931217Y-99143472D01*
X128443629Y-99284985D01*
X128946361Y-99434721D01*
X129411875Y-99583732D01*
X129812634Y-99723069D01*
X130121099Y-99843785D01*
X130211695Y-99884483D01*
X130388678Y-99962029D01*
X130516840Y-100006340D01*
X130541568Y-100010344D01*
X130625229Y-100048249D01*
X130779968Y-100147304D01*
X130959566Y-100276658D01*
X131274970Y-100562884D01*
X131459954Y-100853437D01*
X131518229Y-101161025D01*
X131453505Y-101498358D01*
X131372230Y-101690238D01*
X131248711Y-101886003D01*
X131076894Y-102052445D01*
X130841986Y-102195764D01*
X130529196Y-102322164D01*
X130123730Y-102437845D01*
X129610798Y-102549010D01*
X129107143Y-102639872D01*
X128842373Y-102682395D01*
X128614236Y-102714929D01*
X128468214Y-102731038D01*
X128459599Y-102731510D01*
X128321843Y-102776314D01*
X128143256Y-102881803D01*
X128070611Y-102936375D01*
X127863061Y-103103024D01*
X127628553Y-103289532D01*
X127542229Y-103357687D01*
X127356788Y-103504262D01*
X127198726Y-103630225D01*
X127140898Y-103676867D01*
X127019524Y-103754017D01*
X126956110Y-103773307D01*
X126891399Y-103814120D01*
X126889682Y-103826015D01*
X126837798Y-103893274D01*
X126712202Y-103983803D01*
X126704894Y-103988172D01*
X126518155Y-104113462D01*
X126337425Y-104254644D01*
X126097444Y-104422560D01*
X125762332Y-104605480D01*
X125367786Y-104787658D01*
X124949501Y-104953343D01*
X124543173Y-105086789D01*
X124319444Y-105144949D01*
X124178028Y-105192372D01*
X124151079Y-105255774D01*
X124240802Y-105351896D01*
X124357861Y-105436540D01*
X124561133Y-105593654D01*
X124756763Y-105772417D01*
X124770820Y-105786888D01*
X124887758Y-105922973D01*
X124916051Y-106012715D01*
X124870944Y-106095013D01*
X124821611Y-106135223D01*
X124737908Y-106163484D01*
X124600091Y-106181240D01*
X124388418Y-106189934D01*
X124083144Y-106191009D01*
X123664528Y-106185909D01*
X123634377Y-106185422D01*
X123245079Y-106182104D01*
X122894116Y-106184774D01*
X122607237Y-106192796D01*
X122410190Y-106205534D01*
X122337933Y-106217424D01*
X122198282Y-106225600D01*
X122062053Y-106131796D01*
X122035552Y-106104196D01*
X121880520Y-105984954D01*
X121661536Y-105870343D01*
X121552469Y-105827868D01*
X121084249Y-105633891D01*
X120729204Y-105410353D01*
X120677423Y-105366606D01*
X120593560Y-105300028D01*
X120499607Y-105252518D01*
X120370231Y-105219455D01*
X120180098Y-105196217D01*
X119903878Y-105178182D01*
X119558612Y-105162490D01*
X119248633Y-105143200D01*
X118977598Y-105114773D01*
X118780854Y-105081551D01*
X118706284Y-105057779D01*
X118579945Y-105026581D01*
X118345043Y-105002236D01*
X118027317Y-104986693D01*
X117705079Y-104981853D01*
X117203470Y-104971067D01*
X116828832Y-104939654D01*
X116575256Y-104887101D01*
X116560901Y-104882274D01*
X116291270Y-104815467D01*
X116110832Y-104842503D01*
X116005497Y-104971240D01*
X115961174Y-105209534D01*
X115960728Y-105216930D01*
X115902022Y-105504137D01*
X115774346Y-105719823D01*
X115595473Y-105839814D01*
X115490566Y-105856375D01*
X115227178Y-105799340D01*
X114962086Y-105647946D01*
X114745581Y-105431757D01*
X114729308Y-105408837D01*
X114651525Y-105279705D01*
X114603852Y-105145196D01*
X114579449Y-104968191D01*
X114571476Y-104711574D01*
X114571462Y-104552261D01*
X114593224Y-104175754D01*
X114649611Y-103787789D01*
X114698888Y-103571522D01*
X115861672Y-103571522D01*
X115864995Y-103852788D01*
X115875581Y-104096841D01*
X115893703Y-104269388D01*
X115903320Y-104311332D01*
X115929564Y-104365881D01*
X115982430Y-104403330D01*
X116084236Y-104426952D01*
X116257301Y-104440016D01*
X116523944Y-104445796D01*
X116831644Y-104447401D01*
X117190913Y-104450075D01*
X117432353Y-104457351D01*
X117572501Y-104471178D01*
X117627893Y-104493504D01*
X117615066Y-104526277D01*
X117600912Y-104538040D01*
X117526076Y-104624411D01*
X117528117Y-104670295D01*
X117625442Y-104702745D01*
X117790595Y-104713212D01*
X117965132Y-104703165D01*
X118090608Y-104674073D01*
X118115267Y-104655537D01*
X118081169Y-104593951D01*
X117957109Y-104488334D01*
X117769791Y-104361365D01*
X117766455Y-104359302D01*
X117451138Y-104135297D01*
X117158367Y-103874082D01*
X116908750Y-103599570D01*
X116722897Y-103335673D01*
X116621419Y-103106306D01*
X116608730Y-103016016D01*
X116647639Y-103009639D01*
X116745481Y-103087036D01*
X116794262Y-103136771D01*
X117048232Y-103380687D01*
X117344528Y-103621665D01*
X117626035Y-103814039D01*
X117680869Y-103845612D01*
X117874893Y-103957826D01*
X118032712Y-104055928D01*
X118217527Y-104149575D01*
X118503761Y-104262089D01*
X118861314Y-104384711D01*
X119260082Y-104508684D01*
X119669964Y-104625249D01*
X120060859Y-104725647D01*
X120402665Y-104801120D01*
X120665279Y-104842911D01*
X120756536Y-104848439D01*
X120921902Y-104825328D01*
X121020515Y-104777500D01*
X121105950Y-104751284D01*
X121294116Y-104747563D01*
X121594889Y-104766645D01*
X122017122Y-104808728D01*
X122355322Y-104848246D01*
X122643484Y-104886060D01*
X122856297Y-104918536D01*
X122968453Y-104942036D01*
X122978758Y-104946863D01*
X123003849Y-104970418D01*
X123040390Y-104977486D01*
X123121148Y-104963530D01*
X123278894Y-104924017D01*
X123431635Y-104884200D01*
X123667067Y-104810652D01*
X123923416Y-104711572D01*
X124169446Y-104601647D01*
X124373923Y-104495567D01*
X124505609Y-104408019D01*
X124537831Y-104364031D01*
X124589733Y-104312721D01*
X124608061Y-104310873D01*
X124692018Y-104275361D01*
X124856847Y-104180418D01*
X125073148Y-104043429D01*
X125176190Y-103974894D01*
X125400433Y-103825812D01*
X125579919Y-103710677D01*
X125687726Y-103646568D01*
X125705789Y-103638915D01*
X125781532Y-103603414D01*
X125932304Y-103510815D01*
X126127846Y-103381978D01*
X126337899Y-103237761D01*
X126532206Y-103099023D01*
X126680507Y-102986623D01*
X126752544Y-102921420D01*
X126755153Y-102915531D01*
X126689818Y-102906680D01*
X126501401Y-102897866D01*
X126201211Y-102889263D01*
X125800558Y-102881040D01*
X125310752Y-102873371D01*
X124743103Y-102866426D01*
X124108919Y-102860378D01*
X123419510Y-102855399D01*
X122686186Y-102851659D01*
X122502844Y-102850958D01*
X121719415Y-102847164D01*
X120945151Y-102841538D01*
X120195777Y-102834312D01*
X119487020Y-102825720D01*
X118834605Y-102815995D01*
X118254257Y-102805372D01*
X117761703Y-102794083D01*
X117372669Y-102782362D01*
X117110521Y-102770883D01*
X116731460Y-102752538D01*
X116399186Y-102742559D01*
X116136876Y-102741151D01*
X115967713Y-102748522D01*
X115915591Y-102760233D01*
X115892572Y-102847400D01*
X115875732Y-103034533D01*
X115865341Y-103287339D01*
X115861672Y-103571522D01*
X114698888Y-103571522D01*
X114732315Y-103424817D01*
X114833028Y-103123289D01*
G37*
G36*
X117360597Y-100426972D02*
G01*
X117403488Y-100244421D01*
X117512068Y-100048373D01*
X117523420Y-100031018D01*
X117740545Y-99784675D01*
X118021890Y-99579153D01*
X118040713Y-99568697D01*
X118187190Y-99492672D01*
X118315229Y-99442907D01*
X118456798Y-99415247D01*
X118643869Y-99405535D01*
X118908409Y-99409615D01*
X119187338Y-99419630D01*
X119538830Y-99435442D01*
X119788045Y-99455179D01*
X119967070Y-99485302D01*
X120107998Y-99532272D01*
X120242916Y-99602549D01*
X120315457Y-99646766D01*
X120626288Y-99876473D01*
X120824720Y-100118093D01*
X120931641Y-100400720D01*
X120953984Y-100536098D01*
X120945364Y-100943931D01*
X120821035Y-101291336D01*
X120588210Y-101572212D01*
X120254104Y-101780456D01*
X119825929Y-101909965D01*
X119310900Y-101954636D01*
X119277413Y-101954486D01*
X118976939Y-101939332D01*
X118677666Y-101904381D01*
X118470959Y-101863457D01*
X118070671Y-101698701D01*
X117743016Y-101449207D01*
X117506369Y-101134843D01*
X117379109Y-100775479D01*
X117366339Y-100674993D01*
X118450454Y-100674993D01*
X118492656Y-100937554D01*
X118628763Y-101160477D01*
X118838531Y-101324175D01*
X119101718Y-101409060D01*
X119398080Y-101395545D01*
X119520790Y-101358425D01*
X119679141Y-101266159D01*
X119846085Y-101124361D01*
X119863313Y-101106441D01*
X119979752Y-100951288D01*
X120022947Y-100783374D01*
X120021085Y-100617335D01*
X119991994Y-100410884D01*
X119915680Y-100276784D01*
X119773793Y-100163764D01*
X119493496Y-100045129D01*
X119167009Y-100010032D01*
X118857163Y-100063430D01*
X118798992Y-100086850D01*
X118657031Y-100198856D01*
X118533157Y-100370896D01*
X118522400Y-100392381D01*
X118450454Y-100674993D01*
X117366339Y-100674993D01*
X117365487Y-100668289D01*
X117360597Y-100426972D01*
G37*
G36*
X121342539Y-99964203D02*
G01*
X121370786Y-99843247D01*
X121408235Y-99773909D01*
X121455709Y-99736806D01*
X121575957Y-99714325D01*
X121795049Y-99708803D01*
X122078865Y-99717665D01*
X122393282Y-99738334D01*
X122704182Y-99768237D01*
X122977443Y-99804798D01*
X123178945Y-99845443D01*
X123254814Y-99872582D01*
X123439236Y-100020219D01*
X123587044Y-100223508D01*
X123661429Y-100428805D01*
X123664286Y-100469300D01*
X123618757Y-100632125D01*
X123507296Y-100804253D01*
X123488775Y-100824543D01*
X123313264Y-101007737D01*
X123484943Y-101365786D01*
X123612901Y-101644098D01*
X123673249Y-101825611D01*
X123661208Y-101932329D01*
X123571999Y-101986253D01*
X123400841Y-102009386D01*
X123344354Y-102012955D01*
X123129962Y-102017254D01*
X123013610Y-101992502D01*
X122960453Y-101929691D01*
X122954455Y-101912162D01*
X122903431Y-101779682D01*
X122817579Y-101588109D01*
X122777880Y-101505450D01*
X122681383Y-101330270D01*
X122588716Y-101246559D01*
X122453454Y-101221142D01*
X122378228Y-101219868D01*
X122118783Y-101219868D01*
X122118783Y-101542407D01*
X122102886Y-101750023D01*
X122062631Y-101905808D01*
X122038148Y-101945582D01*
X121925062Y-101994598D01*
X121740901Y-102020333D01*
X121536927Y-102022197D01*
X121364402Y-101999602D01*
X121275946Y-101954345D01*
X121263616Y-101865284D01*
X121258872Y-101667027D01*
X121261617Y-101384550D01*
X121271754Y-101042830D01*
X121280217Y-100843571D01*
X121300533Y-100443686D01*
X121304470Y-100386432D01*
X122163172Y-100386432D01*
X122180615Y-100528408D01*
X122199378Y-100568361D01*
X122307376Y-100648978D01*
X122484603Y-100675983D01*
X122678405Y-100652385D01*
X122836128Y-100581192D01*
X122884691Y-100529198D01*
X122910182Y-100405336D01*
X122809974Y-100322889D01*
X122586735Y-100283487D01*
X122477160Y-100280156D01*
X122260393Y-100305370D01*
X122163172Y-100386432D01*
X121304470Y-100386432D01*
X121320215Y-100157456D01*
X121342539Y-99964203D01*
G37*
D16*
%TO.C,TORICA-UART1*%
X203370000Y-100330000D02*
X203370000Y-99830000D01*
X203370000Y-97330000D02*
X197870000Y-97330000D01*
X203370000Y-99830000D02*
X197870000Y-99830000D01*
X203980000Y-107640000D02*
X192260000Y-107640000D01*
X196760000Y-106220000D02*
X196760000Y-101330000D01*
X203980000Y-101330000D02*
X203980000Y-107640000D01*
X197870000Y-97330000D02*
X197870000Y-97830000D01*
X197870000Y-105330000D02*
X203370000Y-105330000D01*
X192570000Y-104780000D02*
X193170000Y-105080000D01*
X203980000Y-101330000D02*
X203980000Y-95020000D01*
X197870000Y-100330000D02*
X203370000Y-100330000D01*
X203370000Y-102830000D02*
X203370000Y-102330000D01*
X192260000Y-96440000D02*
X196760000Y-96440000D01*
X192260000Y-107640000D02*
X192260000Y-106220000D01*
X197870000Y-97830000D02*
X203370000Y-97830000D01*
X192260000Y-95020000D02*
X192260000Y-96440000D01*
X192570000Y-105380000D02*
X192570000Y-104780000D01*
X203980000Y-95020000D02*
X192260000Y-95020000D01*
X203370000Y-102330000D02*
X197870000Y-102330000D01*
X192260000Y-106220000D02*
X196760000Y-106220000D01*
X203370000Y-104830000D02*
X197870000Y-104830000D01*
X193170000Y-105080000D02*
X192570000Y-105380000D01*
X203370000Y-97830000D02*
X203370000Y-97330000D01*
X197870000Y-102330000D02*
X197870000Y-102830000D01*
X197870000Y-99830000D02*
X197870000Y-100330000D01*
X203370000Y-105330000D02*
X203370000Y-104830000D01*
X197870000Y-102830000D02*
X203370000Y-102830000D01*
X196760000Y-96440000D02*
X196760000Y-101330000D01*
X197870000Y-104830000D02*
X197870000Y-105330000D01*
%TO.C,PitotTube1*%
X93810000Y-105330000D02*
X99310000Y-105330000D01*
X104610000Y-97280000D02*
X104610000Y-97880000D01*
X104010000Y-97580000D02*
X104610000Y-97280000D01*
X99310000Y-102330000D02*
X93810000Y-102330000D01*
X99310000Y-97830000D02*
X99310000Y-97330000D01*
X93810000Y-97830000D02*
X99310000Y-97830000D01*
X93200000Y-95020000D02*
X104920000Y-95020000D01*
X93810000Y-97330000D02*
X93810000Y-97830000D01*
X99310000Y-97330000D02*
X93810000Y-97330000D01*
X99310000Y-99830000D02*
X93810000Y-99830000D01*
X93810000Y-104830000D02*
X93810000Y-105330000D01*
X104920000Y-107640000D02*
X104920000Y-106220000D01*
X100420000Y-106220000D02*
X100420000Y-101330000D01*
X104920000Y-106220000D02*
X100420000Y-106220000D01*
X99310000Y-102830000D02*
X99310000Y-102330000D01*
X104920000Y-96440000D02*
X100420000Y-96440000D01*
X104920000Y-95020000D02*
X104920000Y-96440000D01*
X99310000Y-104830000D02*
X93810000Y-104830000D01*
X93810000Y-102330000D02*
X93810000Y-102830000D01*
X93200000Y-101330000D02*
X93200000Y-95020000D01*
X99310000Y-100330000D02*
X99310000Y-99830000D01*
X100420000Y-96440000D02*
X100420000Y-101330000D01*
X104610000Y-97880000D02*
X104010000Y-97580000D01*
X99310000Y-105330000D02*
X99310000Y-104830000D01*
X93810000Y-100330000D02*
X99310000Y-100330000D01*
X93200000Y-107640000D02*
X104920000Y-107640000D01*
X93200000Y-101330000D02*
X93200000Y-107640000D01*
X93810000Y-102830000D02*
X99310000Y-102830000D01*
X93810000Y-99830000D02*
X93810000Y-100330000D01*
D17*
%TO.C,J1*%
X166300000Y-92440000D02*
X191700000Y-92440000D01*
X191700000Y-92440000D02*
X191700000Y-112000000D01*
X191700000Y-112000000D02*
X166300000Y-112000000D01*
X166300000Y-112000000D02*
X166300000Y-92440000D01*
D16*
%TO.C,U1*%
X146830000Y-92295000D02*
X106880000Y-92295000D01*
X106880000Y-92295000D02*
X106880000Y-112297073D01*
X106880000Y-112297073D02*
X146830000Y-112297073D01*
X146830000Y-112297073D02*
X146830000Y-92295000D01*
%TD*%
M02*
