%TF.GenerationSoftware,KiCad,Pcbnew,(6.0.11)*%
%TF.CreationDate,2023-02-20T15:08:45+09:00*%
%TF.ProjectId,airdata,61697264-6174-4612-9e6b-696361645f70,rev?*%
%TF.SameCoordinates,Original*%
%TF.FileFunction,Soldermask,Top*%
%TF.FilePolarity,Negative*%
%FSLAX46Y46*%
G04 Gerber Fmt 4.6, Leading zero omitted, Abs format (unit mm)*
G04 Created by KiCad (PCBNEW (6.0.11)) date 2023-02-20 15:08:45*
%MOMM*%
%LPD*%
G01*
G04 APERTURE LIST*
G04 Aperture macros list*
%AMRoundRect*
0 Rectangle with rounded corners*
0 $1 Rounding radius*
0 $2 $3 $4 $5 $6 $7 $8 $9 X,Y pos of 4 corners*
0 Add a 4 corners polygon primitive as box body*
4,1,4,$2,$3,$4,$5,$6,$7,$8,$9,$2,$3,0*
0 Add four circle primitives for the rounded corners*
1,1,$1+$1,$2,$3*
1,1,$1+$1,$4,$5*
1,1,$1+$1,$6,$7*
1,1,$1+$1,$8,$9*
0 Add four rect primitives between the rounded corners*
20,1,$1+$1,$2,$3,$4,$5,0*
20,1,$1+$1,$4,$5,$6,$7,0*
20,1,$1+$1,$6,$7,$8,$9,0*
20,1,$1+$1,$8,$9,$2,$3,0*%
G04 Aperture macros list end*
%ADD10O,2.748280X1.998980*%
%ADD11O,1.016000X2.032000*%
%ADD12C,1.143000*%
%ADD13C,3.200000*%
%ADD14RoundRect,0.250000X0.725000X-0.600000X0.725000X0.600000X-0.725000X0.600000X-0.725000X-0.600000X0*%
%ADD15O,1.950000X1.700000*%
%ADD16RoundRect,0.250000X-0.725000X0.600000X-0.725000X-0.600000X0.725000X-0.600000X0.725000X0.600000X0*%
%ADD17C,1.400000*%
%ADD18C,1.600000*%
G04 APERTURE END LIST*
D10*
%TO.C,U2*%
X148358720Y-94025480D03*
X148358720Y-96565480D03*
X148358720Y-99105480D03*
X148358720Y-101645480D03*
X148358720Y-104185480D03*
X148358720Y-106725480D03*
X148358720Y-109265480D03*
X164523280Y-109265480D03*
X164523280Y-106725480D03*
X164523280Y-104185480D03*
X164523280Y-101645480D03*
X164523280Y-99105480D03*
X164523280Y-96565480D03*
X164523280Y-94025480D03*
D11*
X155225600Y-110343300D03*
X157775600Y-110343300D03*
D12*
X155224403Y-93339113D03*
X157764403Y-93339113D03*
X155224403Y-95879113D03*
X157764403Y-95879113D03*
%TD*%
D13*
%TO.C,REF2*%
X195000000Y-113000000D03*
%TD*%
D14*
%TO.C,TORICA-UART1*%
X194670000Y-105080000D03*
D15*
X194670000Y-102580000D03*
X194670000Y-100080000D03*
X194670000Y-97580000D03*
%TD*%
D13*
%TO.C,REF1*%
X195000000Y-90000000D03*
%TD*%
D16*
%TO.C,PitotTube1*%
X102510000Y-97580000D03*
D15*
X102510000Y-100080000D03*
X102510000Y-102580000D03*
X102510000Y-105080000D03*
%TD*%
D13*
%TO.C,REF3*%
X103000000Y-90000000D03*
%TD*%
%TO.C,REF4*%
X103000000Y-112000000D03*
%TD*%
D17*
%TO.C,J1*%
X167570000Y-110730000D03*
X170110000Y-110730000D03*
X172650000Y-110730000D03*
X175190000Y-110730000D03*
X177730000Y-110730000D03*
X180270000Y-110730000D03*
X182810000Y-110730000D03*
X185350000Y-110730000D03*
X187890000Y-110730000D03*
X190430000Y-110730000D03*
X187890000Y-98030000D03*
X170110000Y-98030000D03*
%TD*%
D18*
%TO.C,U1*%
X143440000Y-95945000D03*
X143440000Y-98485000D03*
X143440000Y-101025000D03*
X143440000Y-103565000D03*
X143440000Y-106105000D03*
X143440000Y-108645000D03*
%TD*%
M02*
