%TF.GenerationSoftware,KiCad,Pcbnew,(6.0.11)*%
%TF.CreationDate,2023-02-20T15:08:45+09:00*%
%TF.ProjectId,airdata,61697264-6174-4612-9e6b-696361645f70,rev?*%
%TF.SameCoordinates,Original*%
%TF.FileFunction,Copper,L1,Top*%
%TF.FilePolarity,Positive*%
%FSLAX46Y46*%
G04 Gerber Fmt 4.6, Leading zero omitted, Abs format (unit mm)*
G04 Created by KiCad (PCBNEW (6.0.11)) date 2023-02-20 15:08:45*
%MOMM*%
%LPD*%
G01*
G04 APERTURE LIST*
G04 Aperture macros list*
%AMRoundRect*
0 Rectangle with rounded corners*
0 $1 Rounding radius*
0 $2 $3 $4 $5 $6 $7 $8 $9 X,Y pos of 4 corners*
0 Add a 4 corners polygon primitive as box body*
4,1,4,$2,$3,$4,$5,$6,$7,$8,$9,$2,$3,0*
0 Add four circle primitives for the rounded corners*
1,1,$1+$1,$2,$3*
1,1,$1+$1,$4,$5*
1,1,$1+$1,$6,$7*
1,1,$1+$1,$8,$9*
0 Add four rect primitives between the rounded corners*
20,1,$1+$1,$2,$3,$4,$5,0*
20,1,$1+$1,$4,$5,$6,$7,0*
20,1,$1+$1,$6,$7,$8,$9,0*
20,1,$1+$1,$8,$9,$2,$3,0*%
G04 Aperture macros list end*
%TA.AperFunction,SMDPad,CuDef*%
%ADD10O,2.748280X1.998980*%
%TD*%
%TA.AperFunction,SMDPad,CuDef*%
%ADD11O,1.016000X2.032000*%
%TD*%
%TA.AperFunction,SMDPad,CuDef*%
%ADD12C,1.143000*%
%TD*%
%TA.AperFunction,ComponentPad*%
%ADD13RoundRect,0.250000X0.725000X-0.600000X0.725000X0.600000X-0.725000X0.600000X-0.725000X-0.600000X0*%
%TD*%
%TA.AperFunction,ComponentPad*%
%ADD14O,1.950000X1.700000*%
%TD*%
%TA.AperFunction,ComponentPad*%
%ADD15RoundRect,0.250000X-0.725000X0.600000X-0.725000X-0.600000X0.725000X-0.600000X0.725000X0.600000X0*%
%TD*%
%TA.AperFunction,ComponentPad*%
%ADD16C,1.400000*%
%TD*%
%TA.AperFunction,ComponentPad*%
%ADD17C,1.600000*%
%TD*%
%TA.AperFunction,Conductor*%
%ADD18C,0.250000*%
%TD*%
G04 APERTURE END LIST*
D10*
%TO.P,U2,1,PA02_A0_D0*%
%TO.N,unconnected-(U2-Pad1)*%
X148358720Y-94025480D03*
%TO.P,U2,2,PA4_A1_D1*%
%TO.N,unconnected-(U2-Pad2)*%
X148358720Y-96565480D03*
%TO.P,U2,3,PA10_A2_D2*%
%TO.N,/CS*%
X148358720Y-99105480D03*
%TO.P,U2,4,PA11_A3_D3*%
%TO.N,unconnected-(U2-Pad4)*%
X148358720Y-101645480D03*
%TO.P,U2,5,PA8_A4_D4_SDA*%
%TO.N,/SDA*%
X148358720Y-104185480D03*
%TO.P,U2,6,PA9_A5_D5_SCL*%
%TO.N,/SCL*%
X148358720Y-106725480D03*
%TO.P,U2,7,PB08_A6_D6_TX*%
%TO.N,/DRXT*%
X148358720Y-109265480D03*
%TO.P,U2,8,PB09_A7_D7_RX*%
%TO.N,/DTXR*%
X164523280Y-109265480D03*
%TO.P,U2,9,PA7_A8_D8_SCK*%
%TO.N,Net-(J1-Pad5)*%
X164523280Y-106725480D03*
%TO.P,U2,10,PA5_A9_D9_MISO*%
%TO.N,Net-(J1-Pad7)*%
X164523280Y-104185480D03*
%TO.P,U2,11,PA6_A10_D10_MOSI*%
%TO.N,Net-(J1-Pad3)*%
X164523280Y-101645480D03*
%TO.P,U2,12,3V3*%
%TO.N,+3V3*%
X164523280Y-99105480D03*
%TO.P,U2,13,GND*%
%TO.N,GND*%
X164523280Y-96565480D03*
%TO.P,U2,14,5V*%
%TO.N,+5V*%
X164523280Y-94025480D03*
D11*
%TO.P,U2,15,5V*%
%TO.N,unconnected-(U2-Pad15)*%
X155225600Y-110343300D03*
%TO.P,U2,16,GND*%
%TO.N,unconnected-(U2-Pad16)*%
X157775600Y-110343300D03*
D12*
%TO.P,U2,17,PA31_SWDIO*%
%TO.N,unconnected-(U2-Pad17)*%
X155224403Y-93339113D03*
%TO.P,U2,18,PA30_SWCLK*%
%TO.N,unconnected-(U2-Pad18)*%
X157764403Y-93339113D03*
%TO.P,U2,19,RESET*%
%TO.N,unconnected-(U2-Pad19)*%
X155224403Y-95879113D03*
%TO.P,U2,20,GND*%
%TO.N,unconnected-(U2-Pad20)*%
X157764403Y-95879113D03*
%TD*%
D13*
%TO.P,TORICA-UART1,1,Pin_1*%
%TO.N,GND*%
X194670000Y-105080000D03*
D14*
%TO.P,TORICA-UART1,2,Pin_2*%
%TO.N,+5V*%
X194670000Y-102580000D03*
%TO.P,TORICA-UART1,3,Pin_3*%
%TO.N,/DTXR*%
X194670000Y-100080000D03*
%TO.P,TORICA-UART1,4,Pin_4*%
%TO.N,/DRXT*%
X194670000Y-97580000D03*
%TD*%
D15*
%TO.P,PitotTube1,1,Pin_1*%
%TO.N,/SCL*%
X102510000Y-97580000D03*
D14*
%TO.P,PitotTube1,2,Pin_2*%
%TO.N,+3V3*%
X102510000Y-100080000D03*
%TO.P,PitotTube1,3,Pin_3*%
%TO.N,GND*%
X102510000Y-102580000D03*
%TO.P,PitotTube1,4,Pin_4*%
%TO.N,/SDA*%
X102510000Y-105080000D03*
%TD*%
D16*
%TO.P,J1,1,DAT2*%
%TO.N,unconnected-(J1-Pad1)*%
X167570000Y-110730000D03*
%TO.P,J1,2,DAT3/CD*%
%TO.N,/CS*%
X170110000Y-110730000D03*
%TO.P,J1,3,CMD*%
%TO.N,Net-(J1-Pad3)*%
X172650000Y-110730000D03*
%TO.P,J1,4,VDD*%
%TO.N,+3V3*%
X175190000Y-110730000D03*
%TO.P,J1,5,CLK*%
%TO.N,Net-(J1-Pad5)*%
X177730000Y-110730000D03*
%TO.P,J1,6,VSS*%
%TO.N,GND*%
X180270000Y-110730000D03*
%TO.P,J1,7,DAT0*%
%TO.N,Net-(J1-Pad7)*%
X182810000Y-110730000D03*
%TO.P,J1,8,DAT1*%
%TO.N,unconnected-(J1-Pad8)*%
X185350000Y-110730000D03*
%TO.P,J1,9,DET_B*%
%TO.N,unconnected-(J1-Pad9)*%
X187890000Y-110730000D03*
%TO.P,J1,10,DET_A*%
%TO.N,unconnected-(J1-Pad10)*%
X190430000Y-110730000D03*
%TO.P,J1,11,SHIELD*%
%TO.N,unconnected-(J1-Pad11)*%
X187890000Y-98030000D03*
%TO.P,J1,13*%
%TO.N,N/C*%
X170110000Y-98030000D03*
%TD*%
D17*
%TO.P,U1,1,VCC*%
%TO.N,+3V3*%
X143440000Y-95945000D03*
%TO.P,U1,2,SDI*%
%TO.N,/SDA*%
X143440000Y-98485000D03*
%TO.P,U1,3,GND*%
%TO.N,GND*%
X143440000Y-101025000D03*
%TO.P,U1,4,SDO*%
%TO.N,unconnected-(U1-Pad4)*%
X143440000Y-103565000D03*
%TO.P,U1,5,CSK*%
%TO.N,/SCL*%
X143440000Y-106105000D03*
%TO.P,U1,6,CS*%
%TO.N,unconnected-(U1-Pad6)*%
X143440000Y-108645000D03*
%TD*%
D18*
%TO.N,Net-(J1-Pad3)*%
X162771600Y-103397200D02*
X164523300Y-101645500D01*
X162771600Y-109786400D02*
X162771600Y-103397200D01*
X163620500Y-110635300D02*
X162771600Y-109786400D01*
X166020900Y-110635300D02*
X163620500Y-110635300D01*
X167401500Y-109254700D02*
X166020900Y-110635300D01*
X171174700Y-109254700D02*
X167401500Y-109254700D01*
X172650000Y-110730000D02*
X171174700Y-109254700D01*
%TO.N,Net-(J1-Pad7)*%
X172680700Y-104185500D02*
X164523300Y-104185500D01*
X179000000Y-110504800D02*
X172680700Y-104185500D01*
X179000000Y-110948200D02*
X179000000Y-110504800D01*
X179855300Y-111803500D02*
X179000000Y-110948200D01*
X181736500Y-111803500D02*
X179855300Y-111803500D01*
X182810000Y-110730000D02*
X181736500Y-111803500D01*
%TO.N,Net-(J1-Pad5)*%
X173725500Y-106725500D02*
X164523300Y-106725500D01*
X177730000Y-110730000D02*
X173725500Y-106725500D01*
%TO.N,/DRXT*%
X150473100Y-112704500D02*
X148358700Y-110590100D01*
X187379500Y-112704500D02*
X150473100Y-112704500D01*
X189160000Y-110924000D02*
X187379500Y-112704500D01*
X189160000Y-110546100D02*
X189160000Y-110924000D01*
X190352700Y-109353400D02*
X189160000Y-110546100D01*
X192548700Y-109353400D02*
X190352700Y-109353400D01*
X196486100Y-105416000D02*
X192548700Y-109353400D01*
X196486100Y-100057100D02*
X196486100Y-105416000D01*
X195184100Y-98755100D02*
X196486100Y-100057100D01*
X194670000Y-98755100D02*
X195184100Y-98755100D01*
X194670000Y-97580000D02*
X194670000Y-98755100D01*
X148358700Y-109265500D02*
X148358700Y-110590100D01*
%TO.N,/DTXR*%
X194670000Y-100080000D02*
X194670000Y-101255100D01*
X164523300Y-109265500D02*
X166222600Y-109265500D01*
X166683500Y-108804600D02*
X166222600Y-109265500D01*
X174751300Y-108804600D02*
X166683500Y-108804600D01*
X176460000Y-110513300D02*
X174751300Y-108804600D01*
X176460000Y-110928300D02*
X176460000Y-110513300D01*
X177785400Y-112253700D02*
X176460000Y-110928300D01*
X185344900Y-112253700D02*
X177785400Y-112253700D01*
X186620000Y-110978600D02*
X185344900Y-112253700D01*
X186620000Y-110510400D02*
X186620000Y-110978600D01*
X193357500Y-103772900D02*
X186620000Y-110510400D01*
X195270700Y-103772900D02*
X193357500Y-103772900D01*
X196017300Y-103026300D02*
X195270700Y-103772900D01*
X196017300Y-102131600D02*
X196017300Y-103026300D01*
X195140800Y-101255100D02*
X196017300Y-102131600D01*
X194670000Y-101255100D02*
X195140800Y-101255100D01*
%TO.N,+5V*%
X173077800Y-102580000D02*
X164523300Y-94025500D01*
X193369900Y-102580000D02*
X173077800Y-102580000D01*
X194670000Y-102580000D02*
X193369900Y-102580000D01*
%TO.N,/SDA*%
X102510000Y-105080000D02*
X102510000Y-103904900D01*
X145605100Y-101431900D02*
X148358700Y-104185500D01*
X144683400Y-101431900D02*
X145605100Y-101431900D01*
X143820300Y-102295000D02*
X144683400Y-101431900D01*
X105295000Y-102295000D02*
X143820300Y-102295000D01*
X103685100Y-103904900D02*
X105295000Y-102295000D01*
X102510000Y-103904900D02*
X103685100Y-103904900D01*
X144683400Y-99728400D02*
X143440000Y-98485000D01*
X144683400Y-101431900D02*
X144683400Y-99728400D01*
%TO.N,/SCL*%
X146038900Y-106105000D02*
X146659400Y-106725500D01*
X143440000Y-106105000D02*
X146038900Y-106105000D01*
X148358700Y-106725500D02*
X146659400Y-106725500D01*
%TO.N,GND*%
X102510000Y-102580000D02*
X102510000Y-101404900D01*
X143060100Y-101404900D02*
X143440000Y-101025000D01*
X102510000Y-101404900D02*
X143060100Y-101404900D01*
X166222600Y-96682600D02*
X166222600Y-96565500D01*
X180270000Y-110730000D02*
X166222600Y-96682600D01*
X164523300Y-96565500D02*
X166222600Y-96565500D01*
%TO.N,+3V3*%
X139305000Y-100080000D02*
X143440000Y-95945000D01*
X102510000Y-100080000D02*
X139305000Y-100080000D01*
X155691100Y-99105500D02*
X164523300Y-99105500D01*
X149247200Y-92661600D02*
X155691100Y-99105500D01*
X146723400Y-92661600D02*
X149247200Y-92661600D01*
X143440000Y-95945000D02*
X146723400Y-92661600D01*
X162273100Y-101355700D02*
X164523300Y-99105500D01*
X162273100Y-109949700D02*
X162273100Y-101355700D01*
X164091400Y-111768000D02*
X162273100Y-109949700D01*
X167991400Y-111768000D02*
X164091400Y-111768000D01*
X168840000Y-110919400D02*
X167991400Y-111768000D01*
X168840000Y-110535800D02*
X168840000Y-110919400D01*
X169671000Y-109704800D02*
X168840000Y-110535800D01*
X170536300Y-109704800D02*
X169671000Y-109704800D01*
X171380000Y-110548500D02*
X170536300Y-109704800D01*
X171380000Y-110924100D02*
X171380000Y-110548500D01*
X172211100Y-111755200D02*
X171380000Y-110924100D01*
X174164800Y-111755200D02*
X172211100Y-111755200D01*
X175190000Y-110730000D02*
X174164800Y-111755200D01*
%TO.N,/CS*%
X168621900Y-112218100D02*
X170110000Y-110730000D01*
X161471300Y-112218100D02*
X168621900Y-112218100D01*
X148358700Y-99105500D02*
X161471300Y-112218100D01*
%TD*%
%TA.AperFunction,Conductor*%
%TO.N,GND*%
G36*
X197553621Y-86888502D02*
G01*
X197600114Y-86942158D01*
X197611500Y-86994500D01*
X197611500Y-115665500D01*
X197591498Y-115733621D01*
X197537842Y-115780114D01*
X197485500Y-115791500D01*
X99694500Y-115791500D01*
X99626379Y-115771498D01*
X99579886Y-115717842D01*
X99568500Y-115665500D01*
X99568500Y-112132703D01*
X100890743Y-112132703D01*
X100928268Y-112417734D01*
X101004129Y-112695036D01*
X101005813Y-112698984D01*
X101068187Y-112845216D01*
X101116923Y-112959476D01*
X101128693Y-112979142D01*
X101253517Y-113187707D01*
X101264561Y-113206161D01*
X101444313Y-113430528D01*
X101652851Y-113628423D01*
X101886317Y-113796186D01*
X101890112Y-113798195D01*
X101890113Y-113798196D01*
X101911869Y-113809715D01*
X102140392Y-113930712D01*
X102410373Y-114029511D01*
X102691264Y-114090755D01*
X102719841Y-114093004D01*
X102914282Y-114108307D01*
X102914291Y-114108307D01*
X102916739Y-114108500D01*
X103072271Y-114108500D01*
X103074407Y-114108354D01*
X103074418Y-114108354D01*
X103282548Y-114094165D01*
X103282554Y-114094164D01*
X103286825Y-114093873D01*
X103291020Y-114093004D01*
X103291022Y-114093004D01*
X103427584Y-114064723D01*
X103568342Y-114035574D01*
X103839343Y-113939607D01*
X104094812Y-113807750D01*
X104098313Y-113805289D01*
X104098317Y-113805287D01*
X104261077Y-113690897D01*
X104330023Y-113642441D01*
X104540622Y-113446740D01*
X104722713Y-113224268D01*
X104872927Y-112979142D01*
X104988483Y-112715898D01*
X105067244Y-112439406D01*
X105107751Y-112154784D01*
X105107845Y-112136951D01*
X105109235Y-111871583D01*
X105109235Y-111871576D01*
X105109257Y-111867297D01*
X105103641Y-111824635D01*
X105072292Y-111586522D01*
X105071732Y-111582266D01*
X105062275Y-111547695D01*
X105010259Y-111357559D01*
X104995871Y-111304964D01*
X104971493Y-111247810D01*
X104884763Y-111044476D01*
X104884761Y-111044472D01*
X104883077Y-111040524D01*
X104797609Y-110897717D01*
X104737643Y-110797521D01*
X104737640Y-110797517D01*
X104735439Y-110793839D01*
X104555687Y-110569472D01*
X104416984Y-110437848D01*
X104350258Y-110374527D01*
X104350255Y-110374525D01*
X104347149Y-110371577D01*
X104113683Y-110203814D01*
X104091843Y-110192250D01*
X104042548Y-110166150D01*
X103859608Y-110069288D01*
X103652483Y-109993491D01*
X103593658Y-109971964D01*
X103593656Y-109971963D01*
X103589627Y-109970489D01*
X103308736Y-109909245D01*
X103277685Y-109906801D01*
X103085718Y-109891693D01*
X103085709Y-109891693D01*
X103083261Y-109891500D01*
X102927729Y-109891500D01*
X102925593Y-109891646D01*
X102925582Y-109891646D01*
X102717452Y-109905835D01*
X102717446Y-109905836D01*
X102713175Y-109906127D01*
X102708980Y-109906996D01*
X102708978Y-109906996D01*
X102626584Y-109924059D01*
X102431658Y-109964426D01*
X102160657Y-110060393D01*
X102125457Y-110078561D01*
X102046742Y-110119189D01*
X101905188Y-110192250D01*
X101901687Y-110194711D01*
X101901683Y-110194713D01*
X101787583Y-110274904D01*
X101669977Y-110357559D01*
X101635302Y-110389781D01*
X101480000Y-110534097D01*
X101459378Y-110553260D01*
X101277287Y-110775732D01*
X101127073Y-111020858D01*
X101125347Y-111024791D01*
X101125346Y-111024792D01*
X101013243Y-111280170D01*
X101011517Y-111284102D01*
X100932756Y-111560594D01*
X100912064Y-111705986D01*
X100895832Y-111820043D01*
X100892249Y-111845216D01*
X100892227Y-111849505D01*
X100892226Y-111849512D01*
X100891066Y-112071000D01*
X100890743Y-112132703D01*
X99568500Y-112132703D01*
X99568500Y-105015774D01*
X101023102Y-105015774D01*
X101023302Y-105021103D01*
X101023302Y-105021105D01*
X101026100Y-105095643D01*
X101031751Y-105246158D01*
X101032846Y-105251377D01*
X101034802Y-105260700D01*
X101079093Y-105471791D01*
X101081051Y-105476750D01*
X101081052Y-105476752D01*
X101160707Y-105678449D01*
X101163776Y-105686221D01*
X101166543Y-105690780D01*
X101166544Y-105690783D01*
X101227472Y-105791189D01*
X101283377Y-105883317D01*
X101286874Y-105887347D01*
X101393274Y-106009962D01*
X101434477Y-106057445D01*
X101438608Y-106060832D01*
X101608627Y-106200240D01*
X101608633Y-106200244D01*
X101612755Y-106203624D01*
X101617391Y-106206263D01*
X101617394Y-106206265D01*
X101726422Y-106268327D01*
X101813114Y-106317675D01*
X102029825Y-106396337D01*
X102035074Y-106397286D01*
X102035077Y-106397287D01*
X102252608Y-106436623D01*
X102252615Y-106436624D01*
X102256692Y-106437361D01*
X102274414Y-106438197D01*
X102279356Y-106438430D01*
X102279363Y-106438430D01*
X102280844Y-106438500D01*
X102692890Y-106438500D01*
X102773926Y-106431624D01*
X102859409Y-106424371D01*
X102859413Y-106424370D01*
X102864720Y-106423920D01*
X102869875Y-106422582D01*
X102869881Y-106422581D01*
X103082703Y-106367343D01*
X103082707Y-106367342D01*
X103087872Y-106366001D01*
X103092738Y-106363809D01*
X103092741Y-106363808D01*
X103293202Y-106273507D01*
X103298075Y-106271312D01*
X103489319Y-106142559D01*
X103656135Y-105983424D01*
X103793754Y-105798458D01*
X103814810Y-105757045D01*
X103868840Y-105650775D01*
X103898240Y-105592949D01*
X103902680Y-105578652D01*
X103965024Y-105377871D01*
X103966607Y-105372773D01*
X103981461Y-105260700D01*
X103996198Y-105149511D01*
X103996198Y-105149506D01*
X103996898Y-105144226D01*
X103988249Y-104913842D01*
X103940907Y-104688209D01*
X103917736Y-104629536D01*
X103911318Y-104558831D01*
X103944145Y-104495880D01*
X103979092Y-104472444D01*
X103978401Y-104471187D01*
X103985340Y-104467373D01*
X103992717Y-104464452D01*
X104028487Y-104438464D01*
X104038407Y-104431948D01*
X104069635Y-104413480D01*
X104069638Y-104413478D01*
X104076462Y-104409442D01*
X104090783Y-104395121D01*
X104105817Y-104382280D01*
X104115794Y-104375031D01*
X104122207Y-104370372D01*
X104150398Y-104336295D01*
X104158388Y-104327516D01*
X105520499Y-102965405D01*
X105582811Y-102931379D01*
X105609594Y-102928500D01*
X142095255Y-102928500D01*
X142163376Y-102948502D01*
X142209869Y-103002158D01*
X142219973Y-103072432D01*
X142209448Y-103107753D01*
X142205716Y-103115757D01*
X142204294Y-103121065D01*
X142204293Y-103121067D01*
X142149077Y-103327136D01*
X142146457Y-103336913D01*
X142126502Y-103565000D01*
X142146457Y-103793087D01*
X142205716Y-104014243D01*
X142208039Y-104019224D01*
X142208039Y-104019225D01*
X142300151Y-104216762D01*
X142300154Y-104216767D01*
X142302477Y-104221749D01*
X142326535Y-104256107D01*
X142429973Y-104403831D01*
X142433802Y-104409300D01*
X142595700Y-104571198D01*
X142600208Y-104574355D01*
X142600211Y-104574357D01*
X142654875Y-104612633D01*
X142783251Y-104702523D01*
X142788233Y-104704846D01*
X142788238Y-104704849D01*
X142822457Y-104720805D01*
X142875742Y-104767722D01*
X142895203Y-104835999D01*
X142874661Y-104903959D01*
X142822457Y-104949195D01*
X142788238Y-104965151D01*
X142788233Y-104965154D01*
X142783251Y-104967477D01*
X142678389Y-105040902D01*
X142600211Y-105095643D01*
X142600208Y-105095645D01*
X142595700Y-105098802D01*
X142433802Y-105260700D01*
X142302477Y-105448251D01*
X142300154Y-105453233D01*
X142300151Y-105453238D01*
X142219409Y-105626392D01*
X142205716Y-105655757D01*
X142204294Y-105661065D01*
X142204293Y-105661067D01*
X142147881Y-105871598D01*
X142146457Y-105876913D01*
X142126502Y-106105000D01*
X142146457Y-106333087D01*
X142147881Y-106338400D01*
X142147881Y-106338402D01*
X142174703Y-106438500D01*
X142205716Y-106554243D01*
X142208039Y-106559224D01*
X142208039Y-106559225D01*
X142300151Y-106756762D01*
X142300154Y-106756767D01*
X142302477Y-106761749D01*
X142433802Y-106949300D01*
X142595700Y-107111198D01*
X142600208Y-107114355D01*
X142600211Y-107114357D01*
X142654875Y-107152633D01*
X142783251Y-107242523D01*
X142788233Y-107244846D01*
X142788238Y-107244849D01*
X142822457Y-107260805D01*
X142875742Y-107307722D01*
X142895203Y-107375999D01*
X142874661Y-107443959D01*
X142822457Y-107489195D01*
X142788238Y-107505151D01*
X142788233Y-107505154D01*
X142783251Y-107507477D01*
X142678389Y-107580902D01*
X142600211Y-107635643D01*
X142600208Y-107635645D01*
X142595700Y-107638802D01*
X142433802Y-107800700D01*
X142302477Y-107988251D01*
X142300154Y-107993233D01*
X142300151Y-107993238D01*
X142211391Y-108183587D01*
X142205716Y-108195757D01*
X142204294Y-108201065D01*
X142204293Y-108201067D01*
X142147881Y-108411598D01*
X142146457Y-108416913D01*
X142126502Y-108645000D01*
X142146457Y-108873087D01*
X142147881Y-108878400D01*
X142147881Y-108878402D01*
X142177384Y-108988506D01*
X142205716Y-109094243D01*
X142208039Y-109099224D01*
X142208039Y-109099225D01*
X142300151Y-109296762D01*
X142300154Y-109296767D01*
X142302477Y-109301749D01*
X142375902Y-109406611D01*
X142423793Y-109475005D01*
X142433802Y-109489300D01*
X142595700Y-109651198D01*
X142600208Y-109654355D01*
X142600211Y-109654357D01*
X142654875Y-109692633D01*
X142783251Y-109782523D01*
X142788233Y-109784846D01*
X142788238Y-109784849D01*
X142953648Y-109861980D01*
X142990757Y-109879284D01*
X142996065Y-109880706D01*
X142996067Y-109880707D01*
X143206598Y-109937119D01*
X143206600Y-109937119D01*
X143211913Y-109938543D01*
X143440000Y-109958498D01*
X143668087Y-109938543D01*
X143673400Y-109937119D01*
X143673402Y-109937119D01*
X143883933Y-109880707D01*
X143883935Y-109880706D01*
X143889243Y-109879284D01*
X143926352Y-109861980D01*
X144091762Y-109784849D01*
X144091767Y-109784846D01*
X144096749Y-109782523D01*
X144225125Y-109692633D01*
X144279789Y-109654357D01*
X144279792Y-109654355D01*
X144284300Y-109651198D01*
X144446198Y-109489300D01*
X144456208Y-109475005D01*
X144504098Y-109406611D01*
X144577523Y-109301749D01*
X144579846Y-109296767D01*
X144579849Y-109296762D01*
X144671961Y-109099225D01*
X144671961Y-109099224D01*
X144674284Y-109094243D01*
X144702617Y-108988506D01*
X144732119Y-108878402D01*
X144732119Y-108878400D01*
X144733543Y-108873087D01*
X144753498Y-108645000D01*
X144733543Y-108416913D01*
X144732119Y-108411598D01*
X144675707Y-108201067D01*
X144675706Y-108201065D01*
X144674284Y-108195757D01*
X144668609Y-108183587D01*
X144579849Y-107993238D01*
X144579846Y-107993233D01*
X144577523Y-107988251D01*
X144446198Y-107800700D01*
X144284300Y-107638802D01*
X144279792Y-107635645D01*
X144279789Y-107635643D01*
X144201611Y-107580902D01*
X144096749Y-107507477D01*
X144091767Y-107505154D01*
X144091762Y-107505151D01*
X144057543Y-107489195D01*
X144004258Y-107442278D01*
X143984797Y-107374001D01*
X144005339Y-107306041D01*
X144057543Y-107260805D01*
X144091762Y-107244849D01*
X144091767Y-107244846D01*
X144096749Y-107242523D01*
X144225125Y-107152633D01*
X144279789Y-107114357D01*
X144279792Y-107114355D01*
X144284300Y-107111198D01*
X144446198Y-106949300D01*
X144556181Y-106792229D01*
X144611638Y-106747901D01*
X144659394Y-106738500D01*
X145724306Y-106738500D01*
X145792427Y-106758502D01*
X145813401Y-106775405D01*
X146155743Y-107117747D01*
X146163287Y-107126037D01*
X146167400Y-107132518D01*
X146173177Y-107137943D01*
X146217067Y-107179158D01*
X146219909Y-107181913D01*
X146239631Y-107201635D01*
X146242755Y-107204058D01*
X146242759Y-107204062D01*
X146242824Y-107204112D01*
X146251845Y-107211817D01*
X146284079Y-107242086D01*
X146291027Y-107245905D01*
X146291029Y-107245907D01*
X146301832Y-107251846D01*
X146318359Y-107262702D01*
X146328098Y-107270257D01*
X146328100Y-107270258D01*
X146334360Y-107275114D01*
X146374940Y-107292674D01*
X146385588Y-107297891D01*
X146403471Y-107307722D01*
X146424340Y-107319195D01*
X146432016Y-107321166D01*
X146432019Y-107321167D01*
X146443962Y-107324233D01*
X146462667Y-107330637D01*
X146481255Y-107338681D01*
X146489078Y-107339920D01*
X146489088Y-107339923D01*
X146524924Y-107345599D01*
X146536545Y-107348005D01*
X146562800Y-107354746D01*
X146623807Y-107391061D01*
X146645661Y-107423538D01*
X146655184Y-107443959D01*
X146668615Y-107472763D01*
X146671457Y-107476944D01*
X146671457Y-107476945D01*
X146802167Y-107669279D01*
X146802170Y-107669283D01*
X146805013Y-107673466D01*
X146971745Y-107849781D01*
X147030783Y-107894919D01*
X147072749Y-107952181D01*
X147077094Y-108023045D01*
X147037577Y-108089527D01*
X146899581Y-108211186D01*
X146899578Y-108211189D01*
X146895784Y-108214534D01*
X146892574Y-108218442D01*
X146892573Y-108218443D01*
X146883989Y-108228893D01*
X146741757Y-108402050D01*
X146619691Y-108611779D01*
X146617877Y-108616505D01*
X146617875Y-108616509D01*
X146534543Y-108833598D01*
X146532728Y-108838327D01*
X146483104Y-109075864D01*
X146482875Y-109080913D01*
X146482874Y-109080919D01*
X146481084Y-109120349D01*
X146472096Y-109318279D01*
X146499987Y-109559336D01*
X146501366Y-109564210D01*
X146501367Y-109564214D01*
X146563785Y-109784795D01*
X146566060Y-109792833D01*
X146568194Y-109797408D01*
X146568196Y-109797415D01*
X146665181Y-110005399D01*
X146668615Y-110012763D01*
X146671457Y-110016944D01*
X146671457Y-110016945D01*
X146802167Y-110209279D01*
X146802170Y-110209283D01*
X146805013Y-110213466D01*
X146971745Y-110389781D01*
X146975771Y-110392859D01*
X146975772Y-110392860D01*
X147160502Y-110534097D01*
X147160506Y-110534100D01*
X147164522Y-110537170D01*
X147378384Y-110651842D01*
X147607828Y-110730846D01*
X147612814Y-110731707D01*
X147612813Y-110731707D01*
X147669291Y-110741463D01*
X147733013Y-110772768D01*
X147768841Y-110830472D01*
X147772682Y-110843693D01*
X147776715Y-110850512D01*
X147776717Y-110850517D01*
X147782993Y-110861128D01*
X147791688Y-110878876D01*
X147799148Y-110897717D01*
X147803810Y-110904133D01*
X147803810Y-110904134D01*
X147825136Y-110933487D01*
X147831652Y-110943407D01*
X147848541Y-110971964D01*
X147854158Y-110981462D01*
X147868479Y-110995783D01*
X147881319Y-111010816D01*
X147893228Y-111027207D01*
X147914103Y-111044476D01*
X147927305Y-111055398D01*
X147936084Y-111063388D01*
X149969443Y-113096747D01*
X149976987Y-113105037D01*
X149981100Y-113111518D01*
X149986877Y-113116943D01*
X150030767Y-113158158D01*
X150033609Y-113160913D01*
X150053330Y-113180634D01*
X150056525Y-113183112D01*
X150065547Y-113190818D01*
X150097779Y-113221086D01*
X150104728Y-113224906D01*
X150115532Y-113230846D01*
X150132056Y-113241699D01*
X150148059Y-113254113D01*
X150188643Y-113271676D01*
X150199273Y-113276883D01*
X150238040Y-113298195D01*
X150245717Y-113300166D01*
X150245722Y-113300168D01*
X150257658Y-113303232D01*
X150276366Y-113309637D01*
X150294955Y-113317681D01*
X150302783Y-113318921D01*
X150302790Y-113318923D01*
X150338624Y-113324599D01*
X150350244Y-113327005D01*
X150382059Y-113335173D01*
X150393070Y-113338000D01*
X150413324Y-113338000D01*
X150433034Y-113339551D01*
X150453043Y-113342720D01*
X150460935Y-113341974D01*
X150479680Y-113340202D01*
X150497062Y-113338559D01*
X150508919Y-113338000D01*
X187300733Y-113338000D01*
X187311916Y-113338527D01*
X187319409Y-113340202D01*
X187327335Y-113339953D01*
X187327336Y-113339953D01*
X187387486Y-113338062D01*
X187391445Y-113338000D01*
X187419356Y-113338000D01*
X187423291Y-113337503D01*
X187423356Y-113337495D01*
X187435193Y-113336562D01*
X187467451Y-113335548D01*
X187471470Y-113335422D01*
X187479389Y-113335173D01*
X187498843Y-113329521D01*
X187518200Y-113325513D01*
X187530430Y-113323968D01*
X187530431Y-113323968D01*
X187538297Y-113322974D01*
X187545668Y-113320055D01*
X187545670Y-113320055D01*
X187579412Y-113306696D01*
X187590642Y-113302851D01*
X187625483Y-113292729D01*
X187625484Y-113292729D01*
X187633093Y-113290518D01*
X187639912Y-113286485D01*
X187639917Y-113286483D01*
X187650528Y-113280207D01*
X187668276Y-113271512D01*
X187687117Y-113264052D01*
X187707487Y-113249253D01*
X187722887Y-113238064D01*
X187732807Y-113231548D01*
X187764035Y-113213080D01*
X187764038Y-113213078D01*
X187770862Y-113209042D01*
X187785183Y-113194721D01*
X187800217Y-113181880D01*
X187801932Y-113180634D01*
X187816607Y-113169972D01*
X187844798Y-113135895D01*
X187847703Y-113132703D01*
X192890743Y-113132703D01*
X192891302Y-113136947D01*
X192891302Y-113136951D01*
X192903664Y-113230846D01*
X192928268Y-113417734D01*
X193004129Y-113695036D01*
X193005813Y-113698984D01*
X193107610Y-113937641D01*
X193116923Y-113959476D01*
X193158838Y-114029511D01*
X193205997Y-114108307D01*
X193264561Y-114206161D01*
X193444313Y-114430528D01*
X193652851Y-114628423D01*
X193886317Y-114796186D01*
X193890112Y-114798195D01*
X193890113Y-114798196D01*
X193911869Y-114809715D01*
X194140392Y-114930712D01*
X194410373Y-115029511D01*
X194691264Y-115090755D01*
X194719841Y-115093004D01*
X194914282Y-115108307D01*
X194914291Y-115108307D01*
X194916739Y-115108500D01*
X195072271Y-115108500D01*
X195074407Y-115108354D01*
X195074418Y-115108354D01*
X195282548Y-115094165D01*
X195282554Y-115094164D01*
X195286825Y-115093873D01*
X195291020Y-115093004D01*
X195291022Y-115093004D01*
X195427583Y-115064724D01*
X195568342Y-115035574D01*
X195839343Y-114939607D01*
X196094812Y-114807750D01*
X196098313Y-114805289D01*
X196098317Y-114805287D01*
X196212418Y-114725095D01*
X196330023Y-114642441D01*
X196540622Y-114446740D01*
X196722713Y-114224268D01*
X196872927Y-113979142D01*
X196889654Y-113941038D01*
X196949244Y-113805287D01*
X196988483Y-113715898D01*
X197067244Y-113439406D01*
X197098382Y-113220614D01*
X197107146Y-113159036D01*
X197107146Y-113159034D01*
X197107751Y-113154784D01*
X197107845Y-113136951D01*
X197109235Y-112871583D01*
X197109235Y-112871576D01*
X197109257Y-112867297D01*
X197071732Y-112582266D01*
X196995871Y-112304964D01*
X196933627Y-112159036D01*
X196884763Y-112044476D01*
X196884761Y-112044472D01*
X196883077Y-112040524D01*
X196777361Y-111863886D01*
X196737643Y-111797521D01*
X196737640Y-111797517D01*
X196735439Y-111793839D01*
X196555687Y-111569472D01*
X196399565Y-111421318D01*
X196350258Y-111374527D01*
X196350255Y-111374525D01*
X196347149Y-111371577D01*
X196113683Y-111203814D01*
X196091843Y-111192250D01*
X196068654Y-111179972D01*
X195859608Y-111069288D01*
X195717274Y-111017201D01*
X195593658Y-110971964D01*
X195593656Y-110971963D01*
X195589627Y-110970489D01*
X195308736Y-110909245D01*
X195277685Y-110906801D01*
X195085718Y-110891693D01*
X195085709Y-110891693D01*
X195083261Y-110891500D01*
X194927729Y-110891500D01*
X194925593Y-110891646D01*
X194925582Y-110891646D01*
X194717452Y-110905835D01*
X194717446Y-110905836D01*
X194713175Y-110906127D01*
X194708980Y-110906996D01*
X194708978Y-110906996D01*
X194684728Y-110912018D01*
X194431658Y-110964426D01*
X194160657Y-111060393D01*
X194156848Y-111062359D01*
X194041877Y-111121700D01*
X193905188Y-111192250D01*
X193901687Y-111194711D01*
X193901683Y-111194713D01*
X193828746Y-111245974D01*
X193669977Y-111357559D01*
X193657122Y-111369505D01*
X193463306Y-111549610D01*
X193459378Y-111553260D01*
X193277287Y-111775732D01*
X193127073Y-112020858D01*
X193011517Y-112284102D01*
X192932756Y-112560594D01*
X192892249Y-112845216D01*
X192892227Y-112849505D01*
X192892226Y-112849512D01*
X192890772Y-113127116D01*
X192890743Y-113132703D01*
X187847703Y-113132703D01*
X187852788Y-113127116D01*
X189396319Y-111583586D01*
X189458631Y-111549560D01*
X189529447Y-111554625D01*
X189574509Y-111583586D01*
X189650224Y-111659301D01*
X189823442Y-111780589D01*
X189828420Y-111782910D01*
X189828423Y-111782912D01*
X190010108Y-111867633D01*
X190015090Y-111869956D01*
X190020398Y-111871378D01*
X190020400Y-111871379D01*
X190214030Y-111923262D01*
X190214032Y-111923262D01*
X190219345Y-111924686D01*
X190430000Y-111943116D01*
X190640655Y-111924686D01*
X190645968Y-111923262D01*
X190645970Y-111923262D01*
X190839600Y-111871379D01*
X190839602Y-111871378D01*
X190844910Y-111869956D01*
X190849892Y-111867633D01*
X191031577Y-111782912D01*
X191031580Y-111782910D01*
X191036558Y-111780589D01*
X191209776Y-111659301D01*
X191359301Y-111509776D01*
X191480589Y-111336558D01*
X191493392Y-111309103D01*
X191567633Y-111149892D01*
X191567634Y-111149891D01*
X191569956Y-111144910D01*
X191572746Y-111134500D01*
X191623262Y-110945970D01*
X191623262Y-110945968D01*
X191624686Y-110940655D01*
X191643116Y-110730000D01*
X191624686Y-110519345D01*
X191613314Y-110476903D01*
X191571379Y-110320400D01*
X191571378Y-110320398D01*
X191569956Y-110315090D01*
X191561937Y-110297892D01*
X191500504Y-110166150D01*
X191489843Y-110095958D01*
X191518823Y-110031146D01*
X191578243Y-109992289D01*
X191614699Y-109986900D01*
X192469933Y-109986900D01*
X192481116Y-109987427D01*
X192488609Y-109989102D01*
X192496535Y-109988853D01*
X192496536Y-109988853D01*
X192556686Y-109986962D01*
X192560645Y-109986900D01*
X192588556Y-109986900D01*
X192592491Y-109986403D01*
X192592556Y-109986395D01*
X192604393Y-109985462D01*
X192636651Y-109984448D01*
X192640670Y-109984322D01*
X192648589Y-109984073D01*
X192668043Y-109978421D01*
X192687400Y-109974413D01*
X192699630Y-109972868D01*
X192699631Y-109972868D01*
X192707497Y-109971874D01*
X192714868Y-109968955D01*
X192714870Y-109968955D01*
X192748612Y-109955596D01*
X192759842Y-109951751D01*
X192794683Y-109941629D01*
X192794684Y-109941629D01*
X192802293Y-109939418D01*
X192809112Y-109935385D01*
X192809117Y-109935383D01*
X192819728Y-109929107D01*
X192837476Y-109920412D01*
X192856317Y-109912952D01*
X192877393Y-109897640D01*
X192892087Y-109886964D01*
X192902007Y-109880448D01*
X192933235Y-109861980D01*
X192933238Y-109861978D01*
X192940062Y-109857942D01*
X192954383Y-109843621D01*
X192969417Y-109830780D01*
X192979394Y-109823531D01*
X192985807Y-109818872D01*
X193013998Y-109784795D01*
X193021988Y-109776016D01*
X196878347Y-105919657D01*
X196886637Y-105912113D01*
X196893118Y-105908000D01*
X196939759Y-105858332D01*
X196942513Y-105855491D01*
X196962234Y-105835770D01*
X196964712Y-105832575D01*
X196972418Y-105823553D01*
X196997258Y-105797101D01*
X197002686Y-105791321D01*
X197012446Y-105773568D01*
X197023299Y-105757045D01*
X197030853Y-105747306D01*
X197035713Y-105741041D01*
X197053276Y-105700457D01*
X197058483Y-105689827D01*
X197079795Y-105651060D01*
X197081766Y-105643383D01*
X197081768Y-105643378D01*
X197084832Y-105631442D01*
X197091238Y-105612730D01*
X197094645Y-105604859D01*
X197099281Y-105594145D01*
X197105919Y-105552238D01*
X197106197Y-105550481D01*
X197108604Y-105538860D01*
X197117628Y-105503711D01*
X197117628Y-105503710D01*
X197119600Y-105496030D01*
X197119600Y-105475769D01*
X197121151Y-105456058D01*
X197121677Y-105452741D01*
X197124319Y-105436057D01*
X197120159Y-105392046D01*
X197119600Y-105380189D01*
X197119600Y-100135867D01*
X197120127Y-100124684D01*
X197121802Y-100117191D01*
X197119662Y-100049114D01*
X197119600Y-100045155D01*
X197119600Y-100017244D01*
X197119095Y-100013244D01*
X197118162Y-100001401D01*
X197117022Y-99965130D01*
X197116773Y-99957211D01*
X197111121Y-99937757D01*
X197107113Y-99918400D01*
X197105568Y-99906170D01*
X197105568Y-99906169D01*
X197104574Y-99898303D01*
X197098488Y-99882932D01*
X197088296Y-99857188D01*
X197084451Y-99845958D01*
X197074329Y-99811117D01*
X197074329Y-99811116D01*
X197072118Y-99803507D01*
X197068085Y-99796688D01*
X197068083Y-99796683D01*
X197061807Y-99786072D01*
X197053112Y-99768324D01*
X197045652Y-99749483D01*
X197024533Y-99720414D01*
X197019664Y-99713713D01*
X197013148Y-99703793D01*
X196994680Y-99672565D01*
X196994678Y-99672562D01*
X196990642Y-99665738D01*
X196976321Y-99651417D01*
X196963480Y-99636383D01*
X196956231Y-99626406D01*
X196951572Y-99619993D01*
X196917495Y-99591802D01*
X196908716Y-99583812D01*
X195889778Y-98564873D01*
X195855752Y-98502561D01*
X195860817Y-98431745D01*
X195877784Y-98400565D01*
X195953754Y-98298458D01*
X195972091Y-98262393D01*
X196055822Y-98097704D01*
X196058240Y-98092949D01*
X196068955Y-98058443D01*
X196125024Y-97877871D01*
X196126607Y-97872773D01*
X196135244Y-97807605D01*
X196156198Y-97649511D01*
X196156198Y-97649506D01*
X196156898Y-97644226D01*
X196155144Y-97597490D01*
X196150035Y-97461422D01*
X196148249Y-97413842D01*
X196100907Y-97188209D01*
X196098948Y-97183248D01*
X196018185Y-96978744D01*
X196018184Y-96978742D01*
X196016224Y-96973779D01*
X196009231Y-96962254D01*
X195899390Y-96781243D01*
X195896623Y-96776683D01*
X195869762Y-96745728D01*
X195749023Y-96606588D01*
X195749021Y-96606586D01*
X195745523Y-96602555D01*
X195703970Y-96568484D01*
X195571373Y-96459760D01*
X195571367Y-96459756D01*
X195567245Y-96456376D01*
X195562609Y-96453737D01*
X195562606Y-96453735D01*
X195371529Y-96344968D01*
X195366886Y-96342325D01*
X195150175Y-96263663D01*
X195144926Y-96262714D01*
X195144923Y-96262713D01*
X194927392Y-96223377D01*
X194927385Y-96223376D01*
X194923308Y-96222639D01*
X194905586Y-96221803D01*
X194900644Y-96221570D01*
X194900637Y-96221570D01*
X194899156Y-96221500D01*
X194487110Y-96221500D01*
X194420191Y-96227178D01*
X194320591Y-96235629D01*
X194320587Y-96235630D01*
X194315280Y-96236080D01*
X194310125Y-96237418D01*
X194310119Y-96237419D01*
X194097297Y-96292657D01*
X194097293Y-96292658D01*
X194092128Y-96293999D01*
X194087262Y-96296191D01*
X194087259Y-96296192D01*
X193978980Y-96344968D01*
X193881925Y-96388688D01*
X193690681Y-96517441D01*
X193523865Y-96676576D01*
X193386246Y-96861542D01*
X193383830Y-96866293D01*
X193383828Y-96866297D01*
X193339652Y-96953186D01*
X193281760Y-97067051D01*
X193280178Y-97072145D01*
X193280177Y-97072148D01*
X193239636Y-97202712D01*
X193213393Y-97287227D01*
X193212692Y-97292516D01*
X193183963Y-97509279D01*
X193183102Y-97515774D01*
X193191751Y-97746158D01*
X193239093Y-97971791D01*
X193241051Y-97976750D01*
X193241052Y-97976752D01*
X193314085Y-98161681D01*
X193323776Y-98186221D01*
X193326543Y-98190780D01*
X193326544Y-98190783D01*
X193360306Y-98246420D01*
X193443377Y-98383317D01*
X193446874Y-98387347D01*
X193540977Y-98495791D01*
X193594477Y-98557445D01*
X193625639Y-98582996D01*
X193768627Y-98700240D01*
X193768633Y-98700244D01*
X193772755Y-98703624D01*
X193804250Y-98721552D01*
X193853555Y-98772632D01*
X193867417Y-98842262D01*
X193841434Y-98908333D01*
X193812284Y-98935573D01*
X193690681Y-99017441D01*
X193686824Y-99021120D01*
X193686822Y-99021122D01*
X193653740Y-99052681D01*
X193523865Y-99176576D01*
X193386246Y-99361542D01*
X193383830Y-99366293D01*
X193383828Y-99366297D01*
X193359389Y-99414366D01*
X193281760Y-99567051D01*
X193280178Y-99572145D01*
X193280177Y-99572148D01*
X193238398Y-99706699D01*
X193213393Y-99787227D01*
X193212692Y-99792516D01*
X193184220Y-100007340D01*
X193183102Y-100015774D01*
X193191751Y-100246158D01*
X193239093Y-100471791D01*
X193241051Y-100476750D01*
X193241052Y-100476752D01*
X193316671Y-100668229D01*
X193323776Y-100686221D01*
X193326543Y-100690780D01*
X193326544Y-100690783D01*
X193389736Y-100794920D01*
X193443377Y-100883317D01*
X193446874Y-100887347D01*
X193579033Y-101039647D01*
X193594477Y-101057445D01*
X193611298Y-101071237D01*
X193768627Y-101200240D01*
X193768633Y-101200244D01*
X193772755Y-101203624D01*
X193804250Y-101221552D01*
X193853555Y-101272632D01*
X193867417Y-101342262D01*
X193841434Y-101408333D01*
X193812284Y-101435573D01*
X193690681Y-101517441D01*
X193686824Y-101521120D01*
X193686822Y-101521122D01*
X193617464Y-101587287D01*
X193523865Y-101676576D01*
X193386246Y-101861542D01*
X193383830Y-101866294D01*
X193383825Y-101866302D01*
X193378078Y-101877606D01*
X193329375Y-101929263D01*
X193265762Y-101946500D01*
X173392394Y-101946500D01*
X173324273Y-101926498D01*
X173303299Y-101909595D01*
X170678578Y-99284874D01*
X170644552Y-99222562D01*
X170649617Y-99151747D01*
X170692164Y-99094911D01*
X170707011Y-99086024D01*
X170706805Y-99085667D01*
X170711575Y-99082912D01*
X170716558Y-99080589D01*
X170889776Y-98959301D01*
X171039301Y-98809776D01*
X171160589Y-98636558D01*
X171185566Y-98582996D01*
X171247633Y-98449892D01*
X171247634Y-98449891D01*
X171249956Y-98444910D01*
X171277695Y-98341389D01*
X171303262Y-98245970D01*
X171303262Y-98245968D01*
X171304686Y-98240655D01*
X171323116Y-98030000D01*
X186676884Y-98030000D01*
X186695314Y-98240655D01*
X186696738Y-98245968D01*
X186696738Y-98245970D01*
X186722306Y-98341389D01*
X186750044Y-98444910D01*
X186752366Y-98449891D01*
X186752367Y-98449892D01*
X186814435Y-98582996D01*
X186839411Y-98636558D01*
X186960699Y-98809776D01*
X187110224Y-98959301D01*
X187283442Y-99080589D01*
X187288420Y-99082910D01*
X187288423Y-99082912D01*
X187470108Y-99167633D01*
X187475090Y-99169956D01*
X187480398Y-99171378D01*
X187480400Y-99171379D01*
X187674030Y-99223262D01*
X187674032Y-99223262D01*
X187679345Y-99224686D01*
X187890000Y-99243116D01*
X188100655Y-99224686D01*
X188105968Y-99223262D01*
X188105970Y-99223262D01*
X188299600Y-99171379D01*
X188299602Y-99171378D01*
X188304910Y-99169956D01*
X188309892Y-99167633D01*
X188491577Y-99082912D01*
X188491580Y-99082910D01*
X188496558Y-99080589D01*
X188669776Y-98959301D01*
X188819301Y-98809776D01*
X188940589Y-98636558D01*
X188965566Y-98582996D01*
X189027633Y-98449892D01*
X189027634Y-98449891D01*
X189029956Y-98444910D01*
X189057695Y-98341389D01*
X189083262Y-98245970D01*
X189083262Y-98245968D01*
X189084686Y-98240655D01*
X189103116Y-98030000D01*
X189084686Y-97819345D01*
X189081540Y-97807605D01*
X189031379Y-97620400D01*
X189031378Y-97620398D01*
X189029956Y-97615090D01*
X188984283Y-97517143D01*
X188942912Y-97428423D01*
X188942910Y-97428420D01*
X188940589Y-97423442D01*
X188819301Y-97250224D01*
X188669776Y-97100699D01*
X188496558Y-96979411D01*
X188491580Y-96977090D01*
X188491577Y-96977088D01*
X188309892Y-96892367D01*
X188309891Y-96892366D01*
X188304910Y-96890044D01*
X188299602Y-96888622D01*
X188299600Y-96888621D01*
X188105970Y-96836738D01*
X188105968Y-96836738D01*
X188100655Y-96835314D01*
X187890000Y-96816884D01*
X187679345Y-96835314D01*
X187674032Y-96836738D01*
X187674030Y-96836738D01*
X187480400Y-96888621D01*
X187480398Y-96888622D01*
X187475090Y-96890044D01*
X187470109Y-96892366D01*
X187470108Y-96892367D01*
X187288423Y-96977088D01*
X187288420Y-96977090D01*
X187283442Y-96979411D01*
X187110224Y-97100699D01*
X186960699Y-97250224D01*
X186839411Y-97423442D01*
X186837090Y-97428420D01*
X186837088Y-97428423D01*
X186795717Y-97517143D01*
X186750044Y-97615090D01*
X186748622Y-97620398D01*
X186748621Y-97620400D01*
X186698460Y-97807605D01*
X186695314Y-97819345D01*
X186676884Y-98030000D01*
X171323116Y-98030000D01*
X171304686Y-97819345D01*
X171301540Y-97807605D01*
X171251379Y-97620400D01*
X171251378Y-97620398D01*
X171249956Y-97615090D01*
X171204283Y-97517143D01*
X171162912Y-97428423D01*
X171162910Y-97428420D01*
X171160589Y-97423442D01*
X171039301Y-97250224D01*
X170889776Y-97100699D01*
X170716558Y-96979411D01*
X170711580Y-96977090D01*
X170711577Y-96977088D01*
X170529892Y-96892367D01*
X170529891Y-96892366D01*
X170524910Y-96890044D01*
X170519602Y-96888622D01*
X170519600Y-96888621D01*
X170325970Y-96836738D01*
X170325968Y-96836738D01*
X170320655Y-96835314D01*
X170110000Y-96816884D01*
X169899345Y-96835314D01*
X169894032Y-96836738D01*
X169894030Y-96836738D01*
X169700400Y-96888621D01*
X169700398Y-96888622D01*
X169695090Y-96890044D01*
X169690109Y-96892366D01*
X169690108Y-96892367D01*
X169508423Y-96977088D01*
X169508420Y-96977090D01*
X169503442Y-96979411D01*
X169330224Y-97100699D01*
X169180699Y-97250224D01*
X169059411Y-97423442D01*
X169057088Y-97428423D01*
X169054333Y-97433195D01*
X169052587Y-97432187D01*
X169011522Y-97478847D01*
X168943249Y-97498323D01*
X168875284Y-97477796D01*
X168855126Y-97461422D01*
X167572114Y-96178409D01*
X166261234Y-94867529D01*
X166227208Y-94805217D01*
X166232273Y-94734401D01*
X166241426Y-94715061D01*
X166262309Y-94679181D01*
X166280428Y-94631981D01*
X166347457Y-94457362D01*
X166347458Y-94457359D01*
X166349272Y-94452633D01*
X166398896Y-94215096D01*
X166409904Y-93972681D01*
X166382013Y-93731624D01*
X166371811Y-93695569D01*
X166317318Y-93502996D01*
X166317317Y-93502994D01*
X166315940Y-93498127D01*
X166313806Y-93493552D01*
X166313804Y-93493545D01*
X166215522Y-93282779D01*
X166215520Y-93282775D01*
X166213385Y-93278197D01*
X166210543Y-93274015D01*
X166079833Y-93081681D01*
X166079830Y-93081677D01*
X166076987Y-93077494D01*
X165910255Y-92901179D01*
X165906228Y-92898100D01*
X165721498Y-92756863D01*
X165721494Y-92756860D01*
X165717478Y-92753790D01*
X165503616Y-92639118D01*
X165274172Y-92560114D01*
X165035048Y-92518810D01*
X165031089Y-92518630D01*
X165031087Y-92518630D01*
X165007397Y-92517554D01*
X165007376Y-92517554D01*
X165005977Y-92517490D01*
X164087653Y-92517490D01*
X164085145Y-92517692D01*
X164085140Y-92517692D01*
X163911787Y-92531639D01*
X163911782Y-92531640D01*
X163906746Y-92532045D01*
X163901838Y-92533250D01*
X163901835Y-92533251D01*
X163677282Y-92588407D01*
X163671086Y-92589929D01*
X163666434Y-92591904D01*
X163666430Y-92591905D01*
X163559084Y-92637471D01*
X163447711Y-92684746D01*
X163443427Y-92687444D01*
X163246649Y-92811362D01*
X163246646Y-92811364D01*
X163242370Y-92814057D01*
X163238576Y-92817402D01*
X163064141Y-92971186D01*
X163064138Y-92971189D01*
X163060344Y-92974534D01*
X162906317Y-93162050D01*
X162784251Y-93371779D01*
X162782437Y-93376505D01*
X162782435Y-93376509D01*
X162699596Y-93592314D01*
X162697288Y-93598327D01*
X162647664Y-93835864D01*
X162636656Y-94078279D01*
X162664547Y-94319336D01*
X162665926Y-94324210D01*
X162665927Y-94324214D01*
X162702266Y-94452633D01*
X162730620Y-94552833D01*
X162732754Y-94557408D01*
X162732756Y-94557415D01*
X162831038Y-94768181D01*
X162833175Y-94772763D01*
X162836017Y-94776944D01*
X162836017Y-94776945D01*
X162966727Y-94969279D01*
X162966730Y-94969283D01*
X162969573Y-94973466D01*
X163136305Y-95149781D01*
X163140331Y-95152859D01*
X163140332Y-95152860D01*
X163195746Y-95195227D01*
X163237714Y-95252491D01*
X163242059Y-95323355D01*
X163202542Y-95389837D01*
X163064498Y-95511539D01*
X163057495Y-95518791D01*
X162909941Y-95698426D01*
X162904187Y-95706704D01*
X162787248Y-95907625D01*
X162782891Y-95916720D01*
X162699581Y-96133748D01*
X162696734Y-96143420D01*
X162665330Y-96293744D01*
X162666453Y-96307805D01*
X162676561Y-96311480D01*
X164651280Y-96311480D01*
X164719401Y-96331482D01*
X164765894Y-96385138D01*
X164777280Y-96437480D01*
X164777280Y-96693480D01*
X164757278Y-96761601D01*
X164703622Y-96808094D01*
X164651280Y-96819480D01*
X162678554Y-96819480D01*
X162664468Y-96823616D01*
X162662419Y-96836594D01*
X162664457Y-96854207D01*
X162666419Y-96864115D01*
X162729712Y-97087789D01*
X162733226Y-97097240D01*
X162831474Y-97307933D01*
X162836453Y-97316697D01*
X162967116Y-97508961D01*
X162973448Y-97516836D01*
X163133159Y-97685726D01*
X163140662Y-97692482D01*
X163195724Y-97734580D01*
X163237691Y-97791845D01*
X163242036Y-97862709D01*
X163202519Y-97929190D01*
X163064141Y-98051186D01*
X163064138Y-98051189D01*
X163060344Y-98054534D01*
X162906317Y-98242050D01*
X162903777Y-98246415D01*
X162903773Y-98246420D01*
X162808927Y-98409381D01*
X162757374Y-98458194D01*
X162700029Y-98472000D01*
X156005694Y-98472000D01*
X155937573Y-98451998D01*
X155916599Y-98435095D01*
X154426916Y-96945411D01*
X154392890Y-96883099D01*
X154397955Y-96812283D01*
X154440502Y-96755448D01*
X154507022Y-96730637D01*
X154576396Y-96745728D01*
X154586003Y-96751545D01*
X154706864Y-96832302D01*
X154712167Y-96834580D01*
X154712170Y-96834582D01*
X154883928Y-96908375D01*
X154889235Y-96910655D01*
X154958597Y-96926350D01*
X155077194Y-96953186D01*
X155077199Y-96953187D01*
X155082831Y-96954461D01*
X155088602Y-96954688D01*
X155088604Y-96954688D01*
X155147665Y-96957008D01*
X155281168Y-96962254D01*
X155397332Y-96945411D01*
X155471890Y-96934601D01*
X155471895Y-96934600D01*
X155477604Y-96933772D01*
X155484881Y-96931302D01*
X155660093Y-96871825D01*
X155665561Y-96869969D01*
X155838742Y-96772983D01*
X155991350Y-96646060D01*
X156118273Y-96493452D01*
X156215259Y-96320271D01*
X156279062Y-96132314D01*
X156279890Y-96126605D01*
X156279891Y-96126600D01*
X156294424Y-96026366D01*
X156307544Y-95935878D01*
X156309030Y-95879113D01*
X156306421Y-95850721D01*
X156680148Y-95850721D01*
X156693130Y-96048786D01*
X156741989Y-96241169D01*
X156825088Y-96421426D01*
X156828421Y-96426142D01*
X156890839Y-96514461D01*
X156939646Y-96583522D01*
X156943788Y-96587557D01*
X156999288Y-96641622D01*
X157081825Y-96722026D01*
X157246864Y-96832302D01*
X157252167Y-96834580D01*
X157252170Y-96834582D01*
X157423928Y-96908375D01*
X157429235Y-96910655D01*
X157498597Y-96926350D01*
X157617194Y-96953186D01*
X157617199Y-96953187D01*
X157622831Y-96954461D01*
X157628602Y-96954688D01*
X157628604Y-96954688D01*
X157687665Y-96957008D01*
X157821168Y-96962254D01*
X157937332Y-96945411D01*
X158011890Y-96934601D01*
X158011895Y-96934600D01*
X158017604Y-96933772D01*
X158024881Y-96931302D01*
X158200093Y-96871825D01*
X158205561Y-96869969D01*
X158378742Y-96772983D01*
X158531350Y-96646060D01*
X158658273Y-96493452D01*
X158755259Y-96320271D01*
X158819062Y-96132314D01*
X158819890Y-96126605D01*
X158819891Y-96126600D01*
X158834424Y-96026366D01*
X158847544Y-95935878D01*
X158849030Y-95879113D01*
X158830868Y-95681455D01*
X158776990Y-95490417D01*
X158689200Y-95312397D01*
X158570438Y-95153356D01*
X158562590Y-95146101D01*
X158428923Y-95022541D01*
X158428921Y-95022539D01*
X158424682Y-95018621D01*
X158256813Y-94912703D01*
X158251453Y-94910565D01*
X158251450Y-94910563D01*
X158143584Y-94867529D01*
X158072454Y-94839151D01*
X158066797Y-94838026D01*
X158066791Y-94838024D01*
X157883444Y-94801555D01*
X157883442Y-94801555D01*
X157877777Y-94800428D01*
X157872002Y-94800352D01*
X157871998Y-94800352D01*
X157773041Y-94799057D01*
X157679304Y-94797830D01*
X157673607Y-94798809D01*
X157673606Y-94798809D01*
X157489378Y-94830465D01*
X157483681Y-94831444D01*
X157297459Y-94900145D01*
X157126875Y-95001631D01*
X156977642Y-95132505D01*
X156974067Y-95137040D01*
X156974066Y-95137041D01*
X156964023Y-95149781D01*
X156854758Y-95288383D01*
X156852069Y-95293494D01*
X156852067Y-95293497D01*
X156836521Y-95323045D01*
X156762338Y-95464044D01*
X156703478Y-95653606D01*
X156680148Y-95850721D01*
X156306421Y-95850721D01*
X156290868Y-95681455D01*
X156236990Y-95490417D01*
X156149200Y-95312397D01*
X156030438Y-95153356D01*
X156022590Y-95146101D01*
X155888923Y-95022541D01*
X155888921Y-95022539D01*
X155884682Y-95018621D01*
X155716813Y-94912703D01*
X155711453Y-94910565D01*
X155711450Y-94910563D01*
X155603584Y-94867529D01*
X155532454Y-94839151D01*
X155526797Y-94838026D01*
X155526791Y-94838024D01*
X155343444Y-94801555D01*
X155343442Y-94801555D01*
X155337777Y-94800428D01*
X155332002Y-94800352D01*
X155331998Y-94800352D01*
X155233041Y-94799057D01*
X155139304Y-94797830D01*
X155133607Y-94798809D01*
X155133606Y-94798809D01*
X154949378Y-94830465D01*
X154943681Y-94831444D01*
X154757459Y-94900145D01*
X154586875Y-95001631D01*
X154437642Y-95132505D01*
X154434067Y-95137040D01*
X154434066Y-95137041D01*
X154424023Y-95149781D01*
X154314758Y-95288383D01*
X154312069Y-95293494D01*
X154312067Y-95293497D01*
X154296521Y-95323045D01*
X154222338Y-95464044D01*
X154163478Y-95653606D01*
X154140148Y-95850721D01*
X154153130Y-96048786D01*
X154201989Y-96241169D01*
X154285088Y-96421426D01*
X154288421Y-96426142D01*
X154353408Y-96518097D01*
X154376389Y-96585271D01*
X154359404Y-96654206D01*
X154307847Y-96703016D01*
X154238086Y-96716203D01*
X154172270Y-96689581D01*
X154161416Y-96679912D01*
X152835562Y-95354057D01*
X150792226Y-93310721D01*
X154140148Y-93310721D01*
X154153130Y-93508786D01*
X154201989Y-93701169D01*
X154285088Y-93881426D01*
X154288421Y-93886142D01*
X154349581Y-93972681D01*
X154399646Y-94043522D01*
X154403788Y-94047557D01*
X154453178Y-94095670D01*
X154541825Y-94182026D01*
X154706864Y-94292302D01*
X154712167Y-94294580D01*
X154712170Y-94294582D01*
X154787972Y-94327149D01*
X154889235Y-94370655D01*
X154960308Y-94386737D01*
X155077194Y-94413186D01*
X155077199Y-94413187D01*
X155082831Y-94414461D01*
X155088602Y-94414688D01*
X155088604Y-94414688D01*
X155147665Y-94417008D01*
X155281168Y-94422254D01*
X155379386Y-94408013D01*
X155471890Y-94394601D01*
X155471895Y-94394600D01*
X155477604Y-94393772D01*
X155665561Y-94329969D01*
X155838742Y-94232983D01*
X155991350Y-94106060D01*
X156118273Y-93953452D01*
X156215259Y-93780271D01*
X156279062Y-93592314D01*
X156279890Y-93586605D01*
X156279891Y-93586600D01*
X156307011Y-93399551D01*
X156307544Y-93395878D01*
X156309030Y-93339113D01*
X156306421Y-93310721D01*
X156680148Y-93310721D01*
X156693130Y-93508786D01*
X156741989Y-93701169D01*
X156825088Y-93881426D01*
X156828421Y-93886142D01*
X156889581Y-93972681D01*
X156939646Y-94043522D01*
X156943788Y-94047557D01*
X156993178Y-94095670D01*
X157081825Y-94182026D01*
X157246864Y-94292302D01*
X157252167Y-94294580D01*
X157252170Y-94294582D01*
X157327972Y-94327149D01*
X157429235Y-94370655D01*
X157500308Y-94386737D01*
X157617194Y-94413186D01*
X157617199Y-94413187D01*
X157622831Y-94414461D01*
X157628602Y-94414688D01*
X157628604Y-94414688D01*
X157687665Y-94417008D01*
X157821168Y-94422254D01*
X157919386Y-94408013D01*
X158011890Y-94394601D01*
X158011895Y-94394600D01*
X158017604Y-94393772D01*
X158205561Y-94329969D01*
X158378742Y-94232983D01*
X158531350Y-94106060D01*
X158658273Y-93953452D01*
X158755259Y-93780271D01*
X158819062Y-93592314D01*
X158819890Y-93586605D01*
X158819891Y-93586600D01*
X158847011Y-93399551D01*
X158847544Y-93395878D01*
X158849030Y-93339113D01*
X158830868Y-93141455D01*
X158776990Y-92950417D01*
X158689200Y-92772397D01*
X158591462Y-92641510D01*
X158573891Y-92617980D01*
X158573891Y-92617979D01*
X158570438Y-92613356D01*
X158566202Y-92609440D01*
X158428923Y-92482541D01*
X158428921Y-92482539D01*
X158424682Y-92478621D01*
X158256813Y-92372703D01*
X158251453Y-92370565D01*
X158251450Y-92370563D01*
X158164633Y-92335927D01*
X158072454Y-92299151D01*
X158066797Y-92298026D01*
X158066791Y-92298024D01*
X157883444Y-92261555D01*
X157883442Y-92261555D01*
X157877777Y-92260428D01*
X157872002Y-92260352D01*
X157871998Y-92260352D01*
X157773041Y-92259057D01*
X157679304Y-92257830D01*
X157673607Y-92258809D01*
X157673606Y-92258809D01*
X157489378Y-92290465D01*
X157483681Y-92291444D01*
X157297459Y-92360145D01*
X157126875Y-92461631D01*
X156977642Y-92592505D01*
X156974067Y-92597040D01*
X156974066Y-92597041D01*
X156961204Y-92613356D01*
X156854758Y-92748383D01*
X156852069Y-92753494D01*
X156852067Y-92753497D01*
X156821623Y-92811362D01*
X156762338Y-92924044D01*
X156703478Y-93113606D01*
X156680148Y-93310721D01*
X156306421Y-93310721D01*
X156290868Y-93141455D01*
X156236990Y-92950417D01*
X156149200Y-92772397D01*
X156051462Y-92641510D01*
X156033891Y-92617980D01*
X156033891Y-92617979D01*
X156030438Y-92613356D01*
X156026202Y-92609440D01*
X155888923Y-92482541D01*
X155888921Y-92482539D01*
X155884682Y-92478621D01*
X155716813Y-92372703D01*
X155711453Y-92370565D01*
X155711450Y-92370563D01*
X155624633Y-92335927D01*
X155532454Y-92299151D01*
X155526797Y-92298026D01*
X155526791Y-92298024D01*
X155343444Y-92261555D01*
X155343442Y-92261555D01*
X155337777Y-92260428D01*
X155332002Y-92260352D01*
X155331998Y-92260352D01*
X155233041Y-92259057D01*
X155139304Y-92257830D01*
X155133607Y-92258809D01*
X155133606Y-92258809D01*
X154949378Y-92290465D01*
X154943681Y-92291444D01*
X154757459Y-92360145D01*
X154586875Y-92461631D01*
X154437642Y-92592505D01*
X154434067Y-92597040D01*
X154434066Y-92597041D01*
X154421204Y-92613356D01*
X154314758Y-92748383D01*
X154312069Y-92753494D01*
X154312067Y-92753497D01*
X154281623Y-92811362D01*
X154222338Y-92924044D01*
X154163478Y-93113606D01*
X154140148Y-93310721D01*
X150792226Y-93310721D01*
X149750852Y-92269347D01*
X149743312Y-92261061D01*
X149739200Y-92254582D01*
X149689548Y-92207956D01*
X149686707Y-92205202D01*
X149666970Y-92185465D01*
X149663773Y-92182985D01*
X149654751Y-92175280D01*
X149641322Y-92162669D01*
X149622521Y-92145014D01*
X149615575Y-92141195D01*
X149615572Y-92141193D01*
X149604766Y-92135252D01*
X149588247Y-92124401D01*
X149587783Y-92124041D01*
X149572241Y-92111986D01*
X149564972Y-92108841D01*
X149564968Y-92108838D01*
X149531663Y-92094426D01*
X149521013Y-92089209D01*
X149482260Y-92067905D01*
X149462637Y-92062867D01*
X149443934Y-92056463D01*
X149432620Y-92051567D01*
X149432619Y-92051567D01*
X149425345Y-92048419D01*
X149417522Y-92047180D01*
X149417512Y-92047177D01*
X149381676Y-92041501D01*
X149370056Y-92039095D01*
X149334911Y-92030072D01*
X149334910Y-92030072D01*
X149327230Y-92028100D01*
X149306976Y-92028100D01*
X149287265Y-92026549D01*
X149275086Y-92024620D01*
X149267257Y-92023380D01*
X149237986Y-92026147D01*
X149223239Y-92027541D01*
X149211381Y-92028100D01*
X146802167Y-92028100D01*
X146790984Y-92027573D01*
X146783491Y-92025898D01*
X146775565Y-92026147D01*
X146775564Y-92026147D01*
X146719173Y-92027919D01*
X146715465Y-92028036D01*
X146715401Y-92028038D01*
X146711443Y-92028100D01*
X146683544Y-92028100D01*
X146679554Y-92028604D01*
X146667720Y-92029536D01*
X146623511Y-92030926D01*
X146615897Y-92033138D01*
X146615892Y-92033139D01*
X146604059Y-92036577D01*
X146584696Y-92040588D01*
X146564603Y-92043126D01*
X146557236Y-92046043D01*
X146557231Y-92046044D01*
X146523492Y-92059402D01*
X146512265Y-92063246D01*
X146469807Y-92075582D01*
X146462981Y-92079619D01*
X146452372Y-92085893D01*
X146434624Y-92094588D01*
X146415783Y-92102048D01*
X146409367Y-92106710D01*
X146409366Y-92106710D01*
X146380013Y-92128036D01*
X146370093Y-92134552D01*
X146338865Y-92153020D01*
X146338862Y-92153022D01*
X146332038Y-92157058D01*
X146317717Y-92171379D01*
X146302684Y-92184219D01*
X146286293Y-92196128D01*
X146277617Y-92206616D01*
X146258102Y-92230205D01*
X146250112Y-92238984D01*
X143853248Y-94635848D01*
X143790936Y-94669874D01*
X143731541Y-94668459D01*
X143673409Y-94652882D01*
X143673398Y-94652880D01*
X143668087Y-94651457D01*
X143440000Y-94631502D01*
X143211913Y-94651457D01*
X143206600Y-94652881D01*
X143206598Y-94652881D01*
X142996067Y-94709293D01*
X142996065Y-94709294D01*
X142990757Y-94710716D01*
X142985776Y-94713039D01*
X142985775Y-94713039D01*
X142788238Y-94805151D01*
X142788233Y-94805154D01*
X142783251Y-94807477D01*
X142738016Y-94839151D01*
X142600211Y-94935643D01*
X142600208Y-94935645D01*
X142595700Y-94938802D01*
X142433802Y-95100700D01*
X142430645Y-95105208D01*
X142430643Y-95105211D01*
X142402012Y-95146101D01*
X142302477Y-95288251D01*
X142300154Y-95293233D01*
X142300151Y-95293238D01*
X142220504Y-95464044D01*
X142205716Y-95495757D01*
X142204294Y-95501065D01*
X142204293Y-95501067D01*
X142147883Y-95711591D01*
X142146457Y-95716913D01*
X142126502Y-95945000D01*
X142146457Y-96173087D01*
X142147880Y-96178398D01*
X142147882Y-96178409D01*
X142163459Y-96236541D01*
X142161770Y-96307517D01*
X142130848Y-96358248D01*
X140595038Y-97894057D01*
X139079500Y-99409595D01*
X139017188Y-99443621D01*
X138990405Y-99446500D01*
X103910596Y-99446500D01*
X103842475Y-99426498D01*
X103802877Y-99385866D01*
X103802360Y-99385013D01*
X103736623Y-99276683D01*
X103707495Y-99243116D01*
X103589023Y-99106588D01*
X103589021Y-99106586D01*
X103585523Y-99102555D01*
X103549880Y-99073330D01*
X103509886Y-99014671D01*
X103507954Y-98943701D01*
X103544698Y-98882952D01*
X103563468Y-98868752D01*
X103703120Y-98782332D01*
X103709348Y-98778478D01*
X103834305Y-98653303D01*
X103877643Y-98582996D01*
X103923275Y-98508968D01*
X103923276Y-98508966D01*
X103927115Y-98502738D01*
X103967467Y-98381080D01*
X103980632Y-98341389D01*
X103980632Y-98341387D01*
X103982797Y-98334861D01*
X103993500Y-98230400D01*
X103993500Y-96929600D01*
X103993163Y-96926350D01*
X103983238Y-96830692D01*
X103983237Y-96830688D01*
X103982526Y-96823834D01*
X103980208Y-96816884D01*
X103928868Y-96663002D01*
X103926550Y-96656054D01*
X103833478Y-96505652D01*
X103708303Y-96380695D01*
X103692429Y-96370910D01*
X103563968Y-96291725D01*
X103563966Y-96291724D01*
X103557738Y-96287885D01*
X103402940Y-96236541D01*
X103396389Y-96234368D01*
X103396387Y-96234368D01*
X103389861Y-96232203D01*
X103383025Y-96231503D01*
X103383022Y-96231502D01*
X103339969Y-96227091D01*
X103285400Y-96221500D01*
X101734600Y-96221500D01*
X101731354Y-96221837D01*
X101731350Y-96221837D01*
X101635692Y-96231762D01*
X101635688Y-96231763D01*
X101628834Y-96232474D01*
X101622298Y-96234655D01*
X101622296Y-96234655D01*
X101496402Y-96276657D01*
X101461054Y-96288450D01*
X101310652Y-96381522D01*
X101185695Y-96506697D01*
X101181855Y-96512927D01*
X101181854Y-96512928D01*
X101102526Y-96641622D01*
X101092885Y-96657262D01*
X101085060Y-96680854D01*
X101042857Y-96808094D01*
X101037203Y-96825139D01*
X101036503Y-96831975D01*
X101036502Y-96831978D01*
X101033199Y-96864214D01*
X101026500Y-96929600D01*
X101026500Y-98230400D01*
X101026837Y-98233646D01*
X101026837Y-98233650D01*
X101034006Y-98302740D01*
X101037474Y-98336166D01*
X101039655Y-98342702D01*
X101039655Y-98342704D01*
X101069362Y-98431745D01*
X101093450Y-98503946D01*
X101186522Y-98654348D01*
X101311697Y-98779305D01*
X101457340Y-98869081D01*
X101504832Y-98921852D01*
X101516256Y-98991924D01*
X101487982Y-99057048D01*
X101478195Y-99067510D01*
X101363865Y-99176576D01*
X101226246Y-99361542D01*
X101223830Y-99366293D01*
X101223828Y-99366297D01*
X101199389Y-99414366D01*
X101121760Y-99567051D01*
X101120178Y-99572145D01*
X101120177Y-99572148D01*
X101078398Y-99706699D01*
X101053393Y-99787227D01*
X101052692Y-99792516D01*
X101024220Y-100007340D01*
X101023102Y-100015774D01*
X101031751Y-100246158D01*
X101079093Y-100471791D01*
X101081051Y-100476750D01*
X101081052Y-100476752D01*
X101156671Y-100668229D01*
X101163776Y-100686221D01*
X101166543Y-100690780D01*
X101166544Y-100690783D01*
X101229736Y-100794920D01*
X101283377Y-100883317D01*
X101286874Y-100887347D01*
X101419033Y-101039647D01*
X101434477Y-101057445D01*
X101451298Y-101071237D01*
X101608627Y-101200240D01*
X101608633Y-101200244D01*
X101612755Y-101203624D01*
X101617398Y-101206267D01*
X101644735Y-101221829D01*
X101694041Y-101272912D01*
X101707902Y-101342542D01*
X101681918Y-101408613D01*
X101652768Y-101435851D01*
X101535422Y-101514852D01*
X101527130Y-101521519D01*
X101368100Y-101673228D01*
X101361059Y-101681186D01*
X101229859Y-101857525D01*
X101224255Y-101866562D01*
X101124643Y-102062484D01*
X101120643Y-102072335D01*
X101055466Y-102282240D01*
X101053183Y-102292624D01*
X101051139Y-102308043D01*
X101053335Y-102322207D01*
X101066522Y-102326000D01*
X102638000Y-102326000D01*
X102706121Y-102346002D01*
X102752614Y-102399658D01*
X102764000Y-102452000D01*
X102764000Y-102708000D01*
X102743998Y-102776121D01*
X102690342Y-102822614D01*
X102638000Y-102834000D01*
X101068808Y-102834000D01*
X101055277Y-102837973D01*
X101053752Y-102848580D01*
X101078477Y-102966421D01*
X101081537Y-102976617D01*
X101162263Y-103181029D01*
X101166994Y-103190561D01*
X101281016Y-103378462D01*
X101287280Y-103387052D01*
X101431327Y-103553052D01*
X101438958Y-103560472D01*
X101608911Y-103699826D01*
X101617674Y-103705848D01*
X101644711Y-103721238D01*
X101694018Y-103772320D01*
X101707880Y-103841951D01*
X101681897Y-103908022D01*
X101652747Y-103935261D01*
X101599468Y-103971131D01*
X101530681Y-104017441D01*
X101363865Y-104176576D01*
X101226246Y-104361542D01*
X101223830Y-104366293D01*
X101223828Y-104366297D01*
X101201892Y-104409442D01*
X101121760Y-104567051D01*
X101120178Y-104572145D01*
X101120177Y-104572148D01*
X101080675Y-104699366D01*
X101053393Y-104787227D01*
X101052692Y-104792516D01*
X101029085Y-104970634D01*
X101023102Y-105015774D01*
X99568500Y-105015774D01*
X99568500Y-90132703D01*
X100890743Y-90132703D01*
X100928268Y-90417734D01*
X101004129Y-90695036D01*
X101116923Y-90959476D01*
X101264561Y-91206161D01*
X101444313Y-91430528D01*
X101652851Y-91628423D01*
X101886317Y-91796186D01*
X101890112Y-91798195D01*
X101890113Y-91798196D01*
X101911869Y-91809715D01*
X102140392Y-91930712D01*
X102164699Y-91939607D01*
X102404990Y-92027541D01*
X102410373Y-92029511D01*
X102691264Y-92090755D01*
X102707935Y-92092067D01*
X102914282Y-92108307D01*
X102914291Y-92108307D01*
X102916739Y-92108500D01*
X103072271Y-92108500D01*
X103074407Y-92108354D01*
X103074418Y-92108354D01*
X103282548Y-92094165D01*
X103282554Y-92094164D01*
X103286825Y-92093873D01*
X103291020Y-92093004D01*
X103291022Y-92093004D01*
X103506315Y-92048419D01*
X103568342Y-92035574D01*
X103839343Y-91939607D01*
X104094812Y-91807750D01*
X104098313Y-91805289D01*
X104098317Y-91805287D01*
X104212417Y-91725096D01*
X104330023Y-91642441D01*
X104540622Y-91446740D01*
X104722713Y-91224268D01*
X104872927Y-90979142D01*
X104988483Y-90715898D01*
X105067244Y-90439406D01*
X105107751Y-90154784D01*
X105107845Y-90136951D01*
X105107867Y-90132703D01*
X192890743Y-90132703D01*
X192928268Y-90417734D01*
X193004129Y-90695036D01*
X193116923Y-90959476D01*
X193264561Y-91206161D01*
X193444313Y-91430528D01*
X193652851Y-91628423D01*
X193886317Y-91796186D01*
X193890112Y-91798195D01*
X193890113Y-91798196D01*
X193911869Y-91809715D01*
X194140392Y-91930712D01*
X194164699Y-91939607D01*
X194404990Y-92027541D01*
X194410373Y-92029511D01*
X194691264Y-92090755D01*
X194707935Y-92092067D01*
X194914282Y-92108307D01*
X194914291Y-92108307D01*
X194916739Y-92108500D01*
X195072271Y-92108500D01*
X195074407Y-92108354D01*
X195074418Y-92108354D01*
X195282548Y-92094165D01*
X195282554Y-92094164D01*
X195286825Y-92093873D01*
X195291020Y-92093004D01*
X195291022Y-92093004D01*
X195506315Y-92048419D01*
X195568342Y-92035574D01*
X195839343Y-91939607D01*
X196094812Y-91807750D01*
X196098313Y-91805289D01*
X196098317Y-91805287D01*
X196212417Y-91725096D01*
X196330023Y-91642441D01*
X196540622Y-91446740D01*
X196722713Y-91224268D01*
X196872927Y-90979142D01*
X196988483Y-90715898D01*
X197067244Y-90439406D01*
X197107751Y-90154784D01*
X197107845Y-90136951D01*
X197109235Y-89871583D01*
X197109235Y-89871576D01*
X197109257Y-89867297D01*
X197071732Y-89582266D01*
X196995871Y-89304964D01*
X196883077Y-89040524D01*
X196735439Y-88793839D01*
X196555687Y-88569472D01*
X196347149Y-88371577D01*
X196113683Y-88203814D01*
X196091843Y-88192250D01*
X196068654Y-88179972D01*
X195859608Y-88069288D01*
X195589627Y-87970489D01*
X195308736Y-87909245D01*
X195277685Y-87906801D01*
X195085718Y-87891693D01*
X195085709Y-87891693D01*
X195083261Y-87891500D01*
X194927729Y-87891500D01*
X194925593Y-87891646D01*
X194925582Y-87891646D01*
X194717452Y-87905835D01*
X194717446Y-87905836D01*
X194713175Y-87906127D01*
X194708980Y-87906996D01*
X194708978Y-87906996D01*
X194572417Y-87935276D01*
X194431658Y-87964426D01*
X194160657Y-88060393D01*
X193905188Y-88192250D01*
X193901687Y-88194711D01*
X193901683Y-88194713D01*
X193891594Y-88201804D01*
X193669977Y-88357559D01*
X193459378Y-88553260D01*
X193277287Y-88775732D01*
X193127073Y-89020858D01*
X193011517Y-89284102D01*
X192932756Y-89560594D01*
X192892249Y-89845216D01*
X192892227Y-89849505D01*
X192892226Y-89849512D01*
X192890765Y-90128417D01*
X192890743Y-90132703D01*
X105107867Y-90132703D01*
X105109235Y-89871583D01*
X105109235Y-89871576D01*
X105109257Y-89867297D01*
X105071732Y-89582266D01*
X104995871Y-89304964D01*
X104883077Y-89040524D01*
X104735439Y-88793839D01*
X104555687Y-88569472D01*
X104347149Y-88371577D01*
X104113683Y-88203814D01*
X104091843Y-88192250D01*
X104068654Y-88179972D01*
X103859608Y-88069288D01*
X103589627Y-87970489D01*
X103308736Y-87909245D01*
X103277685Y-87906801D01*
X103085718Y-87891693D01*
X103085709Y-87891693D01*
X103083261Y-87891500D01*
X102927729Y-87891500D01*
X102925593Y-87891646D01*
X102925582Y-87891646D01*
X102717452Y-87905835D01*
X102717446Y-87905836D01*
X102713175Y-87906127D01*
X102708980Y-87906996D01*
X102708978Y-87906996D01*
X102572417Y-87935276D01*
X102431658Y-87964426D01*
X102160657Y-88060393D01*
X101905188Y-88192250D01*
X101901687Y-88194711D01*
X101901683Y-88194713D01*
X101891594Y-88201804D01*
X101669977Y-88357559D01*
X101459378Y-88553260D01*
X101277287Y-88775732D01*
X101127073Y-89020858D01*
X101011517Y-89284102D01*
X100932756Y-89560594D01*
X100892249Y-89845216D01*
X100892227Y-89849505D01*
X100892226Y-89849512D01*
X100890765Y-90128417D01*
X100890743Y-90132703D01*
X99568500Y-90132703D01*
X99568500Y-86994500D01*
X99588502Y-86926379D01*
X99642158Y-86879886D01*
X99694500Y-86868500D01*
X197485500Y-86868500D01*
X197553621Y-86888502D01*
G37*
%TD.AperFunction*%
%TA.AperFunction,Conductor*%
G36*
X166526452Y-96931302D02*
G01*
X166554110Y-96952214D01*
X169566435Y-99964540D01*
X172574148Y-102972253D01*
X172581688Y-102980539D01*
X172585800Y-102987018D01*
X172591577Y-102992443D01*
X172635451Y-103033643D01*
X172638293Y-103036398D01*
X172658030Y-103056135D01*
X172661227Y-103058615D01*
X172670247Y-103066318D01*
X172702479Y-103096586D01*
X172709425Y-103100405D01*
X172709428Y-103100407D01*
X172720234Y-103106348D01*
X172736753Y-103117199D01*
X172752759Y-103129614D01*
X172760028Y-103132759D01*
X172760032Y-103132762D01*
X172793337Y-103147174D01*
X172803987Y-103152391D01*
X172842740Y-103173695D01*
X172850415Y-103175666D01*
X172850416Y-103175666D01*
X172862362Y-103178733D01*
X172881067Y-103185137D01*
X172899655Y-103193181D01*
X172907478Y-103194420D01*
X172907488Y-103194423D01*
X172943324Y-103200099D01*
X172954944Y-103202505D01*
X172990089Y-103211528D01*
X172997770Y-103213500D01*
X173018024Y-103213500D01*
X173037734Y-103215051D01*
X173057743Y-103218220D01*
X173065635Y-103217474D01*
X173101761Y-103214059D01*
X173113619Y-103213500D01*
X192716806Y-103213500D01*
X192784927Y-103233502D01*
X192831420Y-103287158D01*
X192841524Y-103357432D01*
X192812030Y-103422012D01*
X192805901Y-103428595D01*
X186370881Y-109863614D01*
X186308569Y-109897640D01*
X186237754Y-109892575D01*
X186192691Y-109863614D01*
X186129776Y-109800699D01*
X185956558Y-109679411D01*
X185951580Y-109677090D01*
X185951577Y-109677088D01*
X185769892Y-109592367D01*
X185769891Y-109592366D01*
X185764910Y-109590044D01*
X185759602Y-109588622D01*
X185759600Y-109588621D01*
X185565970Y-109536738D01*
X185565968Y-109536738D01*
X185560655Y-109535314D01*
X185350000Y-109516884D01*
X185139345Y-109535314D01*
X185134032Y-109536738D01*
X185134030Y-109536738D01*
X184940400Y-109588621D01*
X184940398Y-109588622D01*
X184935090Y-109590044D01*
X184930109Y-109592366D01*
X184930108Y-109592367D01*
X184748423Y-109677088D01*
X184748420Y-109677090D01*
X184743442Y-109679411D01*
X184570224Y-109800699D01*
X184420699Y-109950224D01*
X184299411Y-110123442D01*
X184297090Y-110128420D01*
X184297088Y-110128423D01*
X184217373Y-110299372D01*
X184210044Y-110315090D01*
X184208622Y-110320398D01*
X184208621Y-110320400D01*
X184201707Y-110346204D01*
X184164755Y-110406827D01*
X184100894Y-110437848D01*
X184030400Y-110429420D01*
X183975653Y-110384217D01*
X183958293Y-110346204D01*
X183951379Y-110320400D01*
X183951378Y-110320398D01*
X183949956Y-110315090D01*
X183942627Y-110299372D01*
X183862912Y-110128423D01*
X183862910Y-110128420D01*
X183860589Y-110123442D01*
X183739301Y-109950224D01*
X183589776Y-109800699D01*
X183416558Y-109679411D01*
X183411580Y-109677090D01*
X183411577Y-109677088D01*
X183229892Y-109592367D01*
X183229891Y-109592366D01*
X183224910Y-109590044D01*
X183219602Y-109588622D01*
X183219600Y-109588621D01*
X183025970Y-109536738D01*
X183025968Y-109536738D01*
X183020655Y-109535314D01*
X182810000Y-109516884D01*
X182599345Y-109535314D01*
X182594032Y-109536738D01*
X182594030Y-109536738D01*
X182400400Y-109588621D01*
X182400398Y-109588622D01*
X182395090Y-109590044D01*
X182390109Y-109592366D01*
X182390108Y-109592367D01*
X182208423Y-109677088D01*
X182208420Y-109677090D01*
X182203442Y-109679411D01*
X182030224Y-109800699D01*
X181880699Y-109950224D01*
X181759411Y-110123442D01*
X181757090Y-110128420D01*
X181757088Y-110128423D01*
X181677373Y-110299372D01*
X181670044Y-110315090D01*
X181668622Y-110320397D01*
X181668618Y-110320408D01*
X181661447Y-110347171D01*
X181624496Y-110407793D01*
X181560635Y-110438815D01*
X181490140Y-110430386D01*
X181435394Y-110385182D01*
X181418034Y-110347170D01*
X181410908Y-110320574D01*
X181407159Y-110310277D01*
X181322479Y-110128677D01*
X181317001Y-110119189D01*
X181295689Y-110088752D01*
X181285212Y-110080377D01*
X181271764Y-110087446D01*
X180359095Y-111000115D01*
X180296783Y-111034141D01*
X180225968Y-111029076D01*
X180180905Y-111000115D01*
X179666892Y-110486102D01*
X179631538Y-110416718D01*
X179630923Y-110412836D01*
X179630674Y-110404911D01*
X179626882Y-110391858D01*
X179625023Y-110385459D01*
X179621012Y-110366095D01*
X179620949Y-110365592D01*
X179618474Y-110346003D01*
X179615557Y-110338636D01*
X179615556Y-110338631D01*
X179602198Y-110304892D01*
X179598354Y-110293665D01*
X179596232Y-110286361D01*
X179586018Y-110251207D01*
X179575707Y-110233772D01*
X179567012Y-110216024D01*
X179559552Y-110197183D01*
X179554541Y-110190285D01*
X179533564Y-110161413D01*
X179527048Y-110151493D01*
X179508580Y-110120265D01*
X179508578Y-110120262D01*
X179504542Y-110113438D01*
X179490221Y-110099117D01*
X179477380Y-110084083D01*
X179465472Y-110067693D01*
X179431395Y-110039502D01*
X179422616Y-110031512D01*
X179105892Y-109714788D01*
X179620377Y-109714788D01*
X179627446Y-109728236D01*
X180257188Y-110357978D01*
X180271132Y-110365592D01*
X180272965Y-110365461D01*
X180279580Y-110361210D01*
X180913276Y-109727514D01*
X180919706Y-109715739D01*
X180910410Y-109703724D01*
X180880811Y-109682999D01*
X180871323Y-109677521D01*
X180689723Y-109592841D01*
X180679429Y-109589093D01*
X180485878Y-109537231D01*
X180475091Y-109535329D01*
X180275475Y-109517865D01*
X180264525Y-109517865D01*
X180064909Y-109535329D01*
X180054122Y-109537231D01*
X179860571Y-109589093D01*
X179850277Y-109592841D01*
X179668677Y-109677521D01*
X179659189Y-109682999D01*
X179628752Y-109704311D01*
X179620377Y-109714788D01*
X179105892Y-109714788D01*
X173184352Y-103793247D01*
X173176812Y-103784961D01*
X173172700Y-103778482D01*
X173123048Y-103731856D01*
X173120207Y-103729102D01*
X173100470Y-103709365D01*
X173097273Y-103706885D01*
X173088251Y-103699180D01*
X173061800Y-103674341D01*
X173056021Y-103668914D01*
X173049075Y-103665095D01*
X173049072Y-103665093D01*
X173038266Y-103659152D01*
X173021747Y-103648301D01*
X173021283Y-103647941D01*
X173005741Y-103635886D01*
X172998472Y-103632741D01*
X172998468Y-103632738D01*
X172965163Y-103618326D01*
X172954513Y-103613109D01*
X172915760Y-103591805D01*
X172896137Y-103586767D01*
X172877434Y-103580363D01*
X172866120Y-103575467D01*
X172866119Y-103575467D01*
X172858845Y-103572319D01*
X172851022Y-103571080D01*
X172851012Y-103571077D01*
X172815176Y-103565401D01*
X172803556Y-103562995D01*
X172768411Y-103553972D01*
X172768410Y-103553972D01*
X172760730Y-103552000D01*
X172740476Y-103552000D01*
X172720765Y-103550449D01*
X172708586Y-103548520D01*
X172700757Y-103547280D01*
X172692865Y-103548026D01*
X172656739Y-103551441D01*
X172644881Y-103552000D01*
X166346723Y-103552000D01*
X166278602Y-103531998D01*
X166232528Y-103479249D01*
X166215524Y-103442784D01*
X166215524Y-103442783D01*
X166213385Y-103438197D01*
X166210543Y-103434015D01*
X166079833Y-103241681D01*
X166079830Y-103241677D01*
X166076987Y-103237494D01*
X165910255Y-103061179D01*
X165851217Y-103016041D01*
X165809251Y-102958779D01*
X165804906Y-102887915D01*
X165844423Y-102821433D01*
X165982419Y-102699774D01*
X165982422Y-102699771D01*
X165986216Y-102696426D01*
X166140243Y-102508910D01*
X166262309Y-102299181D01*
X166306760Y-102183383D01*
X166347457Y-102077362D01*
X166347458Y-102077359D01*
X166349272Y-102072633D01*
X166398896Y-101835096D01*
X166399361Y-101824870D01*
X166405258Y-101694989D01*
X166409904Y-101592681D01*
X166401625Y-101521122D01*
X166395566Y-101468761D01*
X166382013Y-101351624D01*
X166376187Y-101331033D01*
X166317318Y-101122996D01*
X166317317Y-101122994D01*
X166315940Y-101118127D01*
X166313806Y-101113552D01*
X166313804Y-101113545D01*
X166215522Y-100902779D01*
X166215520Y-100902775D01*
X166213385Y-100898197D01*
X166202572Y-100882286D01*
X166079833Y-100701681D01*
X166079830Y-100701677D01*
X166076987Y-100697494D01*
X165910255Y-100521179D01*
X165851217Y-100476041D01*
X165809251Y-100418779D01*
X165804906Y-100347915D01*
X165844423Y-100281433D01*
X165982419Y-100159774D01*
X165982422Y-100159771D01*
X165986216Y-100156426D01*
X166140243Y-99968910D01*
X166262309Y-99759181D01*
X166268531Y-99742974D01*
X166347457Y-99537362D01*
X166347458Y-99537359D01*
X166349272Y-99532633D01*
X166398896Y-99295096D01*
X166399361Y-99284874D01*
X166408531Y-99082912D01*
X166409904Y-99052681D01*
X166382013Y-98811624D01*
X166380214Y-98805264D01*
X166317318Y-98582996D01*
X166317317Y-98582994D01*
X166315940Y-98578127D01*
X166313806Y-98573552D01*
X166313804Y-98573545D01*
X166215522Y-98362779D01*
X166215520Y-98362775D01*
X166213385Y-98358197D01*
X166192878Y-98328022D01*
X166079833Y-98161681D01*
X166079830Y-98161677D01*
X166076987Y-98157494D01*
X165910255Y-97981179D01*
X165850814Y-97935733D01*
X165808846Y-97878469D01*
X165804501Y-97807605D01*
X165844018Y-97741123D01*
X165982062Y-97619421D01*
X165989065Y-97612169D01*
X166136619Y-97432534D01*
X166142373Y-97424256D01*
X166259312Y-97223335D01*
X166263669Y-97214240D01*
X166347385Y-96996155D01*
X166390471Y-96939727D01*
X166457224Y-96915551D01*
X166526452Y-96931302D01*
G37*
%TD.AperFunction*%
%TA.AperFunction,Conductor*%
G36*
X194866121Y-104846002D02*
G01*
X194912614Y-104899658D01*
X194924000Y-104952000D01*
X194924000Y-105208000D01*
X194903998Y-105276121D01*
X194850342Y-105322614D01*
X194798000Y-105334000D01*
X193205116Y-105334000D01*
X193189877Y-105338475D01*
X193188672Y-105339865D01*
X193187001Y-105347548D01*
X193187001Y-105727095D01*
X193187338Y-105733614D01*
X193197257Y-105829206D01*
X193200149Y-105842600D01*
X193251588Y-105996784D01*
X193257761Y-106009962D01*
X193343063Y-106147807D01*
X193352099Y-106159208D01*
X193466829Y-106273739D01*
X193478240Y-106282751D01*
X193616243Y-106367816D01*
X193629424Y-106373963D01*
X193783710Y-106425138D01*
X193797086Y-106428005D01*
X193891438Y-106437672D01*
X193897854Y-106438000D01*
X194264005Y-106438000D01*
X194332126Y-106458002D01*
X194378619Y-106511658D01*
X194388723Y-106581932D01*
X194359229Y-106646512D01*
X194353100Y-106653095D01*
X192323200Y-108682995D01*
X192260888Y-108717021D01*
X192234105Y-108719900D01*
X190431468Y-108719900D01*
X190420285Y-108719373D01*
X190412792Y-108717698D01*
X190404866Y-108717947D01*
X190404865Y-108717947D01*
X190344702Y-108719838D01*
X190340744Y-108719900D01*
X190312844Y-108719900D01*
X190308854Y-108720404D01*
X190297020Y-108721336D01*
X190252811Y-108722726D01*
X190245195Y-108724939D01*
X190245193Y-108724939D01*
X190233352Y-108728379D01*
X190213993Y-108732388D01*
X190212683Y-108732554D01*
X190193903Y-108734926D01*
X190186537Y-108737842D01*
X190186531Y-108737844D01*
X190152798Y-108751200D01*
X190141568Y-108755045D01*
X190106717Y-108765170D01*
X190099107Y-108767381D01*
X190092284Y-108771416D01*
X190081666Y-108777695D01*
X190063913Y-108786392D01*
X190056268Y-108789419D01*
X190045083Y-108793848D01*
X190038668Y-108798509D01*
X190009312Y-108819837D01*
X189999395Y-108826351D01*
X189961338Y-108848858D01*
X189947017Y-108863179D01*
X189931984Y-108876019D01*
X189915593Y-108887928D01*
X189910542Y-108894034D01*
X189887402Y-108922005D01*
X189879422Y-108930774D01*
X188928729Y-109881466D01*
X188866419Y-109915490D01*
X188795603Y-109910425D01*
X188750541Y-109881464D01*
X188669776Y-109800699D01*
X188531535Y-109703902D01*
X188487206Y-109648445D01*
X188479897Y-109577826D01*
X188514710Y-109511594D01*
X193163400Y-104862905D01*
X193225712Y-104828879D01*
X193252495Y-104826000D01*
X194798000Y-104826000D01*
X194866121Y-104846002D01*
G37*
%TD.AperFunction*%
%TA.AperFunction,Conductor*%
G36*
X142046539Y-98338533D02*
G01*
X142103374Y-98381080D01*
X142128185Y-98447600D01*
X142128026Y-98467572D01*
X142126981Y-98479515D01*
X142126981Y-98479525D01*
X142126502Y-98485000D01*
X142146457Y-98713087D01*
X142147881Y-98718400D01*
X142147881Y-98718402D01*
X142191973Y-98882952D01*
X142205716Y-98934243D01*
X142208039Y-98939224D01*
X142208039Y-98939225D01*
X142300151Y-99136762D01*
X142300154Y-99136767D01*
X142302477Y-99141749D01*
X142329859Y-99180854D01*
X142429193Y-99322717D01*
X142433802Y-99329300D01*
X142595700Y-99491198D01*
X142600208Y-99494355D01*
X142600211Y-99494357D01*
X142648968Y-99528497D01*
X142783251Y-99622523D01*
X142788233Y-99624846D01*
X142788238Y-99624849D01*
X142823049Y-99641081D01*
X142876334Y-99687998D01*
X142895795Y-99756275D01*
X142875253Y-99824235D01*
X142823049Y-99869471D01*
X142788489Y-99885586D01*
X142778994Y-99891069D01*
X142726952Y-99927509D01*
X142718576Y-99937988D01*
X142725644Y-99951434D01*
X143710115Y-100935905D01*
X143744141Y-100998217D01*
X143739076Y-101069032D01*
X143710115Y-101114095D01*
X143529095Y-101295115D01*
X143466783Y-101329141D01*
X143395968Y-101324076D01*
X143350905Y-101295115D01*
X142365713Y-100309923D01*
X142353938Y-100303493D01*
X142341923Y-100312789D01*
X142306069Y-100363994D01*
X142300586Y-100373489D01*
X142208510Y-100570947D01*
X142204764Y-100581239D01*
X142148375Y-100791688D01*
X142146472Y-100802481D01*
X142127483Y-101019525D01*
X142127483Y-101030475D01*
X142146472Y-101247519D01*
X142148375Y-101258312D01*
X142204764Y-101468761D01*
X142208512Y-101479058D01*
X142210000Y-101482249D01*
X142210234Y-101483789D01*
X142210393Y-101484226D01*
X142210305Y-101484258D01*
X142220662Y-101552441D01*
X142191683Y-101617254D01*
X142132263Y-101656110D01*
X142095806Y-101661500D01*
X105373763Y-101661500D01*
X105362579Y-101660973D01*
X105355091Y-101659299D01*
X105347168Y-101659548D01*
X105287033Y-101661438D01*
X105283075Y-101661500D01*
X105255144Y-101661500D01*
X105251229Y-101661995D01*
X105251225Y-101661995D01*
X105251167Y-101662003D01*
X105251138Y-101662006D01*
X105239296Y-101662939D01*
X105195110Y-101664327D01*
X105177744Y-101669372D01*
X105175658Y-101669978D01*
X105156306Y-101673986D01*
X105144068Y-101675532D01*
X105144066Y-101675533D01*
X105136203Y-101676526D01*
X105095086Y-101692806D01*
X105083885Y-101696641D01*
X105041406Y-101708982D01*
X105034587Y-101713015D01*
X105034582Y-101713017D01*
X105023971Y-101719293D01*
X105006221Y-101727990D01*
X104987383Y-101735448D01*
X104980967Y-101740109D01*
X104980966Y-101740110D01*
X104951625Y-101761428D01*
X104941701Y-101767947D01*
X104910460Y-101786422D01*
X104910455Y-101786426D01*
X104903637Y-101790458D01*
X104889313Y-101804782D01*
X104874281Y-101817621D01*
X104857893Y-101829528D01*
X104834951Y-101857260D01*
X104829712Y-101863593D01*
X104821722Y-101872373D01*
X104201999Y-102492096D01*
X104139687Y-102526122D01*
X104068872Y-102521057D01*
X104012036Y-102478510D01*
X103987843Y-102418354D01*
X103986656Y-102408683D01*
X103941523Y-102193580D01*
X103938463Y-102183383D01*
X103857737Y-101978971D01*
X103853006Y-101969439D01*
X103738984Y-101781538D01*
X103732720Y-101772948D01*
X103588673Y-101606948D01*
X103581042Y-101599528D01*
X103411089Y-101460174D01*
X103402326Y-101454152D01*
X103375289Y-101438762D01*
X103325982Y-101387680D01*
X103312120Y-101318049D01*
X103338103Y-101251978D01*
X103367253Y-101224739D01*
X103449308Y-101169496D01*
X103489319Y-101142559D01*
X103504250Y-101128316D01*
X103613182Y-101024399D01*
X103656135Y-100983424D01*
X103793754Y-100798458D01*
X103796170Y-100793706D01*
X103796175Y-100793698D01*
X103801922Y-100782394D01*
X103850625Y-100730737D01*
X103914238Y-100713500D01*
X139226233Y-100713500D01*
X139237416Y-100714027D01*
X139244909Y-100715702D01*
X139252835Y-100715453D01*
X139252836Y-100715453D01*
X139312986Y-100713562D01*
X139316945Y-100713500D01*
X139344856Y-100713500D01*
X139348791Y-100713003D01*
X139348856Y-100712995D01*
X139360693Y-100712062D01*
X139392951Y-100711048D01*
X139396970Y-100710922D01*
X139404889Y-100710673D01*
X139424343Y-100705021D01*
X139443700Y-100701013D01*
X139455930Y-100699468D01*
X139455931Y-100699468D01*
X139463797Y-100698474D01*
X139471168Y-100695555D01*
X139471170Y-100695555D01*
X139504912Y-100682196D01*
X139516142Y-100678351D01*
X139550983Y-100668229D01*
X139550984Y-100668229D01*
X139558593Y-100666018D01*
X139565412Y-100661985D01*
X139565417Y-100661983D01*
X139576028Y-100655707D01*
X139593776Y-100647012D01*
X139612617Y-100639552D01*
X139648387Y-100613564D01*
X139658307Y-100607048D01*
X139689535Y-100588580D01*
X139689538Y-100588578D01*
X139696362Y-100584542D01*
X139710683Y-100570221D01*
X139725717Y-100557380D01*
X139735694Y-100550131D01*
X139742107Y-100545472D01*
X139770298Y-100511395D01*
X139778288Y-100502616D01*
X141913411Y-98367494D01*
X141975723Y-98333468D01*
X142046539Y-98338533D01*
G37*
%TD.AperFunction*%
%TD*%
M02*
