M48
; DRILL file {KiCad (6.0.7)} date Wed Mar  1 01:03:27 2023
; FORMAT={-:-/ absolute / inch / decimal}
; #@! TF.CreationDate,2023-03-01T01:03:27+09:00
; #@! TF.GenerationSoftware,Kicad,Pcbnew,(6.0.7)
; #@! TF.FileFunction,Plated,1,2,PTH
FMAT,2
INCH
; #@! TA.AperFunction,Plated,PTH,ComponentDrill
T1C0.0315
; #@! TA.AperFunction,Plated,PTH,ComponentDrill
T2C0.0374
; #@! TA.AperFunction,Plated,PTH,ComponentDrill
T3C0.0394
%
G90
G05
T1
X6.5972Y-4.3594
X6.6972Y-3.8594
X6.6972Y-4.3594
X6.7972Y-4.3594
X6.8972Y-4.3594
X6.9972Y-4.3594
X7.0972Y-4.3594
X7.1972Y-4.3594
X7.2972Y-4.3594
X7.3972Y-3.8594
X7.3972Y-4.3594
X7.4972Y-4.3594
T2
X4.0358Y-3.8417
X4.0358Y-3.9402
X4.0358Y-4.0386
X4.0358Y-4.137
X7.6642Y-3.8417
X7.6642Y-3.9402
X7.6642Y-4.0386
X7.6642Y-4.137
T3
X5.6472Y-3.7774
X5.6472Y-3.8774
X5.6472Y-3.9774
X5.6472Y-4.0774
X5.6472Y-4.1774
X5.6472Y-4.2774
T0
M30
