%TF.GenerationSoftware,KiCad,Pcbnew,(6.0.11)*%
%TF.CreationDate,2023-02-20T15:08:45+09:00*%
%TF.ProjectId,airdata,61697264-6174-4612-9e6b-696361645f70,rev?*%
%TF.SameCoordinates,Original*%
%TF.FileFunction,Copper,L2,Bot*%
%TF.FilePolarity,Positive*%
%FSLAX46Y46*%
G04 Gerber Fmt 4.6, Leading zero omitted, Abs format (unit mm)*
G04 Created by KiCad (PCBNEW (6.0.11)) date 2023-02-20 15:08:45*
%MOMM*%
%LPD*%
G01*
G04 APERTURE LIST*
G04 Aperture macros list*
%AMRoundRect*
0 Rectangle with rounded corners*
0 $1 Rounding radius*
0 $2 $3 $4 $5 $6 $7 $8 $9 X,Y pos of 4 corners*
0 Add a 4 corners polygon primitive as box body*
4,1,4,$2,$3,$4,$5,$6,$7,$8,$9,$2,$3,0*
0 Add four circle primitives for the rounded corners*
1,1,$1+$1,$2,$3*
1,1,$1+$1,$4,$5*
1,1,$1+$1,$6,$7*
1,1,$1+$1,$8,$9*
0 Add four rect primitives between the rounded corners*
20,1,$1+$1,$2,$3,$4,$5,0*
20,1,$1+$1,$4,$5,$6,$7,0*
20,1,$1+$1,$6,$7,$8,$9,0*
20,1,$1+$1,$8,$9,$2,$3,0*%
G04 Aperture macros list end*
%TA.AperFunction,ComponentPad*%
%ADD10RoundRect,0.250000X0.725000X-0.600000X0.725000X0.600000X-0.725000X0.600000X-0.725000X-0.600000X0*%
%TD*%
%TA.AperFunction,ComponentPad*%
%ADD11O,1.950000X1.700000*%
%TD*%
%TA.AperFunction,ComponentPad*%
%ADD12RoundRect,0.250000X-0.725000X0.600000X-0.725000X-0.600000X0.725000X-0.600000X0.725000X0.600000X0*%
%TD*%
%TA.AperFunction,ComponentPad*%
%ADD13C,1.400000*%
%TD*%
%TA.AperFunction,ComponentPad*%
%ADD14C,1.600000*%
%TD*%
%TA.AperFunction,Conductor*%
%ADD15C,0.250000*%
%TD*%
G04 APERTURE END LIST*
D10*
%TO.P,TORICA-UART1,1,Pin_1*%
%TO.N,GND*%
X194670000Y-105080000D03*
D11*
%TO.P,TORICA-UART1,2,Pin_2*%
%TO.N,+5V*%
X194670000Y-102580000D03*
%TO.P,TORICA-UART1,3,Pin_3*%
%TO.N,/DTXR*%
X194670000Y-100080000D03*
%TO.P,TORICA-UART1,4,Pin_4*%
%TO.N,/DRXT*%
X194670000Y-97580000D03*
%TD*%
D12*
%TO.P,PitotTube1,1,Pin_1*%
%TO.N,/SCL*%
X102510000Y-97580000D03*
D11*
%TO.P,PitotTube1,2,Pin_2*%
%TO.N,+3V3*%
X102510000Y-100080000D03*
%TO.P,PitotTube1,3,Pin_3*%
%TO.N,GND*%
X102510000Y-102580000D03*
%TO.P,PitotTube1,4,Pin_4*%
%TO.N,/SDA*%
X102510000Y-105080000D03*
%TD*%
D13*
%TO.P,J1,1,DAT2*%
%TO.N,unconnected-(J1-Pad1)*%
X167570000Y-110730000D03*
%TO.P,J1,2,DAT3/CD*%
%TO.N,/CS*%
X170110000Y-110730000D03*
%TO.P,J1,3,CMD*%
%TO.N,Net-(J1-Pad3)*%
X172650000Y-110730000D03*
%TO.P,J1,4,VDD*%
%TO.N,+3V3*%
X175190000Y-110730000D03*
%TO.P,J1,5,CLK*%
%TO.N,Net-(J1-Pad5)*%
X177730000Y-110730000D03*
%TO.P,J1,6,VSS*%
%TO.N,GND*%
X180270000Y-110730000D03*
%TO.P,J1,7,DAT0*%
%TO.N,Net-(J1-Pad7)*%
X182810000Y-110730000D03*
%TO.P,J1,8,DAT1*%
%TO.N,unconnected-(J1-Pad8)*%
X185350000Y-110730000D03*
%TO.P,J1,9,DET_B*%
%TO.N,unconnected-(J1-Pad9)*%
X187890000Y-110730000D03*
%TO.P,J1,10,DET_A*%
%TO.N,unconnected-(J1-Pad10)*%
X190430000Y-110730000D03*
%TO.P,J1,11,SHIELD*%
%TO.N,unconnected-(J1-Pad11)*%
X187890000Y-98030000D03*
%TO.P,J1,13*%
%TO.N,N/C*%
X170110000Y-98030000D03*
%TD*%
D14*
%TO.P,U1,1,VCC*%
%TO.N,+3V3*%
X143440000Y-95945000D03*
%TO.P,U1,2,SDI*%
%TO.N,/SDA*%
X143440000Y-98485000D03*
%TO.P,U1,3,GND*%
%TO.N,GND*%
X143440000Y-101025000D03*
%TO.P,U1,4,SDO*%
%TO.N,unconnected-(U1-Pad4)*%
X143440000Y-103565000D03*
%TO.P,U1,5,CSK*%
%TO.N,/SCL*%
X143440000Y-106105000D03*
%TO.P,U1,6,CS*%
%TO.N,unconnected-(U1-Pad6)*%
X143440000Y-108645000D03*
%TD*%
D15*
%TO.N,/SCL*%
X134915000Y-97580000D02*
X143440000Y-106105000D01*
X102510000Y-97580000D02*
X134915000Y-97580000D01*
%TO.N,GND*%
X185920000Y-105080000D02*
X194670000Y-105080000D01*
X180270000Y-110730000D02*
X185920000Y-105080000D01*
X170565000Y-101025000D02*
X180270000Y-110730000D01*
X143440000Y-101025000D02*
X170565000Y-101025000D01*
%TD*%
%TA.AperFunction,Conductor*%
%TO.N,GND*%
G36*
X197553621Y-86888502D02*
G01*
X197600114Y-86942158D01*
X197611500Y-86994500D01*
X197611500Y-115665500D01*
X197591498Y-115733621D01*
X197537842Y-115780114D01*
X197485500Y-115791500D01*
X99694500Y-115791500D01*
X99626379Y-115771498D01*
X99579886Y-115717842D01*
X99568500Y-115665500D01*
X99568500Y-112132703D01*
X100890743Y-112132703D01*
X100928268Y-112417734D01*
X101004129Y-112695036D01*
X101005813Y-112698984D01*
X101068187Y-112845216D01*
X101116923Y-112959476D01*
X101128693Y-112979142D01*
X101223140Y-113136951D01*
X101264561Y-113206161D01*
X101444313Y-113430528D01*
X101652851Y-113628423D01*
X101886317Y-113796186D01*
X101890112Y-113798195D01*
X101890113Y-113798196D01*
X101911869Y-113809715D01*
X102140392Y-113930712D01*
X102410373Y-114029511D01*
X102691264Y-114090755D01*
X102719841Y-114093004D01*
X102914282Y-114108307D01*
X102914291Y-114108307D01*
X102916739Y-114108500D01*
X103072271Y-114108500D01*
X103074407Y-114108354D01*
X103074418Y-114108354D01*
X103282548Y-114094165D01*
X103282554Y-114094164D01*
X103286825Y-114093873D01*
X103291020Y-114093004D01*
X103291022Y-114093004D01*
X103427584Y-114064723D01*
X103568342Y-114035574D01*
X103839343Y-113939607D01*
X104094812Y-113807750D01*
X104098313Y-113805289D01*
X104098317Y-113805287D01*
X104261077Y-113690897D01*
X104330023Y-113642441D01*
X104540622Y-113446740D01*
X104722713Y-113224268D01*
X104778824Y-113132703D01*
X192890743Y-113132703D01*
X192891302Y-113136947D01*
X192891302Y-113136951D01*
X192907810Y-113262340D01*
X192928268Y-113417734D01*
X193004129Y-113695036D01*
X193005813Y-113698984D01*
X193107610Y-113937641D01*
X193116923Y-113959476D01*
X193158838Y-114029511D01*
X193205997Y-114108307D01*
X193264561Y-114206161D01*
X193444313Y-114430528D01*
X193652851Y-114628423D01*
X193886317Y-114796186D01*
X193890112Y-114798195D01*
X193890113Y-114798196D01*
X193911869Y-114809715D01*
X194140392Y-114930712D01*
X194410373Y-115029511D01*
X194691264Y-115090755D01*
X194719841Y-115093004D01*
X194914282Y-115108307D01*
X194914291Y-115108307D01*
X194916739Y-115108500D01*
X195072271Y-115108500D01*
X195074407Y-115108354D01*
X195074418Y-115108354D01*
X195282548Y-115094165D01*
X195282554Y-115094164D01*
X195286825Y-115093873D01*
X195291020Y-115093004D01*
X195291022Y-115093004D01*
X195427583Y-115064724D01*
X195568342Y-115035574D01*
X195839343Y-114939607D01*
X196094812Y-114807750D01*
X196098313Y-114805289D01*
X196098317Y-114805287D01*
X196212418Y-114725095D01*
X196330023Y-114642441D01*
X196540622Y-114446740D01*
X196722713Y-114224268D01*
X196872927Y-113979142D01*
X196889654Y-113941038D01*
X196949244Y-113805287D01*
X196988483Y-113715898D01*
X197067244Y-113439406D01*
X197107751Y-113154784D01*
X197107845Y-113136951D01*
X197109235Y-112871583D01*
X197109235Y-112871576D01*
X197109257Y-112867297D01*
X197071732Y-112582266D01*
X196995871Y-112304964D01*
X196933627Y-112159036D01*
X196884763Y-112044476D01*
X196884761Y-112044472D01*
X196883077Y-112040524D01*
X196779320Y-111867159D01*
X196737643Y-111797521D01*
X196737640Y-111797517D01*
X196735439Y-111793839D01*
X196555687Y-111569472D01*
X196432289Y-111452372D01*
X196350258Y-111374527D01*
X196350255Y-111374525D01*
X196347149Y-111371577D01*
X196113683Y-111203814D01*
X196091843Y-111192250D01*
X195992075Y-111139426D01*
X195859608Y-111069288D01*
X195589627Y-110970489D01*
X195308736Y-110909245D01*
X195277685Y-110906801D01*
X195085718Y-110891693D01*
X195085709Y-110891693D01*
X195083261Y-110891500D01*
X194927729Y-110891500D01*
X194925593Y-110891646D01*
X194925582Y-110891646D01*
X194717452Y-110905835D01*
X194717446Y-110905836D01*
X194713175Y-110906127D01*
X194708980Y-110906996D01*
X194708978Y-110906996D01*
X194572907Y-110935175D01*
X194431658Y-110964426D01*
X194160657Y-111060393D01*
X193905188Y-111192250D01*
X193901687Y-111194711D01*
X193901683Y-111194713D01*
X193891594Y-111201804D01*
X193669977Y-111357559D01*
X193459378Y-111553260D01*
X193277287Y-111775732D01*
X193127073Y-112020858D01*
X193011517Y-112284102D01*
X192932756Y-112560594D01*
X192892249Y-112845216D01*
X192892227Y-112849505D01*
X192892226Y-112849512D01*
X192891671Y-112955524D01*
X192890743Y-113132703D01*
X104778824Y-113132703D01*
X104872927Y-112979142D01*
X104988483Y-112715898D01*
X105067244Y-112439406D01*
X105107751Y-112154784D01*
X105107845Y-112136951D01*
X105109235Y-111871583D01*
X105109235Y-111871576D01*
X105109257Y-111867297D01*
X105099146Y-111790492D01*
X105072292Y-111586522D01*
X105071732Y-111582266D01*
X104995871Y-111304964D01*
X104925337Y-111139600D01*
X104884763Y-111044476D01*
X104884761Y-111044472D01*
X104883077Y-111040524D01*
X104802467Y-110905835D01*
X104737643Y-110797521D01*
X104737640Y-110797517D01*
X104735439Y-110793839D01*
X104684294Y-110730000D01*
X166356884Y-110730000D01*
X166375314Y-110940655D01*
X166376738Y-110945968D01*
X166376738Y-110945970D01*
X166428575Y-111139426D01*
X166430044Y-111144910D01*
X166432366Y-111149891D01*
X166432367Y-111149892D01*
X166506609Y-111309103D01*
X166519411Y-111336558D01*
X166640699Y-111509776D01*
X166790224Y-111659301D01*
X166963442Y-111780589D01*
X166968420Y-111782910D01*
X166968423Y-111782912D01*
X167150108Y-111867633D01*
X167155090Y-111869956D01*
X167160398Y-111871378D01*
X167160400Y-111871379D01*
X167354030Y-111923262D01*
X167354032Y-111923262D01*
X167359345Y-111924686D01*
X167570000Y-111943116D01*
X167780655Y-111924686D01*
X167785968Y-111923262D01*
X167785970Y-111923262D01*
X167979600Y-111871379D01*
X167979602Y-111871378D01*
X167984910Y-111869956D01*
X167989892Y-111867633D01*
X168171577Y-111782912D01*
X168171580Y-111782910D01*
X168176558Y-111780589D01*
X168349776Y-111659301D01*
X168499301Y-111509776D01*
X168620589Y-111336558D01*
X168633392Y-111309103D01*
X168707633Y-111149892D01*
X168707634Y-111149891D01*
X168709956Y-111144910D01*
X168711426Y-111139426D01*
X168718293Y-111113796D01*
X168755245Y-111053173D01*
X168819106Y-111022152D01*
X168889600Y-111030580D01*
X168944347Y-111075783D01*
X168961707Y-111113796D01*
X168968575Y-111139426D01*
X168970044Y-111144910D01*
X168972366Y-111149891D01*
X168972367Y-111149892D01*
X169046609Y-111309103D01*
X169059411Y-111336558D01*
X169180699Y-111509776D01*
X169330224Y-111659301D01*
X169503442Y-111780589D01*
X169508420Y-111782910D01*
X169508423Y-111782912D01*
X169690108Y-111867633D01*
X169695090Y-111869956D01*
X169700398Y-111871378D01*
X169700400Y-111871379D01*
X169894030Y-111923262D01*
X169894032Y-111923262D01*
X169899345Y-111924686D01*
X170110000Y-111943116D01*
X170320655Y-111924686D01*
X170325968Y-111923262D01*
X170325970Y-111923262D01*
X170519600Y-111871379D01*
X170519602Y-111871378D01*
X170524910Y-111869956D01*
X170529892Y-111867633D01*
X170711577Y-111782912D01*
X170711580Y-111782910D01*
X170716558Y-111780589D01*
X170889776Y-111659301D01*
X171039301Y-111509776D01*
X171160589Y-111336558D01*
X171173392Y-111309103D01*
X171247633Y-111149892D01*
X171247634Y-111149891D01*
X171249956Y-111144910D01*
X171251426Y-111139426D01*
X171258293Y-111113796D01*
X171295245Y-111053173D01*
X171359106Y-111022152D01*
X171429600Y-111030580D01*
X171484347Y-111075783D01*
X171501707Y-111113796D01*
X171508575Y-111139426D01*
X171510044Y-111144910D01*
X171512366Y-111149891D01*
X171512367Y-111149892D01*
X171586609Y-111309103D01*
X171599411Y-111336558D01*
X171720699Y-111509776D01*
X171870224Y-111659301D01*
X172043442Y-111780589D01*
X172048420Y-111782910D01*
X172048423Y-111782912D01*
X172230108Y-111867633D01*
X172235090Y-111869956D01*
X172240398Y-111871378D01*
X172240400Y-111871379D01*
X172434030Y-111923262D01*
X172434032Y-111923262D01*
X172439345Y-111924686D01*
X172650000Y-111943116D01*
X172860655Y-111924686D01*
X172865968Y-111923262D01*
X172865970Y-111923262D01*
X173059600Y-111871379D01*
X173059602Y-111871378D01*
X173064910Y-111869956D01*
X173069892Y-111867633D01*
X173251577Y-111782912D01*
X173251580Y-111782910D01*
X173256558Y-111780589D01*
X173429776Y-111659301D01*
X173579301Y-111509776D01*
X173700589Y-111336558D01*
X173713392Y-111309103D01*
X173787633Y-111149892D01*
X173787634Y-111149891D01*
X173789956Y-111144910D01*
X173791426Y-111139426D01*
X173798293Y-111113796D01*
X173835245Y-111053173D01*
X173899106Y-111022152D01*
X173969600Y-111030580D01*
X174024347Y-111075783D01*
X174041707Y-111113796D01*
X174048575Y-111139426D01*
X174050044Y-111144910D01*
X174052366Y-111149891D01*
X174052367Y-111149892D01*
X174126609Y-111309103D01*
X174139411Y-111336558D01*
X174260699Y-111509776D01*
X174410224Y-111659301D01*
X174583442Y-111780589D01*
X174588420Y-111782910D01*
X174588423Y-111782912D01*
X174770108Y-111867633D01*
X174775090Y-111869956D01*
X174780398Y-111871378D01*
X174780400Y-111871379D01*
X174974030Y-111923262D01*
X174974032Y-111923262D01*
X174979345Y-111924686D01*
X175190000Y-111943116D01*
X175400655Y-111924686D01*
X175405968Y-111923262D01*
X175405970Y-111923262D01*
X175599600Y-111871379D01*
X175599602Y-111871378D01*
X175604910Y-111869956D01*
X175609892Y-111867633D01*
X175791577Y-111782912D01*
X175791580Y-111782910D01*
X175796558Y-111780589D01*
X175969776Y-111659301D01*
X176119301Y-111509776D01*
X176240589Y-111336558D01*
X176253392Y-111309103D01*
X176327633Y-111149892D01*
X176327634Y-111149891D01*
X176329956Y-111144910D01*
X176331426Y-111139426D01*
X176338293Y-111113796D01*
X176375245Y-111053173D01*
X176439106Y-111022152D01*
X176509600Y-111030580D01*
X176564347Y-111075783D01*
X176581707Y-111113796D01*
X176588575Y-111139426D01*
X176590044Y-111144910D01*
X176592366Y-111149891D01*
X176592367Y-111149892D01*
X176666609Y-111309103D01*
X176679411Y-111336558D01*
X176800699Y-111509776D01*
X176950224Y-111659301D01*
X177123442Y-111780589D01*
X177128420Y-111782910D01*
X177128423Y-111782912D01*
X177310108Y-111867633D01*
X177315090Y-111869956D01*
X177320398Y-111871378D01*
X177320400Y-111871379D01*
X177514030Y-111923262D01*
X177514032Y-111923262D01*
X177519345Y-111924686D01*
X177730000Y-111943116D01*
X177940655Y-111924686D01*
X177945968Y-111923262D01*
X177945970Y-111923262D01*
X178139600Y-111871379D01*
X178139602Y-111871378D01*
X178144910Y-111869956D01*
X178149892Y-111867633D01*
X178331577Y-111782912D01*
X178331580Y-111782910D01*
X178336558Y-111780589D01*
X178388440Y-111744261D01*
X179620294Y-111744261D01*
X179629590Y-111756276D01*
X179659189Y-111777001D01*
X179668677Y-111782479D01*
X179850277Y-111867159D01*
X179860571Y-111870907D01*
X180054122Y-111922769D01*
X180064909Y-111924671D01*
X180264525Y-111942135D01*
X180275475Y-111942135D01*
X180475091Y-111924671D01*
X180485878Y-111922769D01*
X180679429Y-111870907D01*
X180689723Y-111867159D01*
X180871323Y-111782479D01*
X180880811Y-111777001D01*
X180911248Y-111755689D01*
X180919623Y-111745212D01*
X180912554Y-111731764D01*
X180282812Y-111102022D01*
X180268868Y-111094408D01*
X180267035Y-111094539D01*
X180260420Y-111098790D01*
X179626724Y-111732486D01*
X179620294Y-111744261D01*
X178388440Y-111744261D01*
X178509776Y-111659301D01*
X178659301Y-111509776D01*
X178780589Y-111336558D01*
X178793392Y-111309103D01*
X178867633Y-111149892D01*
X178867634Y-111149891D01*
X178869956Y-111144910D01*
X178871379Y-111139600D01*
X178871382Y-111139592D01*
X178878553Y-111112829D01*
X178915504Y-111052207D01*
X178979365Y-111021185D01*
X179049860Y-111029614D01*
X179104606Y-111074818D01*
X179121966Y-111112830D01*
X179129092Y-111139426D01*
X179132841Y-111149723D01*
X179217521Y-111331323D01*
X179222999Y-111340811D01*
X179244311Y-111371248D01*
X179254788Y-111379623D01*
X179268236Y-111372554D01*
X179897978Y-110742812D01*
X179904356Y-110731132D01*
X180634408Y-110731132D01*
X180634539Y-110732965D01*
X180638790Y-110739580D01*
X181272486Y-111373276D01*
X181284261Y-111379706D01*
X181296276Y-111370410D01*
X181317001Y-111340811D01*
X181322479Y-111331323D01*
X181407159Y-111149723D01*
X181410908Y-111139426D01*
X181418034Y-111112830D01*
X181454986Y-111052207D01*
X181518846Y-111021186D01*
X181589341Y-111029614D01*
X181644088Y-111074817D01*
X181661447Y-111112829D01*
X181668618Y-111139592D01*
X181668621Y-111139600D01*
X181670044Y-111144910D01*
X181672366Y-111149891D01*
X181672367Y-111149892D01*
X181746609Y-111309103D01*
X181759411Y-111336558D01*
X181880699Y-111509776D01*
X182030224Y-111659301D01*
X182203442Y-111780589D01*
X182208420Y-111782910D01*
X182208423Y-111782912D01*
X182390108Y-111867633D01*
X182395090Y-111869956D01*
X182400398Y-111871378D01*
X182400400Y-111871379D01*
X182594030Y-111923262D01*
X182594032Y-111923262D01*
X182599345Y-111924686D01*
X182810000Y-111943116D01*
X183020655Y-111924686D01*
X183025968Y-111923262D01*
X183025970Y-111923262D01*
X183219600Y-111871379D01*
X183219602Y-111871378D01*
X183224910Y-111869956D01*
X183229892Y-111867633D01*
X183411577Y-111782912D01*
X183411580Y-111782910D01*
X183416558Y-111780589D01*
X183589776Y-111659301D01*
X183739301Y-111509776D01*
X183860589Y-111336558D01*
X183873392Y-111309103D01*
X183947633Y-111149892D01*
X183947634Y-111149891D01*
X183949956Y-111144910D01*
X183951426Y-111139426D01*
X183958293Y-111113796D01*
X183995245Y-111053173D01*
X184059106Y-111022152D01*
X184129600Y-111030580D01*
X184184347Y-111075783D01*
X184201707Y-111113796D01*
X184208575Y-111139426D01*
X184210044Y-111144910D01*
X184212366Y-111149891D01*
X184212367Y-111149892D01*
X184286609Y-111309103D01*
X184299411Y-111336558D01*
X184420699Y-111509776D01*
X184570224Y-111659301D01*
X184743442Y-111780589D01*
X184748420Y-111782910D01*
X184748423Y-111782912D01*
X184930108Y-111867633D01*
X184935090Y-111869956D01*
X184940398Y-111871378D01*
X184940400Y-111871379D01*
X185134030Y-111923262D01*
X185134032Y-111923262D01*
X185139345Y-111924686D01*
X185350000Y-111943116D01*
X185560655Y-111924686D01*
X185565968Y-111923262D01*
X185565970Y-111923262D01*
X185759600Y-111871379D01*
X185759602Y-111871378D01*
X185764910Y-111869956D01*
X185769892Y-111867633D01*
X185951577Y-111782912D01*
X185951580Y-111782910D01*
X185956558Y-111780589D01*
X186129776Y-111659301D01*
X186279301Y-111509776D01*
X186400589Y-111336558D01*
X186413392Y-111309103D01*
X186487633Y-111149892D01*
X186487634Y-111149891D01*
X186489956Y-111144910D01*
X186491426Y-111139426D01*
X186498293Y-111113796D01*
X186535245Y-111053173D01*
X186599106Y-111022152D01*
X186669600Y-111030580D01*
X186724347Y-111075783D01*
X186741707Y-111113796D01*
X186748575Y-111139426D01*
X186750044Y-111144910D01*
X186752366Y-111149891D01*
X186752367Y-111149892D01*
X186826609Y-111309103D01*
X186839411Y-111336558D01*
X186960699Y-111509776D01*
X187110224Y-111659301D01*
X187283442Y-111780589D01*
X187288420Y-111782910D01*
X187288423Y-111782912D01*
X187470108Y-111867633D01*
X187475090Y-111869956D01*
X187480398Y-111871378D01*
X187480400Y-111871379D01*
X187674030Y-111923262D01*
X187674032Y-111923262D01*
X187679345Y-111924686D01*
X187890000Y-111943116D01*
X188100655Y-111924686D01*
X188105968Y-111923262D01*
X188105970Y-111923262D01*
X188299600Y-111871379D01*
X188299602Y-111871378D01*
X188304910Y-111869956D01*
X188309892Y-111867633D01*
X188491577Y-111782912D01*
X188491580Y-111782910D01*
X188496558Y-111780589D01*
X188669776Y-111659301D01*
X188819301Y-111509776D01*
X188940589Y-111336558D01*
X188953392Y-111309103D01*
X189027633Y-111149892D01*
X189027634Y-111149891D01*
X189029956Y-111144910D01*
X189031426Y-111139426D01*
X189038293Y-111113796D01*
X189075245Y-111053173D01*
X189139106Y-111022152D01*
X189209600Y-111030580D01*
X189264347Y-111075783D01*
X189281707Y-111113796D01*
X189288575Y-111139426D01*
X189290044Y-111144910D01*
X189292366Y-111149891D01*
X189292367Y-111149892D01*
X189366609Y-111309103D01*
X189379411Y-111336558D01*
X189500699Y-111509776D01*
X189650224Y-111659301D01*
X189823442Y-111780589D01*
X189828420Y-111782910D01*
X189828423Y-111782912D01*
X190010108Y-111867633D01*
X190015090Y-111869956D01*
X190020398Y-111871378D01*
X190020400Y-111871379D01*
X190214030Y-111923262D01*
X190214032Y-111923262D01*
X190219345Y-111924686D01*
X190430000Y-111943116D01*
X190640655Y-111924686D01*
X190645968Y-111923262D01*
X190645970Y-111923262D01*
X190839600Y-111871379D01*
X190839602Y-111871378D01*
X190844910Y-111869956D01*
X190849892Y-111867633D01*
X191031577Y-111782912D01*
X191031580Y-111782910D01*
X191036558Y-111780589D01*
X191209776Y-111659301D01*
X191359301Y-111509776D01*
X191480589Y-111336558D01*
X191493392Y-111309103D01*
X191567633Y-111149892D01*
X191567634Y-111149891D01*
X191569956Y-111144910D01*
X191571426Y-111139426D01*
X191623262Y-110945970D01*
X191623262Y-110945968D01*
X191624686Y-110940655D01*
X191643116Y-110730000D01*
X191624686Y-110519345D01*
X191602849Y-110437848D01*
X191571379Y-110320400D01*
X191571378Y-110320398D01*
X191569956Y-110315090D01*
X191512675Y-110192250D01*
X191482912Y-110128423D01*
X191482910Y-110128420D01*
X191480589Y-110123442D01*
X191359301Y-109950224D01*
X191209776Y-109800699D01*
X191036558Y-109679411D01*
X191031580Y-109677090D01*
X191031577Y-109677088D01*
X190849892Y-109592367D01*
X190849891Y-109592366D01*
X190844910Y-109590044D01*
X190839602Y-109588622D01*
X190839600Y-109588621D01*
X190645970Y-109536738D01*
X190645968Y-109536738D01*
X190640655Y-109535314D01*
X190430000Y-109516884D01*
X190219345Y-109535314D01*
X190214032Y-109536738D01*
X190214030Y-109536738D01*
X190020400Y-109588621D01*
X190020398Y-109588622D01*
X190015090Y-109590044D01*
X190010109Y-109592366D01*
X190010108Y-109592367D01*
X189828423Y-109677088D01*
X189828420Y-109677090D01*
X189823442Y-109679411D01*
X189650224Y-109800699D01*
X189500699Y-109950224D01*
X189379411Y-110123442D01*
X189377090Y-110128420D01*
X189377088Y-110128423D01*
X189347325Y-110192250D01*
X189290044Y-110315090D01*
X189288622Y-110320398D01*
X189288621Y-110320400D01*
X189281707Y-110346204D01*
X189244755Y-110406827D01*
X189180894Y-110437848D01*
X189110400Y-110429420D01*
X189055653Y-110384217D01*
X189038293Y-110346204D01*
X189031379Y-110320400D01*
X189031378Y-110320398D01*
X189029956Y-110315090D01*
X188972675Y-110192250D01*
X188942912Y-110128423D01*
X188942910Y-110128420D01*
X188940589Y-110123442D01*
X188819301Y-109950224D01*
X188669776Y-109800699D01*
X188496558Y-109679411D01*
X188491580Y-109677090D01*
X188491577Y-109677088D01*
X188309892Y-109592367D01*
X188309891Y-109592366D01*
X188304910Y-109590044D01*
X188299602Y-109588622D01*
X188299600Y-109588621D01*
X188105970Y-109536738D01*
X188105968Y-109536738D01*
X188100655Y-109535314D01*
X187890000Y-109516884D01*
X187679345Y-109535314D01*
X187674032Y-109536738D01*
X187674030Y-109536738D01*
X187480400Y-109588621D01*
X187480398Y-109588622D01*
X187475090Y-109590044D01*
X187470109Y-109592366D01*
X187470108Y-109592367D01*
X187288423Y-109677088D01*
X187288420Y-109677090D01*
X187283442Y-109679411D01*
X187110224Y-109800699D01*
X186960699Y-109950224D01*
X186839411Y-110123442D01*
X186837090Y-110128420D01*
X186837088Y-110128423D01*
X186807325Y-110192250D01*
X186750044Y-110315090D01*
X186748622Y-110320398D01*
X186748621Y-110320400D01*
X186741707Y-110346204D01*
X186704755Y-110406827D01*
X186640894Y-110437848D01*
X186570400Y-110429420D01*
X186515653Y-110384217D01*
X186498293Y-110346204D01*
X186491379Y-110320400D01*
X186491378Y-110320398D01*
X186489956Y-110315090D01*
X186432675Y-110192250D01*
X186402912Y-110128423D01*
X186402910Y-110128420D01*
X186400589Y-110123442D01*
X186279301Y-109950224D01*
X186129776Y-109800699D01*
X185956558Y-109679411D01*
X185951580Y-109677090D01*
X185951577Y-109677088D01*
X185769892Y-109592367D01*
X185769891Y-109592366D01*
X185764910Y-109590044D01*
X185759602Y-109588622D01*
X185759600Y-109588621D01*
X185565970Y-109536738D01*
X185565968Y-109536738D01*
X185560655Y-109535314D01*
X185350000Y-109516884D01*
X185139345Y-109535314D01*
X185134032Y-109536738D01*
X185134030Y-109536738D01*
X184940400Y-109588621D01*
X184940398Y-109588622D01*
X184935090Y-109590044D01*
X184930109Y-109592366D01*
X184930108Y-109592367D01*
X184748423Y-109677088D01*
X184748420Y-109677090D01*
X184743442Y-109679411D01*
X184570224Y-109800699D01*
X184420699Y-109950224D01*
X184299411Y-110123442D01*
X184297090Y-110128420D01*
X184297088Y-110128423D01*
X184267325Y-110192250D01*
X184210044Y-110315090D01*
X184208622Y-110320398D01*
X184208621Y-110320400D01*
X184201707Y-110346204D01*
X184164755Y-110406827D01*
X184100894Y-110437848D01*
X184030400Y-110429420D01*
X183975653Y-110384217D01*
X183958293Y-110346204D01*
X183951379Y-110320400D01*
X183951378Y-110320398D01*
X183949956Y-110315090D01*
X183892675Y-110192250D01*
X183862912Y-110128423D01*
X183862910Y-110128420D01*
X183860589Y-110123442D01*
X183739301Y-109950224D01*
X183589776Y-109800699D01*
X183416558Y-109679411D01*
X183411580Y-109677090D01*
X183411577Y-109677088D01*
X183229892Y-109592367D01*
X183229891Y-109592366D01*
X183224910Y-109590044D01*
X183219602Y-109588622D01*
X183219600Y-109588621D01*
X183025970Y-109536738D01*
X183025968Y-109536738D01*
X183020655Y-109535314D01*
X182810000Y-109516884D01*
X182599345Y-109535314D01*
X182594032Y-109536738D01*
X182594030Y-109536738D01*
X182400400Y-109588621D01*
X182400398Y-109588622D01*
X182395090Y-109590044D01*
X182390109Y-109592366D01*
X182390108Y-109592367D01*
X182208423Y-109677088D01*
X182208420Y-109677090D01*
X182203442Y-109679411D01*
X182030224Y-109800699D01*
X181880699Y-109950224D01*
X181759411Y-110123442D01*
X181757090Y-110128420D01*
X181757088Y-110128423D01*
X181727325Y-110192250D01*
X181670044Y-110315090D01*
X181668622Y-110320397D01*
X181668618Y-110320408D01*
X181661447Y-110347171D01*
X181624496Y-110407793D01*
X181560635Y-110438815D01*
X181490140Y-110430386D01*
X181435394Y-110385182D01*
X181418034Y-110347170D01*
X181410908Y-110320574D01*
X181407159Y-110310277D01*
X181322479Y-110128677D01*
X181317001Y-110119189D01*
X181295689Y-110088752D01*
X181285212Y-110080377D01*
X181271764Y-110087446D01*
X180642022Y-110717188D01*
X180634408Y-110731132D01*
X179904356Y-110731132D01*
X179905592Y-110728868D01*
X179905461Y-110727035D01*
X179901210Y-110720420D01*
X179267514Y-110086724D01*
X179255739Y-110080294D01*
X179243724Y-110089590D01*
X179222999Y-110119189D01*
X179217521Y-110128677D01*
X179132841Y-110310277D01*
X179129092Y-110320574D01*
X179121966Y-110347170D01*
X179085014Y-110407793D01*
X179021154Y-110438814D01*
X178950659Y-110430386D01*
X178895912Y-110385183D01*
X178878553Y-110347171D01*
X178871382Y-110320408D01*
X178871378Y-110320397D01*
X178869956Y-110315090D01*
X178812675Y-110192250D01*
X178782912Y-110128423D01*
X178782910Y-110128420D01*
X178780589Y-110123442D01*
X178659301Y-109950224D01*
X178509776Y-109800699D01*
X178387082Y-109714788D01*
X179620377Y-109714788D01*
X179627446Y-109728236D01*
X180257188Y-110357978D01*
X180271132Y-110365592D01*
X180272965Y-110365461D01*
X180279580Y-110361210D01*
X180913276Y-109727514D01*
X180919706Y-109715739D01*
X180910410Y-109703724D01*
X180880811Y-109682999D01*
X180871323Y-109677521D01*
X180689723Y-109592841D01*
X180679429Y-109589093D01*
X180485878Y-109537231D01*
X180475091Y-109535329D01*
X180275475Y-109517865D01*
X180264525Y-109517865D01*
X180064909Y-109535329D01*
X180054122Y-109537231D01*
X179860571Y-109589093D01*
X179850277Y-109592841D01*
X179668677Y-109677521D01*
X179659189Y-109682999D01*
X179628752Y-109704311D01*
X179620377Y-109714788D01*
X178387082Y-109714788D01*
X178336558Y-109679411D01*
X178331580Y-109677090D01*
X178331577Y-109677088D01*
X178149892Y-109592367D01*
X178149891Y-109592366D01*
X178144910Y-109590044D01*
X178139602Y-109588622D01*
X178139600Y-109588621D01*
X177945970Y-109536738D01*
X177945968Y-109536738D01*
X177940655Y-109535314D01*
X177730000Y-109516884D01*
X177519345Y-109535314D01*
X177514032Y-109536738D01*
X177514030Y-109536738D01*
X177320400Y-109588621D01*
X177320398Y-109588622D01*
X177315090Y-109590044D01*
X177310109Y-109592366D01*
X177310108Y-109592367D01*
X177128423Y-109677088D01*
X177128420Y-109677090D01*
X177123442Y-109679411D01*
X176950224Y-109800699D01*
X176800699Y-109950224D01*
X176679411Y-110123442D01*
X176677090Y-110128420D01*
X176677088Y-110128423D01*
X176647325Y-110192250D01*
X176590044Y-110315090D01*
X176588622Y-110320398D01*
X176588621Y-110320400D01*
X176581707Y-110346204D01*
X176544755Y-110406827D01*
X176480894Y-110437848D01*
X176410400Y-110429420D01*
X176355653Y-110384217D01*
X176338293Y-110346204D01*
X176331379Y-110320400D01*
X176331378Y-110320398D01*
X176329956Y-110315090D01*
X176272675Y-110192250D01*
X176242912Y-110128423D01*
X176242910Y-110128420D01*
X176240589Y-110123442D01*
X176119301Y-109950224D01*
X175969776Y-109800699D01*
X175796558Y-109679411D01*
X175791580Y-109677090D01*
X175791577Y-109677088D01*
X175609892Y-109592367D01*
X175609891Y-109592366D01*
X175604910Y-109590044D01*
X175599602Y-109588622D01*
X175599600Y-109588621D01*
X175405970Y-109536738D01*
X175405968Y-109536738D01*
X175400655Y-109535314D01*
X175190000Y-109516884D01*
X174979345Y-109535314D01*
X174974032Y-109536738D01*
X174974030Y-109536738D01*
X174780400Y-109588621D01*
X174780398Y-109588622D01*
X174775090Y-109590044D01*
X174770109Y-109592366D01*
X174770108Y-109592367D01*
X174588423Y-109677088D01*
X174588420Y-109677090D01*
X174583442Y-109679411D01*
X174410224Y-109800699D01*
X174260699Y-109950224D01*
X174139411Y-110123442D01*
X174137090Y-110128420D01*
X174137088Y-110128423D01*
X174107325Y-110192250D01*
X174050044Y-110315090D01*
X174048622Y-110320398D01*
X174048621Y-110320400D01*
X174041707Y-110346204D01*
X174004755Y-110406827D01*
X173940894Y-110437848D01*
X173870400Y-110429420D01*
X173815653Y-110384217D01*
X173798293Y-110346204D01*
X173791379Y-110320400D01*
X173791378Y-110320398D01*
X173789956Y-110315090D01*
X173732675Y-110192250D01*
X173702912Y-110128423D01*
X173702910Y-110128420D01*
X173700589Y-110123442D01*
X173579301Y-109950224D01*
X173429776Y-109800699D01*
X173256558Y-109679411D01*
X173251580Y-109677090D01*
X173251577Y-109677088D01*
X173069892Y-109592367D01*
X173069891Y-109592366D01*
X173064910Y-109590044D01*
X173059602Y-109588622D01*
X173059600Y-109588621D01*
X172865970Y-109536738D01*
X172865968Y-109536738D01*
X172860655Y-109535314D01*
X172650000Y-109516884D01*
X172439345Y-109535314D01*
X172434032Y-109536738D01*
X172434030Y-109536738D01*
X172240400Y-109588621D01*
X172240398Y-109588622D01*
X172235090Y-109590044D01*
X172230109Y-109592366D01*
X172230108Y-109592367D01*
X172048423Y-109677088D01*
X172048420Y-109677090D01*
X172043442Y-109679411D01*
X171870224Y-109800699D01*
X171720699Y-109950224D01*
X171599411Y-110123442D01*
X171597090Y-110128420D01*
X171597088Y-110128423D01*
X171567325Y-110192250D01*
X171510044Y-110315090D01*
X171508622Y-110320398D01*
X171508621Y-110320400D01*
X171501707Y-110346204D01*
X171464755Y-110406827D01*
X171400894Y-110437848D01*
X171330400Y-110429420D01*
X171275653Y-110384217D01*
X171258293Y-110346204D01*
X171251379Y-110320400D01*
X171251378Y-110320398D01*
X171249956Y-110315090D01*
X171192675Y-110192250D01*
X171162912Y-110128423D01*
X171162910Y-110128420D01*
X171160589Y-110123442D01*
X171039301Y-109950224D01*
X170889776Y-109800699D01*
X170716558Y-109679411D01*
X170711580Y-109677090D01*
X170711577Y-109677088D01*
X170529892Y-109592367D01*
X170529891Y-109592366D01*
X170524910Y-109590044D01*
X170519602Y-109588622D01*
X170519600Y-109588621D01*
X170325970Y-109536738D01*
X170325968Y-109536738D01*
X170320655Y-109535314D01*
X170110000Y-109516884D01*
X169899345Y-109535314D01*
X169894032Y-109536738D01*
X169894030Y-109536738D01*
X169700400Y-109588621D01*
X169700398Y-109588622D01*
X169695090Y-109590044D01*
X169690109Y-109592366D01*
X169690108Y-109592367D01*
X169508423Y-109677088D01*
X169508420Y-109677090D01*
X169503442Y-109679411D01*
X169330224Y-109800699D01*
X169180699Y-109950224D01*
X169059411Y-110123442D01*
X169057090Y-110128420D01*
X169057088Y-110128423D01*
X169027325Y-110192250D01*
X168970044Y-110315090D01*
X168968622Y-110320398D01*
X168968621Y-110320400D01*
X168961707Y-110346204D01*
X168924755Y-110406827D01*
X168860894Y-110437848D01*
X168790400Y-110429420D01*
X168735653Y-110384217D01*
X168718293Y-110346204D01*
X168711379Y-110320400D01*
X168711378Y-110320398D01*
X168709956Y-110315090D01*
X168652675Y-110192250D01*
X168622912Y-110128423D01*
X168622910Y-110128420D01*
X168620589Y-110123442D01*
X168499301Y-109950224D01*
X168349776Y-109800699D01*
X168176558Y-109679411D01*
X168171580Y-109677090D01*
X168171577Y-109677088D01*
X167989892Y-109592367D01*
X167989891Y-109592366D01*
X167984910Y-109590044D01*
X167979602Y-109588622D01*
X167979600Y-109588621D01*
X167785970Y-109536738D01*
X167785968Y-109536738D01*
X167780655Y-109535314D01*
X167570000Y-109516884D01*
X167359345Y-109535314D01*
X167354032Y-109536738D01*
X167354030Y-109536738D01*
X167160400Y-109588621D01*
X167160398Y-109588622D01*
X167155090Y-109590044D01*
X167150109Y-109592366D01*
X167150108Y-109592367D01*
X166968423Y-109677088D01*
X166968420Y-109677090D01*
X166963442Y-109679411D01*
X166790224Y-109800699D01*
X166640699Y-109950224D01*
X166519411Y-110123442D01*
X166517090Y-110128420D01*
X166517088Y-110128423D01*
X166487325Y-110192250D01*
X166430044Y-110315090D01*
X166428622Y-110320398D01*
X166428621Y-110320400D01*
X166397151Y-110437848D01*
X166375314Y-110519345D01*
X166356884Y-110730000D01*
X104684294Y-110730000D01*
X104555687Y-110569472D01*
X104347149Y-110371577D01*
X104113683Y-110203814D01*
X104091843Y-110192250D01*
X103971294Y-110128423D01*
X103859608Y-110069288D01*
X103589627Y-109970489D01*
X103308736Y-109909245D01*
X103277685Y-109906801D01*
X103085718Y-109891693D01*
X103085709Y-109891693D01*
X103083261Y-109891500D01*
X102927729Y-109891500D01*
X102925593Y-109891646D01*
X102925582Y-109891646D01*
X102717452Y-109905835D01*
X102717446Y-109905836D01*
X102713175Y-109906127D01*
X102708980Y-109906996D01*
X102708978Y-109906996D01*
X102572417Y-109935276D01*
X102431658Y-109964426D01*
X102160657Y-110060393D01*
X102108243Y-110087446D01*
X102046742Y-110119189D01*
X101905188Y-110192250D01*
X101901687Y-110194711D01*
X101901683Y-110194713D01*
X101891594Y-110201804D01*
X101669977Y-110357559D01*
X101654892Y-110371577D01*
X101489978Y-110524825D01*
X101459378Y-110553260D01*
X101277287Y-110775732D01*
X101127073Y-111020858D01*
X101125347Y-111024791D01*
X101125346Y-111024792D01*
X101086700Y-111112830D01*
X101011517Y-111284102D01*
X100932756Y-111560594D01*
X100892249Y-111845216D01*
X100892227Y-111849505D01*
X100892226Y-111849512D01*
X100891205Y-112044476D01*
X100890743Y-112132703D01*
X99568500Y-112132703D01*
X99568500Y-105015774D01*
X101023102Y-105015774D01*
X101031751Y-105246158D01*
X101032846Y-105251377D01*
X101034802Y-105260700D01*
X101079093Y-105471791D01*
X101081051Y-105476750D01*
X101081052Y-105476752D01*
X101149778Y-105650775D01*
X101163776Y-105686221D01*
X101283377Y-105883317D01*
X101286874Y-105887347D01*
X101393274Y-106009962D01*
X101434477Y-106057445D01*
X101438608Y-106060832D01*
X101608627Y-106200240D01*
X101608633Y-106200244D01*
X101612755Y-106203624D01*
X101617391Y-106206263D01*
X101617394Y-106206265D01*
X101726422Y-106268327D01*
X101813114Y-106317675D01*
X102029825Y-106396337D01*
X102035074Y-106397286D01*
X102035077Y-106397287D01*
X102252608Y-106436623D01*
X102252615Y-106436624D01*
X102256692Y-106437361D01*
X102274414Y-106438197D01*
X102279356Y-106438430D01*
X102279363Y-106438430D01*
X102280844Y-106438500D01*
X102692890Y-106438500D01*
X102767904Y-106432135D01*
X102859409Y-106424371D01*
X102859413Y-106424370D01*
X102864720Y-106423920D01*
X102869875Y-106422582D01*
X102869881Y-106422581D01*
X103082703Y-106367343D01*
X103082707Y-106367342D01*
X103087872Y-106366001D01*
X103092738Y-106363809D01*
X103092741Y-106363808D01*
X103293202Y-106273507D01*
X103298075Y-106271312D01*
X103489319Y-106142559D01*
X103656135Y-105983424D01*
X103793754Y-105798458D01*
X103826723Y-105733614D01*
X103895822Y-105597704D01*
X103898240Y-105592949D01*
X103934321Y-105476752D01*
X103965024Y-105377871D01*
X103966607Y-105372773D01*
X103981461Y-105260700D01*
X103996198Y-105149511D01*
X103996198Y-105149506D01*
X103996898Y-105144226D01*
X103988249Y-104913842D01*
X103940907Y-104688209D01*
X103938948Y-104683248D01*
X103858185Y-104478744D01*
X103858184Y-104478742D01*
X103856224Y-104473779D01*
X103736623Y-104276683D01*
X103688954Y-104221749D01*
X103589023Y-104106588D01*
X103589021Y-104106586D01*
X103585523Y-104102555D01*
X103543970Y-104068484D01*
X103411373Y-103959760D01*
X103411367Y-103959756D01*
X103407245Y-103956376D01*
X103402602Y-103953733D01*
X103375265Y-103938171D01*
X103325959Y-103887088D01*
X103312098Y-103817458D01*
X103338082Y-103751387D01*
X103367232Y-103724149D01*
X103484578Y-103645148D01*
X103492870Y-103638481D01*
X103651900Y-103486772D01*
X103658941Y-103478814D01*
X103790141Y-103302475D01*
X103795745Y-103293438D01*
X103895357Y-103097516D01*
X103899357Y-103087665D01*
X103964534Y-102877760D01*
X103966817Y-102867376D01*
X103968861Y-102851957D01*
X103966665Y-102837793D01*
X103953478Y-102834000D01*
X101068808Y-102834000D01*
X101055277Y-102837973D01*
X101053752Y-102848580D01*
X101078477Y-102966421D01*
X101081537Y-102976617D01*
X101162263Y-103181029D01*
X101166994Y-103190561D01*
X101281016Y-103378462D01*
X101287280Y-103387052D01*
X101431327Y-103553052D01*
X101438958Y-103560472D01*
X101608911Y-103699826D01*
X101617674Y-103705848D01*
X101644711Y-103721238D01*
X101694018Y-103772320D01*
X101707880Y-103841951D01*
X101681897Y-103908022D01*
X101652747Y-103935261D01*
X101649628Y-103937361D01*
X101530681Y-104017441D01*
X101363865Y-104176576D01*
X101226246Y-104361542D01*
X101223830Y-104366293D01*
X101223828Y-104366297D01*
X101193251Y-104426438D01*
X101121760Y-104567051D01*
X101120178Y-104572145D01*
X101120177Y-104572148D01*
X101080675Y-104699366D01*
X101053393Y-104787227D01*
X101052692Y-104792516D01*
X101029085Y-104970634D01*
X101023102Y-105015774D01*
X99568500Y-105015774D01*
X99568500Y-100015774D01*
X101023102Y-100015774D01*
X101031751Y-100246158D01*
X101079093Y-100471791D01*
X101081051Y-100476750D01*
X101081052Y-100476752D01*
X101153655Y-100660592D01*
X101163776Y-100686221D01*
X101283377Y-100883317D01*
X101286874Y-100887347D01*
X101411074Y-101030475D01*
X101434477Y-101057445D01*
X101438608Y-101060832D01*
X101608627Y-101200240D01*
X101608633Y-101200244D01*
X101612755Y-101203624D01*
X101617398Y-101206267D01*
X101644735Y-101221829D01*
X101694041Y-101272912D01*
X101707902Y-101342542D01*
X101681918Y-101408613D01*
X101652768Y-101435851D01*
X101535422Y-101514852D01*
X101527130Y-101521519D01*
X101368100Y-101673228D01*
X101361059Y-101681186D01*
X101229859Y-101857525D01*
X101224255Y-101866562D01*
X101124643Y-102062484D01*
X101120643Y-102072335D01*
X101055466Y-102282240D01*
X101053183Y-102292624D01*
X101051139Y-102308043D01*
X101053335Y-102322207D01*
X101066522Y-102326000D01*
X103951192Y-102326000D01*
X103964723Y-102322027D01*
X103966248Y-102311420D01*
X103941523Y-102193579D01*
X103938463Y-102183383D01*
X103857737Y-101978971D01*
X103853006Y-101969439D01*
X103738984Y-101781538D01*
X103732720Y-101772948D01*
X103588673Y-101606948D01*
X103581042Y-101599528D01*
X103411089Y-101460174D01*
X103402326Y-101454152D01*
X103375289Y-101438762D01*
X103325982Y-101387680D01*
X103312120Y-101318049D01*
X103338103Y-101251978D01*
X103367253Y-101224739D01*
X103420532Y-101188869D01*
X103489319Y-101142559D01*
X103656135Y-100983424D01*
X103793754Y-100798458D01*
X103898240Y-100592949D01*
X103934321Y-100476752D01*
X103965024Y-100377871D01*
X103966607Y-100372773D01*
X103974668Y-100311952D01*
X103996198Y-100149511D01*
X103996198Y-100149506D01*
X103996898Y-100144226D01*
X103988249Y-99913842D01*
X103940907Y-99688209D01*
X103914966Y-99622523D01*
X103858185Y-99478744D01*
X103858184Y-99478742D01*
X103856224Y-99473779D01*
X103736623Y-99276683D01*
X103707495Y-99243116D01*
X103589023Y-99106588D01*
X103589021Y-99106586D01*
X103585523Y-99102555D01*
X103549880Y-99073330D01*
X103509886Y-99014671D01*
X103507954Y-98943701D01*
X103544698Y-98882952D01*
X103563468Y-98868752D01*
X103703120Y-98782332D01*
X103709348Y-98778478D01*
X103834305Y-98653303D01*
X103927115Y-98502738D01*
X103966725Y-98383317D01*
X103980632Y-98341389D01*
X103980632Y-98341387D01*
X103982797Y-98334861D01*
X103983498Y-98328020D01*
X103983499Y-98328015D01*
X103983639Y-98326651D01*
X103983960Y-98325864D01*
X103984941Y-98321290D01*
X103985757Y-98321465D01*
X104010483Y-98260925D01*
X104068600Y-98220146D01*
X104108982Y-98213500D01*
X134600406Y-98213500D01*
X134668527Y-98233502D01*
X134689501Y-98250405D01*
X142130848Y-105691752D01*
X142164874Y-105754064D01*
X142163459Y-105813459D01*
X142147882Y-105871591D01*
X142147881Y-105871598D01*
X142146457Y-105876913D01*
X142126502Y-106105000D01*
X142146457Y-106333087D01*
X142147881Y-106338400D01*
X142147881Y-106338402D01*
X142174703Y-106438500D01*
X142205716Y-106554243D01*
X142208039Y-106559224D01*
X142208039Y-106559225D01*
X142300151Y-106756762D01*
X142300154Y-106756767D01*
X142302477Y-106761749D01*
X142433802Y-106949300D01*
X142595700Y-107111198D01*
X142600208Y-107114355D01*
X142600211Y-107114357D01*
X142678389Y-107169098D01*
X142783251Y-107242523D01*
X142788233Y-107244846D01*
X142788238Y-107244849D01*
X142822457Y-107260805D01*
X142875742Y-107307722D01*
X142895203Y-107375999D01*
X142874661Y-107443959D01*
X142822457Y-107489195D01*
X142788238Y-107505151D01*
X142788233Y-107505154D01*
X142783251Y-107507477D01*
X142678389Y-107580902D01*
X142600211Y-107635643D01*
X142600208Y-107635645D01*
X142595700Y-107638802D01*
X142433802Y-107800700D01*
X142302477Y-107988251D01*
X142300154Y-107993233D01*
X142300151Y-107993238D01*
X142208039Y-108190775D01*
X142205716Y-108195757D01*
X142146457Y-108416913D01*
X142126502Y-108645000D01*
X142146457Y-108873087D01*
X142205716Y-109094243D01*
X142208039Y-109099224D01*
X142208039Y-109099225D01*
X142300151Y-109296762D01*
X142300154Y-109296767D01*
X142302477Y-109301749D01*
X142433802Y-109489300D01*
X142595700Y-109651198D01*
X142600208Y-109654355D01*
X142600211Y-109654357D01*
X142633293Y-109677521D01*
X142783251Y-109782523D01*
X142788233Y-109784846D01*
X142788238Y-109784849D01*
X142985775Y-109876961D01*
X142990757Y-109879284D01*
X142996065Y-109880706D01*
X142996067Y-109880707D01*
X143206598Y-109937119D01*
X143206600Y-109937119D01*
X143211913Y-109938543D01*
X143440000Y-109958498D01*
X143668087Y-109938543D01*
X143673400Y-109937119D01*
X143673402Y-109937119D01*
X143883933Y-109880707D01*
X143883935Y-109880706D01*
X143889243Y-109879284D01*
X143894225Y-109876961D01*
X144091762Y-109784849D01*
X144091767Y-109784846D01*
X144096749Y-109782523D01*
X144246707Y-109677521D01*
X144279789Y-109654357D01*
X144279792Y-109654355D01*
X144284300Y-109651198D01*
X144446198Y-109489300D01*
X144577523Y-109301749D01*
X144579846Y-109296767D01*
X144579849Y-109296762D01*
X144671961Y-109099225D01*
X144671961Y-109099224D01*
X144674284Y-109094243D01*
X144733543Y-108873087D01*
X144753498Y-108645000D01*
X144733543Y-108416913D01*
X144674284Y-108195757D01*
X144671961Y-108190775D01*
X144579849Y-107993238D01*
X144579846Y-107993233D01*
X144577523Y-107988251D01*
X144446198Y-107800700D01*
X144284300Y-107638802D01*
X144279792Y-107635645D01*
X144279789Y-107635643D01*
X144201611Y-107580902D01*
X144096749Y-107507477D01*
X144091767Y-107505154D01*
X144091762Y-107505151D01*
X144057543Y-107489195D01*
X144004258Y-107442278D01*
X143984797Y-107374001D01*
X144005339Y-107306041D01*
X144057543Y-107260805D01*
X144091762Y-107244849D01*
X144091767Y-107244846D01*
X144096749Y-107242523D01*
X144201611Y-107169098D01*
X144279789Y-107114357D01*
X144279792Y-107114355D01*
X144284300Y-107111198D01*
X144446198Y-106949300D01*
X144577523Y-106761749D01*
X144579846Y-106756767D01*
X144579849Y-106756762D01*
X144671961Y-106559225D01*
X144671961Y-106559224D01*
X144674284Y-106554243D01*
X144705298Y-106438500D01*
X144732119Y-106338402D01*
X144732119Y-106338400D01*
X144733543Y-106333087D01*
X144753498Y-106105000D01*
X144733543Y-105876913D01*
X144720414Y-105827914D01*
X144693399Y-105727095D01*
X193187001Y-105727095D01*
X193187338Y-105733614D01*
X193197257Y-105829206D01*
X193200149Y-105842600D01*
X193251588Y-105996784D01*
X193257761Y-106009962D01*
X193343063Y-106147807D01*
X193352099Y-106159208D01*
X193466829Y-106273739D01*
X193478240Y-106282751D01*
X193616243Y-106367816D01*
X193629424Y-106373963D01*
X193783710Y-106425138D01*
X193797086Y-106428005D01*
X193891438Y-106437672D01*
X193897854Y-106438000D01*
X194397885Y-106438000D01*
X194413124Y-106433525D01*
X194414329Y-106432135D01*
X194416000Y-106424452D01*
X194416000Y-106419884D01*
X194924000Y-106419884D01*
X194928475Y-106435123D01*
X194929865Y-106436328D01*
X194937548Y-106437999D01*
X195442095Y-106437999D01*
X195448614Y-106437662D01*
X195544206Y-106427743D01*
X195557600Y-106424851D01*
X195711784Y-106373412D01*
X195724962Y-106367239D01*
X195862807Y-106281937D01*
X195874208Y-106272901D01*
X195988739Y-106158171D01*
X195997751Y-106146760D01*
X196082816Y-106008757D01*
X196088963Y-105995576D01*
X196140138Y-105841290D01*
X196143005Y-105827914D01*
X196152672Y-105733562D01*
X196153000Y-105727146D01*
X196153000Y-105352115D01*
X196148525Y-105336876D01*
X196147135Y-105335671D01*
X196139452Y-105334000D01*
X194942115Y-105334000D01*
X194926876Y-105338475D01*
X194925671Y-105339865D01*
X194924000Y-105347548D01*
X194924000Y-106419884D01*
X194416000Y-106419884D01*
X194416000Y-105352115D01*
X194411525Y-105336876D01*
X194410135Y-105335671D01*
X194402452Y-105334000D01*
X193205116Y-105334000D01*
X193189877Y-105338475D01*
X193188672Y-105339865D01*
X193187001Y-105347548D01*
X193187001Y-105727095D01*
X144693399Y-105727095D01*
X144675707Y-105661067D01*
X144675706Y-105661065D01*
X144674284Y-105655757D01*
X144647214Y-105597704D01*
X144579849Y-105453238D01*
X144579846Y-105453233D01*
X144577523Y-105448251D01*
X144446198Y-105260700D01*
X144284300Y-105098802D01*
X144279792Y-105095645D01*
X144279789Y-105095643D01*
X144201611Y-105040902D01*
X144096749Y-104967477D01*
X144091767Y-104965154D01*
X144091762Y-104965151D01*
X144057543Y-104949195D01*
X144004258Y-104902278D01*
X143984797Y-104834001D01*
X144005339Y-104766041D01*
X144057543Y-104720805D01*
X144091762Y-104704849D01*
X144091767Y-104704846D01*
X144096749Y-104702523D01*
X144201611Y-104629098D01*
X144279789Y-104574357D01*
X144279792Y-104574355D01*
X144284300Y-104571198D01*
X144446198Y-104409300D01*
X144577523Y-104221749D01*
X144579846Y-104216767D01*
X144579849Y-104216762D01*
X144671961Y-104019225D01*
X144671961Y-104019224D01*
X144674284Y-104014243D01*
X144677611Y-104001829D01*
X144732119Y-103798402D01*
X144732119Y-103798400D01*
X144733543Y-103793087D01*
X144753498Y-103565000D01*
X144733543Y-103336913D01*
X144674284Y-103115757D01*
X144661185Y-103087665D01*
X144579849Y-102913238D01*
X144579846Y-102913233D01*
X144577523Y-102908251D01*
X144504098Y-102803389D01*
X144449357Y-102725211D01*
X144449355Y-102725208D01*
X144446198Y-102720700D01*
X144284300Y-102558802D01*
X144279792Y-102555645D01*
X144279789Y-102555643D01*
X144222850Y-102515774D01*
X193183102Y-102515774D01*
X193191751Y-102746158D01*
X193239093Y-102971791D01*
X193241051Y-102976750D01*
X193241052Y-102976752D01*
X193321726Y-103181029D01*
X193323776Y-103186221D01*
X193443377Y-103383317D01*
X193446874Y-103387347D01*
X193533438Y-103487103D01*
X193594477Y-103557445D01*
X193598608Y-103560832D01*
X193630529Y-103587006D01*
X193670524Y-103645666D01*
X193672455Y-103716636D01*
X193635710Y-103777384D01*
X193616941Y-103791584D01*
X193477193Y-103878063D01*
X193465792Y-103887099D01*
X193351261Y-104001829D01*
X193342249Y-104013240D01*
X193257184Y-104151243D01*
X193251037Y-104164424D01*
X193199862Y-104318710D01*
X193196995Y-104332086D01*
X193187328Y-104426438D01*
X193187000Y-104432855D01*
X193187000Y-104807885D01*
X193191475Y-104823124D01*
X193192865Y-104824329D01*
X193200548Y-104826000D01*
X196134884Y-104826000D01*
X196150123Y-104821525D01*
X196151328Y-104820135D01*
X196152999Y-104812452D01*
X196152999Y-104432905D01*
X196152662Y-104426386D01*
X196142743Y-104330794D01*
X196139851Y-104317400D01*
X196088412Y-104163216D01*
X196082239Y-104150038D01*
X195996937Y-104012193D01*
X195987901Y-104000792D01*
X195873171Y-103886261D01*
X195861757Y-103877247D01*
X195722287Y-103791277D01*
X195674793Y-103738505D01*
X195663369Y-103668434D01*
X195691643Y-103603310D01*
X195701430Y-103592847D01*
X195724871Y-103570486D01*
X195816135Y-103483424D01*
X195953754Y-103298458D01*
X195956307Y-103293438D01*
X196043944Y-103121067D01*
X196058240Y-103092949D01*
X196094321Y-102976752D01*
X196125024Y-102877871D01*
X196126607Y-102872773D01*
X196129366Y-102851957D01*
X196156198Y-102649511D01*
X196156198Y-102649506D01*
X196156898Y-102644226D01*
X196148249Y-102413842D01*
X196100907Y-102188209D01*
X196091510Y-102164414D01*
X196018185Y-101978744D01*
X196018184Y-101978742D01*
X196016224Y-101973779D01*
X195896623Y-101776683D01*
X195864858Y-101740077D01*
X195749023Y-101606588D01*
X195749021Y-101606586D01*
X195745523Y-101602555D01*
X195646693Y-101521519D01*
X195571373Y-101459760D01*
X195571367Y-101459756D01*
X195567245Y-101456376D01*
X195535750Y-101438448D01*
X195486445Y-101387368D01*
X195472583Y-101317738D01*
X195498566Y-101251667D01*
X195527716Y-101224427D01*
X195563642Y-101200240D01*
X195649319Y-101142559D01*
X195816135Y-100983424D01*
X195953754Y-100798458D01*
X196058240Y-100592949D01*
X196094321Y-100476752D01*
X196125024Y-100377871D01*
X196126607Y-100372773D01*
X196134668Y-100311952D01*
X196156198Y-100149511D01*
X196156198Y-100149506D01*
X196156898Y-100144226D01*
X196148249Y-99913842D01*
X196100907Y-99688209D01*
X196074966Y-99622523D01*
X196018185Y-99478744D01*
X196018184Y-99478742D01*
X196016224Y-99473779D01*
X195896623Y-99276683D01*
X195867495Y-99243116D01*
X195749023Y-99106588D01*
X195749021Y-99106586D01*
X195745523Y-99102555D01*
X195690023Y-99057048D01*
X195571373Y-98959760D01*
X195571367Y-98959756D01*
X195567245Y-98956376D01*
X195535750Y-98938448D01*
X195486445Y-98887368D01*
X195472583Y-98817738D01*
X195498566Y-98751667D01*
X195527716Y-98724427D01*
X195633360Y-98653303D01*
X195649319Y-98642559D01*
X195816135Y-98483424D01*
X195953754Y-98298458D01*
X195972091Y-98262393D01*
X196055822Y-98097704D01*
X196058240Y-98092949D01*
X196076087Y-98035475D01*
X196125024Y-97877871D01*
X196126607Y-97872773D01*
X196134393Y-97814030D01*
X196156198Y-97649511D01*
X196156198Y-97649506D01*
X196156898Y-97644226D01*
X196148249Y-97413842D01*
X196100907Y-97188209D01*
X196098258Y-97181502D01*
X196018185Y-96978744D01*
X196018184Y-96978742D01*
X196016224Y-96973779D01*
X196007240Y-96958973D01*
X195899390Y-96781243D01*
X195896623Y-96776683D01*
X195809755Y-96676576D01*
X195749023Y-96606588D01*
X195749021Y-96606586D01*
X195745523Y-96602555D01*
X195703970Y-96568484D01*
X195571373Y-96459760D01*
X195571367Y-96459756D01*
X195567245Y-96456376D01*
X195562609Y-96453737D01*
X195562606Y-96453735D01*
X195371529Y-96344968D01*
X195366886Y-96342325D01*
X195150175Y-96263663D01*
X195144926Y-96262714D01*
X195144923Y-96262713D01*
X194927392Y-96223377D01*
X194927385Y-96223376D01*
X194923308Y-96222639D01*
X194905586Y-96221803D01*
X194900644Y-96221570D01*
X194900637Y-96221570D01*
X194899156Y-96221500D01*
X194487110Y-96221500D01*
X194420191Y-96227178D01*
X194320591Y-96235629D01*
X194320587Y-96235630D01*
X194315280Y-96236080D01*
X194310125Y-96237418D01*
X194310119Y-96237419D01*
X194097297Y-96292657D01*
X194097293Y-96292658D01*
X194092128Y-96293999D01*
X194087262Y-96296191D01*
X194087259Y-96296192D01*
X193978980Y-96344968D01*
X193881925Y-96388688D01*
X193690681Y-96517441D01*
X193523865Y-96676576D01*
X193386246Y-96861542D01*
X193383830Y-96866293D01*
X193383828Y-96866297D01*
X193343840Y-96944949D01*
X193281760Y-97067051D01*
X193280178Y-97072145D01*
X193280177Y-97072148D01*
X193236130Y-97214001D01*
X193213393Y-97287227D01*
X193212692Y-97292516D01*
X193187486Y-97482699D01*
X193183102Y-97515774D01*
X193191751Y-97746158D01*
X193239093Y-97971791D01*
X193241051Y-97976750D01*
X193241052Y-97976752D01*
X193266452Y-98041067D01*
X193323776Y-98186221D01*
X193326543Y-98190780D01*
X193326544Y-98190783D01*
X193369998Y-98262393D01*
X193443377Y-98383317D01*
X193446874Y-98387347D01*
X193540977Y-98495791D01*
X193594477Y-98557445D01*
X193598608Y-98560832D01*
X193768627Y-98700240D01*
X193768633Y-98700244D01*
X193772755Y-98703624D01*
X193804250Y-98721552D01*
X193853555Y-98772632D01*
X193867417Y-98842262D01*
X193841434Y-98908333D01*
X193812284Y-98935573D01*
X193690681Y-99017441D01*
X193523865Y-99176576D01*
X193386246Y-99361542D01*
X193281760Y-99567051D01*
X193280178Y-99572145D01*
X193280177Y-99572148D01*
X193234490Y-99719284D01*
X193213393Y-99787227D01*
X193212692Y-99792516D01*
X193193286Y-99938938D01*
X193183102Y-100015774D01*
X193191751Y-100246158D01*
X193239093Y-100471791D01*
X193241051Y-100476750D01*
X193241052Y-100476752D01*
X193313655Y-100660592D01*
X193323776Y-100686221D01*
X193443377Y-100883317D01*
X193446874Y-100887347D01*
X193571074Y-101030475D01*
X193594477Y-101057445D01*
X193598608Y-101060832D01*
X193768627Y-101200240D01*
X193768633Y-101200244D01*
X193772755Y-101203624D01*
X193804250Y-101221552D01*
X193853555Y-101272632D01*
X193867417Y-101342262D01*
X193841434Y-101408333D01*
X193812284Y-101435573D01*
X193690681Y-101517441D01*
X193523865Y-101676576D01*
X193386246Y-101861542D01*
X193383830Y-101866293D01*
X193383828Y-101866297D01*
X193334003Y-101964296D01*
X193281760Y-102067051D01*
X193280178Y-102072145D01*
X193280177Y-102072148D01*
X193242472Y-102193579D01*
X193213393Y-102287227D01*
X193212692Y-102292516D01*
X193194805Y-102427477D01*
X193183102Y-102515774D01*
X144222850Y-102515774D01*
X144201611Y-102500902D01*
X144096749Y-102427477D01*
X144091767Y-102425154D01*
X144091762Y-102425151D01*
X144056951Y-102408919D01*
X144003666Y-102362002D01*
X143984205Y-102293725D01*
X144004747Y-102225765D01*
X144056951Y-102180529D01*
X144091511Y-102164414D01*
X144101006Y-102158931D01*
X144153048Y-102122491D01*
X144161424Y-102112012D01*
X144154356Y-102098566D01*
X143452812Y-101397022D01*
X143438868Y-101389408D01*
X143437035Y-101389539D01*
X143430420Y-101393790D01*
X142724923Y-102099287D01*
X142718493Y-102111062D01*
X142727789Y-102123077D01*
X142778994Y-102158931D01*
X142788489Y-102164414D01*
X142823049Y-102180529D01*
X142876334Y-102227446D01*
X142895795Y-102295723D01*
X142875253Y-102363683D01*
X142823049Y-102408919D01*
X142788238Y-102425151D01*
X142788233Y-102425154D01*
X142783251Y-102427477D01*
X142678389Y-102500902D01*
X142600211Y-102555643D01*
X142600208Y-102555645D01*
X142595700Y-102558802D01*
X142433802Y-102720700D01*
X142430645Y-102725208D01*
X142430643Y-102725211D01*
X142375902Y-102803389D01*
X142302477Y-102908251D01*
X142300154Y-102913233D01*
X142300151Y-102913238D01*
X142218815Y-103087665D01*
X142205716Y-103115757D01*
X142146457Y-103336913D01*
X142126502Y-103565000D01*
X142126981Y-103570475D01*
X142126981Y-103570486D01*
X142128026Y-103582430D01*
X142114038Y-103652035D01*
X142064639Y-103703027D01*
X141995513Y-103719218D01*
X141928607Y-103695466D01*
X141913411Y-103682507D01*
X139261380Y-101030475D01*
X142127483Y-101030475D01*
X142146472Y-101247519D01*
X142148375Y-101258312D01*
X142204764Y-101468761D01*
X142208510Y-101479053D01*
X142300586Y-101676511D01*
X142306069Y-101686006D01*
X142342509Y-101738048D01*
X142352988Y-101746424D01*
X142366434Y-101739356D01*
X143067978Y-101037812D01*
X143074356Y-101026132D01*
X143804408Y-101026132D01*
X143804539Y-101027965D01*
X143808790Y-101034580D01*
X144514287Y-101740077D01*
X144526062Y-101746507D01*
X144538077Y-101737211D01*
X144573931Y-101686006D01*
X144579414Y-101676511D01*
X144671490Y-101479053D01*
X144675236Y-101468761D01*
X144731625Y-101258312D01*
X144733528Y-101247519D01*
X144752517Y-101030475D01*
X144752517Y-101019525D01*
X144733528Y-100802481D01*
X144731625Y-100791688D01*
X144675236Y-100581239D01*
X144671490Y-100570947D01*
X144579414Y-100373489D01*
X144573931Y-100363994D01*
X144537491Y-100311952D01*
X144527012Y-100303576D01*
X144513566Y-100310644D01*
X143812022Y-101012188D01*
X143804408Y-101026132D01*
X143074356Y-101026132D01*
X143075592Y-101023868D01*
X143075461Y-101022035D01*
X143071210Y-101015420D01*
X142365713Y-100309923D01*
X142353938Y-100303493D01*
X142341923Y-100312789D01*
X142306069Y-100363994D01*
X142300586Y-100373489D01*
X142208510Y-100570947D01*
X142204764Y-100581239D01*
X142148375Y-100791688D01*
X142146472Y-100802481D01*
X142127483Y-101019525D01*
X142127483Y-101030475D01*
X139261380Y-101030475D01*
X138707657Y-100476752D01*
X136715905Y-98485000D01*
X142126502Y-98485000D01*
X142146457Y-98713087D01*
X142147881Y-98718400D01*
X142147881Y-98718402D01*
X142191973Y-98882952D01*
X142205716Y-98934243D01*
X142208039Y-98939224D01*
X142208039Y-98939225D01*
X142300151Y-99136762D01*
X142300154Y-99136767D01*
X142302477Y-99141749D01*
X142433802Y-99329300D01*
X142595700Y-99491198D01*
X142600208Y-99494355D01*
X142600211Y-99494357D01*
X142678389Y-99549098D01*
X142783251Y-99622523D01*
X142788233Y-99624846D01*
X142788238Y-99624849D01*
X142823049Y-99641081D01*
X142876334Y-99687998D01*
X142895795Y-99756275D01*
X142875253Y-99824235D01*
X142823049Y-99869471D01*
X142788489Y-99885586D01*
X142778994Y-99891069D01*
X142726952Y-99927509D01*
X142718576Y-99937988D01*
X142725644Y-99951434D01*
X143427188Y-100652978D01*
X143441132Y-100660592D01*
X143442965Y-100660461D01*
X143449580Y-100656210D01*
X144155077Y-99950713D01*
X144161507Y-99938938D01*
X144152211Y-99926923D01*
X144101006Y-99891069D01*
X144091511Y-99885586D01*
X144056951Y-99869471D01*
X144003666Y-99822554D01*
X143984205Y-99754277D01*
X144004747Y-99686317D01*
X144056951Y-99641081D01*
X144091762Y-99624849D01*
X144091767Y-99624846D01*
X144096749Y-99622523D01*
X144201611Y-99549098D01*
X144279789Y-99494357D01*
X144279792Y-99494355D01*
X144284300Y-99491198D01*
X144446198Y-99329300D01*
X144577523Y-99141749D01*
X144579846Y-99136767D01*
X144579849Y-99136762D01*
X144671961Y-98939225D01*
X144671961Y-98939224D01*
X144674284Y-98934243D01*
X144688028Y-98882952D01*
X144732119Y-98718402D01*
X144732119Y-98718400D01*
X144733543Y-98713087D01*
X144753498Y-98485000D01*
X144733543Y-98256913D01*
X144723691Y-98220146D01*
X144675707Y-98041067D01*
X144675706Y-98041065D01*
X144674284Y-98035757D01*
X144671961Y-98030775D01*
X144671600Y-98030000D01*
X168896884Y-98030000D01*
X168915314Y-98240655D01*
X168916738Y-98245968D01*
X168916738Y-98245970D01*
X168942306Y-98341389D01*
X168970044Y-98444910D01*
X168972366Y-98449891D01*
X168972367Y-98449892D01*
X168997010Y-98502738D01*
X169059411Y-98636558D01*
X169180699Y-98809776D01*
X169330224Y-98959301D01*
X169503442Y-99080589D01*
X169508420Y-99082910D01*
X169508423Y-99082912D01*
X169623905Y-99136762D01*
X169695090Y-99169956D01*
X169700398Y-99171378D01*
X169700400Y-99171379D01*
X169894030Y-99223262D01*
X169894032Y-99223262D01*
X169899345Y-99224686D01*
X170110000Y-99243116D01*
X170320655Y-99224686D01*
X170325968Y-99223262D01*
X170325970Y-99223262D01*
X170519600Y-99171379D01*
X170519602Y-99171378D01*
X170524910Y-99169956D01*
X170596095Y-99136762D01*
X170711577Y-99082912D01*
X170711580Y-99082910D01*
X170716558Y-99080589D01*
X170889776Y-98959301D01*
X171039301Y-98809776D01*
X171160589Y-98636558D01*
X171222991Y-98502738D01*
X171247633Y-98449892D01*
X171247634Y-98449891D01*
X171249956Y-98444910D01*
X171277695Y-98341389D01*
X171303262Y-98245970D01*
X171303262Y-98245968D01*
X171304686Y-98240655D01*
X171323116Y-98030000D01*
X186676884Y-98030000D01*
X186695314Y-98240655D01*
X186696738Y-98245968D01*
X186696738Y-98245970D01*
X186722306Y-98341389D01*
X186750044Y-98444910D01*
X186752366Y-98449891D01*
X186752367Y-98449892D01*
X186777010Y-98502738D01*
X186839411Y-98636558D01*
X186960699Y-98809776D01*
X187110224Y-98959301D01*
X187283442Y-99080589D01*
X187288420Y-99082910D01*
X187288423Y-99082912D01*
X187403905Y-99136762D01*
X187475090Y-99169956D01*
X187480398Y-99171378D01*
X187480400Y-99171379D01*
X187674030Y-99223262D01*
X187674032Y-99223262D01*
X187679345Y-99224686D01*
X187890000Y-99243116D01*
X188100655Y-99224686D01*
X188105968Y-99223262D01*
X188105970Y-99223262D01*
X188299600Y-99171379D01*
X188299602Y-99171378D01*
X188304910Y-99169956D01*
X188376095Y-99136762D01*
X188491577Y-99082912D01*
X188491580Y-99082910D01*
X188496558Y-99080589D01*
X188669776Y-98959301D01*
X188819301Y-98809776D01*
X188940589Y-98636558D01*
X189002991Y-98502738D01*
X189027633Y-98449892D01*
X189027634Y-98449891D01*
X189029956Y-98444910D01*
X189057695Y-98341389D01*
X189083262Y-98245970D01*
X189083262Y-98245968D01*
X189084686Y-98240655D01*
X189103116Y-98030000D01*
X189084686Y-97819345D01*
X189029956Y-97615090D01*
X188940589Y-97423442D01*
X188819301Y-97250224D01*
X188669776Y-97100699D01*
X188496558Y-96979411D01*
X188491580Y-96977090D01*
X188491577Y-96977088D01*
X188309892Y-96892367D01*
X188309891Y-96892366D01*
X188304910Y-96890044D01*
X188299602Y-96888622D01*
X188299600Y-96888621D01*
X188105970Y-96836738D01*
X188105968Y-96836738D01*
X188100655Y-96835314D01*
X187890000Y-96816884D01*
X187679345Y-96835314D01*
X187674032Y-96836738D01*
X187674030Y-96836738D01*
X187480400Y-96888621D01*
X187480398Y-96888622D01*
X187475090Y-96890044D01*
X187470109Y-96892366D01*
X187470108Y-96892367D01*
X187288423Y-96977088D01*
X187288420Y-96977090D01*
X187283442Y-96979411D01*
X187110224Y-97100699D01*
X186960699Y-97250224D01*
X186839411Y-97423442D01*
X186750044Y-97615090D01*
X186695314Y-97819345D01*
X186676884Y-98030000D01*
X171323116Y-98030000D01*
X171304686Y-97819345D01*
X171249956Y-97615090D01*
X171160589Y-97423442D01*
X171039301Y-97250224D01*
X170889776Y-97100699D01*
X170716558Y-96979411D01*
X170711580Y-96977090D01*
X170711577Y-96977088D01*
X170529892Y-96892367D01*
X170529891Y-96892366D01*
X170524910Y-96890044D01*
X170519602Y-96888622D01*
X170519600Y-96888621D01*
X170325970Y-96836738D01*
X170325968Y-96836738D01*
X170320655Y-96835314D01*
X170110000Y-96816884D01*
X169899345Y-96835314D01*
X169894032Y-96836738D01*
X169894030Y-96836738D01*
X169700400Y-96888621D01*
X169700398Y-96888622D01*
X169695090Y-96890044D01*
X169690109Y-96892366D01*
X169690108Y-96892367D01*
X169508423Y-96977088D01*
X169508420Y-96977090D01*
X169503442Y-96979411D01*
X169330224Y-97100699D01*
X169180699Y-97250224D01*
X169059411Y-97423442D01*
X168970044Y-97615090D01*
X168915314Y-97819345D01*
X168896884Y-98030000D01*
X144671600Y-98030000D01*
X144579849Y-97833238D01*
X144579846Y-97833233D01*
X144577523Y-97828251D01*
X144446198Y-97640700D01*
X144284300Y-97478802D01*
X144279792Y-97475645D01*
X144279789Y-97475643D01*
X144184074Y-97408623D01*
X144096749Y-97347477D01*
X144091767Y-97345154D01*
X144091762Y-97345151D01*
X144057543Y-97329195D01*
X144004258Y-97282278D01*
X143984797Y-97214001D01*
X144005339Y-97146041D01*
X144057543Y-97100805D01*
X144091762Y-97084849D01*
X144091767Y-97084846D01*
X144096749Y-97082523D01*
X144203744Y-97007604D01*
X144279789Y-96954357D01*
X144279792Y-96954355D01*
X144284300Y-96951198D01*
X144446198Y-96789300D01*
X144457855Y-96772653D01*
X144539498Y-96656054D01*
X144577523Y-96601749D01*
X144579846Y-96596767D01*
X144579849Y-96596762D01*
X144671961Y-96399225D01*
X144671961Y-96399224D01*
X144674284Y-96394243D01*
X144675773Y-96388688D01*
X144732119Y-96178402D01*
X144732119Y-96178400D01*
X144733543Y-96173087D01*
X144753498Y-95945000D01*
X144733543Y-95716913D01*
X144674284Y-95495757D01*
X144671961Y-95490775D01*
X144579849Y-95293238D01*
X144579846Y-95293233D01*
X144577523Y-95288251D01*
X144446198Y-95100700D01*
X144284300Y-94938802D01*
X144279792Y-94935645D01*
X144279789Y-94935643D01*
X144201611Y-94880902D01*
X144096749Y-94807477D01*
X144091767Y-94805154D01*
X144091762Y-94805151D01*
X143894225Y-94713039D01*
X143894224Y-94713039D01*
X143889243Y-94710716D01*
X143883935Y-94709294D01*
X143883933Y-94709293D01*
X143673402Y-94652881D01*
X143673400Y-94652881D01*
X143668087Y-94651457D01*
X143440000Y-94631502D01*
X143211913Y-94651457D01*
X143206600Y-94652881D01*
X143206598Y-94652881D01*
X142996067Y-94709293D01*
X142996065Y-94709294D01*
X142990757Y-94710716D01*
X142985776Y-94713039D01*
X142985775Y-94713039D01*
X142788238Y-94805151D01*
X142788233Y-94805154D01*
X142783251Y-94807477D01*
X142678389Y-94880902D01*
X142600211Y-94935643D01*
X142600208Y-94935645D01*
X142595700Y-94938802D01*
X142433802Y-95100700D01*
X142302477Y-95288251D01*
X142300154Y-95293233D01*
X142300151Y-95293238D01*
X142208039Y-95490775D01*
X142205716Y-95495757D01*
X142146457Y-95716913D01*
X142126502Y-95945000D01*
X142146457Y-96173087D01*
X142147881Y-96178400D01*
X142147881Y-96178402D01*
X142204228Y-96388688D01*
X142205716Y-96394243D01*
X142208039Y-96399224D01*
X142208039Y-96399225D01*
X142300151Y-96596762D01*
X142300154Y-96596767D01*
X142302477Y-96601749D01*
X142340502Y-96656054D01*
X142422146Y-96772653D01*
X142433802Y-96789300D01*
X142595700Y-96951198D01*
X142600208Y-96954355D01*
X142600211Y-96954357D01*
X142676256Y-97007604D01*
X142783251Y-97082523D01*
X142788233Y-97084846D01*
X142788238Y-97084849D01*
X142822457Y-97100805D01*
X142875742Y-97147722D01*
X142895203Y-97215999D01*
X142874661Y-97283959D01*
X142822457Y-97329195D01*
X142788238Y-97345151D01*
X142788233Y-97345154D01*
X142783251Y-97347477D01*
X142695926Y-97408623D01*
X142600211Y-97475643D01*
X142600208Y-97475645D01*
X142595700Y-97478802D01*
X142433802Y-97640700D01*
X142302477Y-97828251D01*
X142300154Y-97833233D01*
X142300151Y-97833238D01*
X142208039Y-98030775D01*
X142205716Y-98035757D01*
X142204294Y-98041065D01*
X142204293Y-98041067D01*
X142156309Y-98220146D01*
X142146457Y-98256913D01*
X142126502Y-98485000D01*
X136715905Y-98485000D01*
X135418652Y-97187747D01*
X135411112Y-97179461D01*
X135407000Y-97172982D01*
X135357348Y-97126356D01*
X135354507Y-97123602D01*
X135334770Y-97103865D01*
X135331573Y-97101385D01*
X135322551Y-97093680D01*
X135296100Y-97068841D01*
X135290321Y-97063414D01*
X135283375Y-97059595D01*
X135283372Y-97059593D01*
X135272566Y-97053652D01*
X135256047Y-97042801D01*
X135255583Y-97042441D01*
X135240041Y-97030386D01*
X135232772Y-97027241D01*
X135232768Y-97027238D01*
X135199463Y-97012826D01*
X135188813Y-97007609D01*
X135150060Y-96986305D01*
X135130437Y-96981267D01*
X135111734Y-96974863D01*
X135100420Y-96969967D01*
X135100419Y-96969967D01*
X135093145Y-96966819D01*
X135085322Y-96965580D01*
X135085312Y-96965577D01*
X135049476Y-96959901D01*
X135037856Y-96957495D01*
X135002711Y-96948472D01*
X135002710Y-96948472D01*
X134995030Y-96946500D01*
X134974776Y-96946500D01*
X134955065Y-96944949D01*
X134942886Y-96943020D01*
X134935057Y-96941780D01*
X134927165Y-96942526D01*
X134891039Y-96945941D01*
X134879181Y-96946500D01*
X104108856Y-96946500D01*
X104040735Y-96926498D01*
X103994242Y-96872842D01*
X103983529Y-96833504D01*
X103982526Y-96823834D01*
X103980208Y-96816884D01*
X103928868Y-96663002D01*
X103926550Y-96656054D01*
X103833478Y-96505652D01*
X103708303Y-96380695D01*
X103702072Y-96376854D01*
X103563968Y-96291725D01*
X103563966Y-96291724D01*
X103557738Y-96287885D01*
X103405587Y-96237419D01*
X103396389Y-96234368D01*
X103396387Y-96234368D01*
X103389861Y-96232203D01*
X103383025Y-96231503D01*
X103383022Y-96231502D01*
X103339969Y-96227091D01*
X103285400Y-96221500D01*
X101734600Y-96221500D01*
X101731354Y-96221837D01*
X101731350Y-96221837D01*
X101635692Y-96231762D01*
X101635688Y-96231763D01*
X101628834Y-96232474D01*
X101622298Y-96234655D01*
X101622296Y-96234655D01*
X101538197Y-96262713D01*
X101461054Y-96288450D01*
X101310652Y-96381522D01*
X101185695Y-96506697D01*
X101092885Y-96657262D01*
X101090581Y-96664209D01*
X101047798Y-96793197D01*
X101037203Y-96825139D01*
X101036503Y-96831975D01*
X101036502Y-96831978D01*
X101033912Y-96857260D01*
X101026500Y-96929600D01*
X101026500Y-98230400D01*
X101026837Y-98233646D01*
X101026837Y-98233650D01*
X101036487Y-98326651D01*
X101037474Y-98336166D01*
X101039655Y-98342702D01*
X101039655Y-98342704D01*
X101053205Y-98383317D01*
X101093450Y-98503946D01*
X101186522Y-98654348D01*
X101311697Y-98779305D01*
X101457340Y-98869081D01*
X101504832Y-98921852D01*
X101516256Y-98991924D01*
X101487982Y-99057048D01*
X101478195Y-99067510D01*
X101363865Y-99176576D01*
X101226246Y-99361542D01*
X101121760Y-99567051D01*
X101120178Y-99572145D01*
X101120177Y-99572148D01*
X101074490Y-99719284D01*
X101053393Y-99787227D01*
X101052692Y-99792516D01*
X101033286Y-99938938D01*
X101023102Y-100015774D01*
X99568500Y-100015774D01*
X99568500Y-90132703D01*
X100890743Y-90132703D01*
X100928268Y-90417734D01*
X101004129Y-90695036D01*
X101116923Y-90959476D01*
X101264561Y-91206161D01*
X101444313Y-91430528D01*
X101652851Y-91628423D01*
X101886317Y-91796186D01*
X101890112Y-91798195D01*
X101890113Y-91798196D01*
X101911869Y-91809715D01*
X102140392Y-91930712D01*
X102410373Y-92029511D01*
X102691264Y-92090755D01*
X102719841Y-92093004D01*
X102914282Y-92108307D01*
X102914291Y-92108307D01*
X102916739Y-92108500D01*
X103072271Y-92108500D01*
X103074407Y-92108354D01*
X103074418Y-92108354D01*
X103282548Y-92094165D01*
X103282554Y-92094164D01*
X103286825Y-92093873D01*
X103291020Y-92093004D01*
X103291022Y-92093004D01*
X103427583Y-92064724D01*
X103568342Y-92035574D01*
X103839343Y-91939607D01*
X104094812Y-91807750D01*
X104098313Y-91805289D01*
X104098317Y-91805287D01*
X104212417Y-91725096D01*
X104330023Y-91642441D01*
X104540622Y-91446740D01*
X104722713Y-91224268D01*
X104872927Y-90979142D01*
X104988483Y-90715898D01*
X105067244Y-90439406D01*
X105107751Y-90154784D01*
X105107845Y-90136951D01*
X105107867Y-90132703D01*
X192890743Y-90132703D01*
X192928268Y-90417734D01*
X193004129Y-90695036D01*
X193116923Y-90959476D01*
X193264561Y-91206161D01*
X193444313Y-91430528D01*
X193652851Y-91628423D01*
X193886317Y-91796186D01*
X193890112Y-91798195D01*
X193890113Y-91798196D01*
X193911869Y-91809715D01*
X194140392Y-91930712D01*
X194410373Y-92029511D01*
X194691264Y-92090755D01*
X194719841Y-92093004D01*
X194914282Y-92108307D01*
X194914291Y-92108307D01*
X194916739Y-92108500D01*
X195072271Y-92108500D01*
X195074407Y-92108354D01*
X195074418Y-92108354D01*
X195282548Y-92094165D01*
X195282554Y-92094164D01*
X195286825Y-92093873D01*
X195291020Y-92093004D01*
X195291022Y-92093004D01*
X195427583Y-92064724D01*
X195568342Y-92035574D01*
X195839343Y-91939607D01*
X196094812Y-91807750D01*
X196098313Y-91805289D01*
X196098317Y-91805287D01*
X196212417Y-91725096D01*
X196330023Y-91642441D01*
X196540622Y-91446740D01*
X196722713Y-91224268D01*
X196872927Y-90979142D01*
X196988483Y-90715898D01*
X197067244Y-90439406D01*
X197107751Y-90154784D01*
X197107845Y-90136951D01*
X197109235Y-89871583D01*
X197109235Y-89871576D01*
X197109257Y-89867297D01*
X197071732Y-89582266D01*
X196995871Y-89304964D01*
X196883077Y-89040524D01*
X196735439Y-88793839D01*
X196555687Y-88569472D01*
X196347149Y-88371577D01*
X196113683Y-88203814D01*
X196091843Y-88192250D01*
X196068654Y-88179972D01*
X195859608Y-88069288D01*
X195589627Y-87970489D01*
X195308736Y-87909245D01*
X195277685Y-87906801D01*
X195085718Y-87891693D01*
X195085709Y-87891693D01*
X195083261Y-87891500D01*
X194927729Y-87891500D01*
X194925593Y-87891646D01*
X194925582Y-87891646D01*
X194717452Y-87905835D01*
X194717446Y-87905836D01*
X194713175Y-87906127D01*
X194708980Y-87906996D01*
X194708978Y-87906996D01*
X194572417Y-87935276D01*
X194431658Y-87964426D01*
X194160657Y-88060393D01*
X193905188Y-88192250D01*
X193901687Y-88194711D01*
X193901683Y-88194713D01*
X193891594Y-88201804D01*
X193669977Y-88357559D01*
X193459378Y-88553260D01*
X193277287Y-88775732D01*
X193127073Y-89020858D01*
X193011517Y-89284102D01*
X192932756Y-89560594D01*
X192892249Y-89845216D01*
X192892227Y-89849505D01*
X192892226Y-89849512D01*
X192890765Y-90128417D01*
X192890743Y-90132703D01*
X105107867Y-90132703D01*
X105109235Y-89871583D01*
X105109235Y-89871576D01*
X105109257Y-89867297D01*
X105071732Y-89582266D01*
X104995871Y-89304964D01*
X104883077Y-89040524D01*
X104735439Y-88793839D01*
X104555687Y-88569472D01*
X104347149Y-88371577D01*
X104113683Y-88203814D01*
X104091843Y-88192250D01*
X104068654Y-88179972D01*
X103859608Y-88069288D01*
X103589627Y-87970489D01*
X103308736Y-87909245D01*
X103277685Y-87906801D01*
X103085718Y-87891693D01*
X103085709Y-87891693D01*
X103083261Y-87891500D01*
X102927729Y-87891500D01*
X102925593Y-87891646D01*
X102925582Y-87891646D01*
X102717452Y-87905835D01*
X102717446Y-87905836D01*
X102713175Y-87906127D01*
X102708980Y-87906996D01*
X102708978Y-87906996D01*
X102572417Y-87935276D01*
X102431658Y-87964426D01*
X102160657Y-88060393D01*
X101905188Y-88192250D01*
X101901687Y-88194711D01*
X101901683Y-88194713D01*
X101891594Y-88201804D01*
X101669977Y-88357559D01*
X101459378Y-88553260D01*
X101277287Y-88775732D01*
X101127073Y-89020858D01*
X101011517Y-89284102D01*
X100932756Y-89560594D01*
X100892249Y-89845216D01*
X100892227Y-89849505D01*
X100892226Y-89849512D01*
X100890765Y-90128417D01*
X100890743Y-90132703D01*
X99568500Y-90132703D01*
X99568500Y-86994500D01*
X99588502Y-86926379D01*
X99642158Y-86879886D01*
X99694500Y-86868500D01*
X197485500Y-86868500D01*
X197553621Y-86888502D01*
G37*
%TD.AperFunction*%
%TD*%
M02*
